<svg xmlns="http://www.w3.org/2000/svg" xmlns:xlink="http://www.w3.org/1999/xlink" viewBox="0 0 468.37 558.91"><defs><style>.cls-1{isolation:isolate;}.cls-2{fill:#b5917c;}.cls-3{opacity:0.38;fill:url(#radial-gradient);}.cls-4{fill:#172b4d;}.cls-5{fill:#a27f68;}.cls-6{fill:#091e42;}.cls-7{fill:url(#linear-gradient);}.cls-8{fill:url(#linear-gradient-2);}.cls-9{fill:url(#linear-gradient-3);}.cls-10{fill:url(#linear-gradient-4);}.cls-11{fill:url(#linear-gradient-5);}.cls-12{fill:#0052cc;}.cls-13,.cls-16,.cls-20,.cls-22,.cls-24,.cls-25{mix-blend-mode:multiply;}.cls-13{fill:url(#N75);}.cls-14{fill:#0065ff;}.cls-15{fill:#00b8d9;}.cls-16{fill:url(#N75-2);}.cls-17{fill:url(#linear-gradient-6);}.cls-18{fill:url(#New_Gradient_Swatch_12);}.cls-19{fill:#c1c7d0;}.cls-20{fill:url(#N75-3);}.cls-21{fill:url(#linear-gradient-7);}.cls-22{fill:url(#N75-4);}.cls-23{fill:#00c7e5;}.cls-24{fill:url(#N75-5);}.cls-25{fill:url(#N75-6);}.cls-26{fill:url(#New_Gradient_Swatch_15);}.cls-27{fill:url(#linear-gradient-8);}.cls-28{fill:url(#linear-gradient-9);}.cls-29{fill:url(#New_Gradient_Swatch_7);}.cls-30,.cls-31,.cls-32,.cls-33{fill:none;}.cls-30{stroke-miterlimit:10;stroke:url(#linear-gradient-10);}.cls-30,.cls-31{stroke-width:4.85px;}.cls-31{stroke:#dfe1e5;}.cls-31,.cls-32,.cls-33{stroke-linecap:round;stroke-linejoin:round;}.cls-32{stroke:#0065ff;stroke-width:4.02px;}.cls-33{stroke:#cfd4db;stroke-width:2.13px;}.cls-34{fill:#344563;}.cls-35{fill:#72594b;}.cls-36{fill:#ffab00;}.cls-37{fill:#543e36;}.cls-38{fill:url(#New_Gradient_Swatch_5);}.cls-39{fill:url(#New_Gradient_Swatch_5-2);}.cls-40{fill:url(#linear-gradient-11);}.cls-41{fill:#f1dad5;}.cls-42{fill:#dfe1e5;}.cls-43{fill:#b3bac5;}.cls-44{fill:#42526e;}.cls-45{fill:url(#linear-gradient-12);}.cls-46{fill:#253858;}.cls-47{fill:url(#linear-gradient-13);}.cls-48{fill:#ff991f;}</style><radialGradient id="radial-gradient" cx="231.33" cy="317.71" r="96.52" gradientUnits="userSpaceOnUse"><stop offset="0" stop-color="#fff0b2"/><stop offset="0.16" stop-color="#ffe587" stop-opacity="0.76"/><stop offset="0.32" stop-color="#ffdb5f" stop-opacity="0.53"/><stop offset="0.49" stop-color="#ffd33d" stop-opacity="0.34"/><stop offset="0.64" stop-color="#ffcd22" stop-opacity="0.19"/><stop offset="0.78" stop-color="#ffc810" stop-opacity="0.09"/><stop offset="0.9" stop-color="#ffc504" stop-opacity="0.02"/><stop offset="1" stop-color="#ffc400" stop-opacity="0"/></radialGradient><linearGradient id="linear-gradient" x1="275.35" y1="143.7" x2="275.35" y2="137.13" gradientUnits="userSpaceOnUse"><stop offset="0" stop-color="#ffc400"/><stop offset="1" stop-color="#ff991f"/></linearGradient><linearGradient id="linear-gradient-2" x1="286.42" y1="144.61" x2="286.42" y2="139.34" xlink:href="#linear-gradient"/><linearGradient id="linear-gradient-3" x1="274.37" y1="213.18" x2="274.37" y2="137.13" gradientUnits="userSpaceOnUse"><stop offset="0" stop-color="#ffe380"/><stop offset="1" stop-color="#ffc400"/></linearGradient><linearGradient id="linear-gradient-4" x1="276.49" y1="214.95" x2="276.49" y2="135.63" gradientTransform="matrix(-0.95, 0.3, 0.3, 0.95, 505.77, -76.54)" gradientUnits="userSpaceOnUse"><stop offset="0" stop-color="#b3f5ff"/><stop offset="0.04" stop-color="#ffe380"/><stop offset="1" stop-color="#ffc400"/></linearGradient><linearGradient id="linear-gradient-5" x1="273.01" y1="140.07" x2="273.01" y2="73.87" gradientUnits="userSpaceOnUse"><stop offset="0" stop-color="#ffc400"/><stop offset="1" stop-color="#ffab00"/></linearGradient><linearGradient id="N75" x1="-708.84" y1="6709.65" x2="-589.44" y2="6709.65" gradientTransform="translate(6618.97 2187.22) rotate(99.68)" gradientUnits="userSpaceOnUse"><stop offset="0" stop-color="#e5e8ec"/><stop offset="1" stop-color="#e5e8ec" stop-opacity="0.1"/></linearGradient><linearGradient id="N75-2" x1="-780.64" y1="6353.48" x2="-661.23" y2="6353.48" gradientTransform="translate(6413.84 2187.22) rotate(99.68)" xlink:href="#N75"/><linearGradient id="linear-gradient-6" x1="309.05" y1="443.4" x2="393.51" y2="358.95" gradientUnits="userSpaceOnUse"><stop offset="0" stop-color="#c1c7d0"/><stop offset="1" stop-color="#dfe1e5"/></linearGradient><linearGradient id="New_Gradient_Swatch_12" x1="294.7" y1="429.05" x2="379.15" y2="344.6" gradientUnits="userSpaceOnUse"><stop offset="0" stop-color="#00b8d9"/><stop offset="1" stop-color="#79e2f2"/></linearGradient><linearGradient id="N75-3" x1="-824.49" y1="6866.82" x2="-705.09" y2="6866.82" gradientTransform="translate(6833.37 2187.22) rotate(99.68)" xlink:href="#N75"/><linearGradient id="linear-gradient-7" x1="230.99" y1="307.64" x2="315.44" y2="223.19" xlink:href="#linear-gradient-6"/><linearGradient id="N75-4" x1="-640.5" y1="6569.59" x2="-521.09" y2="6569.59" gradientTransform="translate(6413.84 2187.22) rotate(99.68)" xlink:href="#N75"/><linearGradient id="N75-5" x1="-597.8" y1="6820.03" x2="-478.39" y2="6820.03" gradientTransform="translate(6824.09 2187.22) rotate(99.68)" xlink:href="#N75"/><linearGradient id="N75-6" x1="-557.27" y1="7057.87" x2="-437.87" y2="7057.87" gradientTransform="translate(7221.69 2187.22) rotate(99.68)" xlink:href="#N75"/><linearGradient id="New_Gradient_Swatch_15" x1="429.34" y1="537.44" x2="429.34" y2="446.6" gradientUnits="userSpaceOnUse"><stop offset="0" stop-color="#0065ff"/><stop offset="1" stop-color="#4c9aff"/></linearGradient><linearGradient id="linear-gradient-8" x1="326.37" y1="320.21" x2="371.48" y2="320.21" gradientUnits="userSpaceOnUse"><stop offset="0" stop-color="#fff0b2"/><stop offset="1" stop-color="#ffc400"/></linearGradient><linearGradient id="linear-gradient-9" x1="324.1" y1="302.17" x2="338.02" y2="302.17" xlink:href="#linear-gradient-8"/><linearGradient id="New_Gradient_Swatch_7" x1="103.18" y1="322.47" x2="147.53" y2="322.47" gradientUnits="userSpaceOnUse"><stop offset="0" stop-color="#ffc400"/><stop offset="1" stop-color="#fff0b2"/></linearGradient><linearGradient id="linear-gradient-10" x1="234.19" y1="117.42" x2="234.19" gradientUnits="userSpaceOnUse"><stop offset="0.54" stop-color="#c1c7d0"/><stop offset="0.71" stop-color="#c1c7d0" stop-opacity="0.61"/><stop offset="0.91" stop-color="#c1c7d0" stop-opacity="0.17"/><stop offset="1" stop-color="#c1c7d0" stop-opacity="0"/></linearGradient><linearGradient id="New_Gradient_Swatch_5" x1="361.32" y1="500.83" x2="361.32" y2="447.46" gradientUnits="userSpaceOnUse"><stop offset="0" stop-color="#ff991f"/><stop offset="1" stop-color="#ffc400"/></linearGradient><linearGradient id="New_Gradient_Swatch_5-2" x1="341.8" y1="473.94" x2="379.72" y2="473.94" xlink:href="#New_Gradient_Swatch_5"/><linearGradient id="linear-gradient-11" x1="320.88" y1="390.86" x2="382.38" y2="452.37" xlink:href="#linear-gradient-8"/><linearGradient id="linear-gradient-12" x1="267.08" y1="110.82" x2="267.08" y2="110.82" gradientUnits="userSpaceOnUse"><stop offset="0" stop-color="#ffe380"/><stop offset="1" stop-color="#ffab00"/></linearGradient><linearGradient id="linear-gradient-13" x1="236.99" y1="68.62" x2="258.75" y2="68.62" gradientTransform="matrix(-0.45, -0.89, -0.89, 0.45, 460.85, 274.06)" gradientUnits="userSpaceOnUse"><stop offset="0.55" stop-color="#ff991f"/><stop offset="1" stop-color="#ffc400"/></linearGradient></defs><title>Building Functionality</title><g class="cls-1"><g id="Layer_2" data-name="Layer 2"><g id="Layer_1-2" data-name="Layer 1"><path class="cls-2" d="M273,100.2a2.71,2.71,0,0,0,1.93-.44,2.94,2.94,0,0,0,1-1.75,25.62,25.62,0,0,0,.77-4.28L285.8,95c-.1.65-.22,1.41-.34,2.26-.3,2.06-.35,2.59-.15,3.24a3.78,3.78,0,0,0,1.06,1.62A18.4,18.4,0,0,1,273,100.2Z"/><path class="cls-2" d="M271.08,99.92q4,.39,8.24,1c3.39.49,6.62,1.05,9.69,1.66l-1,4.81-13.45,2-4.82-7.75Z"/><circle class="cls-3" cx="231.33" cy="317.71" r="96.52"/><path class="cls-4" d="M269.43,211.35a5.45,5.45,0,0,1-.49,3.92c-1,1.65-2.72,2.22-4.95,2.93a18.57,18.57,0,0,1-4.38.85l-.32.95h16.18v-7.82Z"/><path class="cls-4" d="M302.11,211.35a5.45,5.45,0,0,0,.49,3.92c1,1.65,2.72,2.22,4.95,2.93a18.57,18.57,0,0,0,4.38.85l.32.95H296.06v-7.82Z"/><path class="cls-5" d="M239.79,75.81l-.9-4.13a5.73,5.73,0,0,0-2.73-3.74l-5-2.86-2,2.38a2.23,2.23,0,0,0,0,2.86l5.06,6.21Z"/><path class="cls-6" d="M279.89,225.25,280,224a28.63,28.63,0,0,0,8.68-9l4.93-.26a14,14,0,0,1,.61,6.28l-1.3.28a1.23,1.23,0,0,0-.9-.45c-.59,0-1,.77-1.12,1-1.15,2-4.7,2.67-6.77,3.09A16.89,16.89,0,0,1,279.89,225.25Z"/><polygon class="cls-7" points="269.36 137.13 269.88 143.7 281.34 140.08 269.36 137.13"/><polygon class="cls-8" points="291.49 139.34 291.49 144.6 281.34 140.08 291.49 139.34"/><path class="cls-9" d="M269.36,137.13a52.43,52.43,0,0,0-1.58,7.64c-.8,6.15-.24,10.45.61,20.3.35,4,.59,8.1,1,12.14a224.77,224.77,0,0,1,0,36h7a133.35,133.35,0,0,0,2.45-27.07c-.05-4.37-.32-8.48-.72-12.32.65-3.17,1.23-6.5,1.71-10a161.37,161.37,0,0,0,1.54-23.73Z"/><polygon class="cls-2" points="291.18 137.94 293.33 137.38 295.19 137.13 293.37 139.9 291.18 137.94"/><path class="cls-10" d="M275.12,137.56c.46.9,1.12,2.24,1.86,3.9,2.57,5.75,3.71,10.06,5.65,17.11.8,2.92,2.17,7.87,4,14.45A125.71,125.71,0,0,0,297,213.54l4.78-1.22-5.63-42.74c-.16-4.36-.27-7.79-.33-9.79-.32-10.69-.32-15-1.94-20.82-.48-1.76-1-3.16-1.29-4Z"/><path class="cls-2" d="M289.53,142.95l1.4-3.36,3.13,6-1,.6a1.17,1.17,0,0,1-1.42-.14l-1.87-1.75A1.17,1.17,0,0,1,289.53,142.95Z"/><path class="cls-2" d="M295.19,137.13a14.46,14.46,0,0,0-4.25,2.46l3.13,6a3,3,0,0,0,.77-.63,3.08,3.08,0,0,0,.68-1.34,8,8,0,0,0,2.33-2.67,7.87,7.87,0,0,0,.8-2.31l-2.09-2.66Z"/><path class="cls-11" d="M253.1,98.28q4.76.25,9.87.73,4.18.4,8.12.92A8.72,8.72,0,0,0,273,103.4c3.44,3.85,9.16,2.86,9.7,2.75a11.91,11.91,0,0,0,6.36-3.56,47.75,47.75,0,0,1,6.83,3.87,49.38,49.38,0,0,1,14.22,15,68,68,0,0,1-11.71,18.59,7.82,7.82,0,0,1-2.66-3.89q1.48-2.89,2.94-5.91,2.1-4.34,4-8.54l-11.24-8.28-2,13.23c.65,1.44,1.3,3,1.92,4.62q.71,1.88,1.28,3.66a26,26,0,0,1-13.92,4,25.46,25.46,0,0,1-9.33-1.85,15.62,15.62,0,0,0-1.42-16.29,17.15,17.15,0,0,1-1.22-7.48,16.42,16.42,0,0,1,.37-2.54c-2.32-.47-4.74-1-7.24-1.69a117.54,117.54,0,0,1-13.32-4.43A129.92,129.92,0,0,1,236,76.17l4-2.3C243.57,80.23,249.48,91.92,253.1,98.28Z"/><rect id="_Rectangle_" data-name="&lt;Rectangle&gt;" class="cls-12" x="78.06" y="355.76" width="78.06" height="90.84"/><path class="cls-13" d="M128.73,419.35c-8.88-16.26-4.13-23.59-14.15-38.39a76.19,76.19,0,0,0-29.81-25.19h-6.7V446.6H156C146.21,440.85,135.92,432.51,128.73,419.35Z"/><rect id="_Rectangle_2" data-name="&lt;Rectangle&gt;" class="cls-14" x="156.12" y="355.76" width="78.06" height="90.84"/><rect id="_Rectangle_3" data-name="&lt;Rectangle&gt;" class="cls-15" x="234.19" y="355.76" width="78.06" height="90.84"/><path class="cls-16" d="M312.25,440.5c-12.61-5.5-31.72-14.28-43.07-35.05-8.88-16.26-4.13-23.59-14.15-38.39a70.35,70.35,0,0,0-9.66-11.29H234.19V446.6h78.06Z"/><rect class="cls-17" x="312.25" y="355.76" width="78.06" height="90.84"/><path class="cls-18" d="M342.58,390.39c0,6.73.28,13.45.63,20.17,4.92-.08,13.48-.11,21.62-.11.05-7,.21-14,.22-21,0-.2,13-.28,25.25-.26V355.76H312.25v34.38C325.68,390.09,342.58,390.16,342.58,390.39Z"/><rect id="_Rectangle_4" data-name="&lt;Rectangle&gt;" class="cls-19" x="156.12" y="220" width="78.06" height="90.84"/><path class="cls-20" d="M234.19,309.71c-12.23-5.66-28-14.65-37.82-32.71-8.88-16.26-4.13-23.59-14.15-38.39A75.19,75.19,0,0,0,163.69,220h-7.57v90.84h78.06Z"/><rect class="cls-21" x="234.19" y="220" width="78.06" height="90.84"/><rect class="cls-12" x="90.39" y="340.13" width="30.04" height="15.63"/><rect class="cls-12" x="141.11" y="340.13" width="30.04" height="15.63"/><rect class="cls-12" x="191.82" y="340.13" width="30.04" height="15.63"/><rect id="_Rectangle_5" data-name="&lt;Rectangle&gt;" class="cls-12" y="446.6" width="78.06" height="90.84"/><path class="cls-22" d="M49.71,510.19c-8.88-16.26-4.13-23.59-14.15-38.39A76.19,76.19,0,0,0,5.75,446.6H0v90.84H77C67.2,531.69,56.9,523.35,49.71,510.19Z"/><rect id="_Rectangle_6" data-name="&lt;Rectangle&gt;" class="cls-14" x="78.06" y="446.6" width="78.06" height="90.84"/><rect class="cls-12" x="12.33" y="430.97" width="30.04" height="15.63"/><rect class="cls-12" x="63.04" y="430.97" width="30.04" height="15.63"/><rect class="cls-12" x="113.76" y="430.97" width="30.04" height="15.63"/><rect class="cls-23" x="246.52" y="340.13" width="30.04" height="15.63"/><rect class="cls-23" x="297.23" y="340.13" width="30.04" height="15.63"/><rect class="cls-23" x="347.94" y="340.13" width="30.04" height="15.63"/><rect id="_Rectangle_7" data-name="&lt;Rectangle&gt;" class="cls-12" x="156.12" y="446.6" width="78.06" height="90.84"/><path class="cls-24" d="M206,510.19c-8.88-16.26-4.13-23.59-14.15-38.39A76.19,76.19,0,0,0,162,446.6h-5.9v90.84h77.14C223.48,531.69,213.18,523.35,206,510.19Z"/><rect id="_Rectangle_8" data-name="&lt;Rectangle&gt;" class="cls-14" x="234.19" y="446.6" width="78.06" height="90.84"/><rect id="_Rectangle_9" data-name="&lt;Rectangle&gt;" class="cls-12" x="312.25" y="446.6" width="78.06" height="90.84"/><path class="cls-25" d="M362.51,510.19c-8.88-16.26-4.13-23.59-14.15-38.39a76.19,76.19,0,0,0-29.81-25.19h-6.29v90.84h77.54C380,531.69,369.7,523.35,362.51,510.19Z"/><rect class="cls-26" x="390.31" y="446.6" width="78.06" height="90.84"/><rect class="cls-12" x="168.45" y="430.97" width="30.04" height="15.63"/><rect class="cls-12" x="219.17" y="430.97" width="30.04" height="15.63"/><rect class="cls-12" x="269.88" y="430.97" width="30.04" height="15.63"/><rect class="cls-12" x="324.58" y="430.97" width="30.04" height="15.63"/><rect class="cls-12" x="375.29" y="430.97" width="30.04" height="15.63"/><rect class="cls-12" x="426.01" y="430.97" width="30.04" height="15.63"/><rect class="cls-19" x="219.17" y="204.37" width="30.04" height="15.63"/><path class="cls-27" d="M350.56,328.76,371.23,316a.53.53,0,0,0-.33-1l-22.27,2.24-.52-5.15a.53.53,0,0,0-.81-.4l-20.67,12.8a.53.53,0,0,0,.33,1l22.27-2.24.52,5.15A.53.53,0,0,0,350.56,328.76Z"/><path class="cls-28" d="M334.41,304.86l3.6-11.58a.23.23,0,0,0-.4-.23l-7.64,8.1-1.88-1.78a.23.23,0,0,0-.39.1l-3.6,11.58a.23.23,0,0,0,.4.23l7.64-8.1L334,305A.23.23,0,0,0,334.41,304.86Z"/><path class="cls-29" d="M127.95,314.16l-24.26,1.54a.53.53,0,0,0-.17,1l20.69,8.52-2,4.78a.53.53,0,0,0,.53.74L147,329.23a.53.53,0,0,0,.17-1l-20.69-8.52,2-4.78A.53.53,0,0,0,127.95,314.16Z"/><line class="cls-30" x1="234.19" y1="117.42" x2="234.19"/><polyline class="cls-31" points="234.19 166.27 156.12 220 156.12 308.56"/><path class="cls-32" d="M225.59,162.93A8.6,8.6,0,1,0,236,154.52a2.24,2.24,0,0,1-1.79-2.19v-7.19"/><circle class="cls-32" cx="234.19" cy="123.8" r="6.38"/><path class="cls-14" d="M235.88,146.1H232.5a4.2,4.2,0,0,1-4.18-3.77l-1.13-10.88a4.2,4.2,0,0,1,4.18-4.64H237a4.2,4.2,0,0,1,4.18,4.64l-1.13,10.88A4.2,4.2,0,0,1,235.88,146.1Z"/><rect class="cls-19" x="168.45" y="204.37" width="30.04" height="15.63"/><polyline class="cls-31" points="312.25 308.56 312.25 220 234.19 166.27"/><rect class="cls-19" x="269.88" y="204.37" width="30.04" height="15.63"/><polyline class="cls-33" points="325.66 384.85 325.66 375.83 315.75 375.83 315.75 369.51 339.7 369.51"/><rect class="cls-34" x="317.73" y="366.76" width="21.88" height="6.06" rx="1.97" ry="1.97"/><path class="cls-35" d="M325.26,389.78a3.65,3.65,0,0,0,3-.61c3-2.26.29-11.06-.66-10.95-.15,0-2.1-.27-2.26-.25a21.82,21.82,0,0,0-2.25,1.22c-.74.68-.67,2.08-.73,3.32a6.36,6.36,0,0,0,.77,3.35Z"/><path class="cls-36" d="M383.89,424.57c.13.41.31,1,.5,1.81.56,2.23.91,4.52,1.21,10.87.25,5.34,0,3.73.19,6.43.2,2.88.49,4.82-.57,7a7.86,7.86,0,0,1-1.2,1.76l-18.48,17.26-4.77-3.2,17.87-19.51-3-22.44,4.3-1.14Z"/><path class="cls-35" d="M377.94,454a18.22,18.22,0,0,0-1.79-4.69,20.29,20.29,0,0,1-2.15.54c-.81.16-1.43.22-1.76.27-1.9.27-5.52.71-15.29,1.45a28.38,28.38,0,0,0-1.84,2.58,30.52,30.52,0,0,0-3.87,9.31c-6.62,27.24-7.1,28.16-7.1,28.16q-1.39,7.85-2.67,15.93c-1.69,10.64-4,30.8-5.25,41a4.21,4.21,0,0,0,1.24,1.83,4.34,4.34,0,0,0,1.95.89c2.51.35,6.89-12.86,6.89-12.86,3.61-10.88,4.6-25.23,4.62-26.73a41.24,41.24,0,0,0-.47-6.81q4.29-8.13,8.57-16.36,3.33-6.4,6.61-12.77-.09,15.31,0,31,.15,19.09.6,37.67a3.08,3.08,0,0,0,1.21.64,3.67,3.67,0,0,0,2.19-.23,6.31,6.31,0,0,0,3-1.79,188.2,188.2,0,0,0,2.95-23.29c.71-11.06-.32-10.27.3-19.21.94-13.58,4.54-32.9,3.59-39.18C379.32,460.26,378.46,456.28,377.94,454Z"/><path class="cls-4" d="M367,398.91c-.73-1.12-1.67-2.82-1.06-3.67s1.82-.22,4.94-.11c4.49.17,5-.6,7.26.13a8.63,8.63,0,0,1,4.52,3.13c2.16,3.07,1.17,6.91.85,8.08a12.85,12.85,0,0,1-5.85,7.45l-2.44,1.56-6.9-11.89Z"/><path class="cls-37" d="M374.87,419.65h-9.32a17.32,17.32,0,0,0,1-10.51l5.69-.27c.07.33.18.82.34,1.4a3.7,3.7,0,0,0,.62,1.58c.65.61,1.88.25,2.25.13Z"/><path class="cls-38" d="M376.9,500.47c0-.18,0-.34,0-.53.37-5.41,1.17-11.71,1.94-17.81,1.15-9.1,2.24-17.69,1.64-21.6-.16-1.09-1-5.15-1.56-7.36a19.16,19.16,0,0,0-.71-2.36,19.51,19.51,0,0,0-1.19-2.6l-.41-.75-.82.26a19.31,19.31,0,0,1-2,.52c-.58.11-1.07.17-1.4.22l-.31,0c-1.79.26-5.31.69-15.22,1.44l-.45,0-.28.36a29.76,29.76,0,0,0-1.9,2.67,31.5,31.5,0,0,0-4,9.62c-5.9,24.3-6.91,27.57-7,28l0,.09,0,.16c-.39,2.2-.77,4.43-1.15,6.67,3,2.43,7.37,3.13,11.72,2.85,2.09-4,4.19-8,6.27-12q2.32-4.45,4.61-8.89c0,6.57,0,13.17,0,19.74A22.23,22.23,0,0,0,376.9,500.47Z"/><path class="cls-39" d="M376.43,467.67a14.35,14.35,0,0,0,3-6.39,19.31,19.31,0,0,0-.52-8.11,22.15,22.15,0,0,0-.71-2.36,19.51,19.51,0,0,0-1.19-2.6l-.41-.75-.82.26a19.31,19.31,0,0,1-2,.52c-.58.11-1.07.17-1.4.22l-.31,0c-1.79.26-5.31.69-15.22,1.44l-.45,0-.28.36a29.77,29.77,0,0,0-1.9,2.67c-3.41,5.4-4.6,12.52-6.26,18.67q-1.87,6.9-3.5,13.87c-.27,1.16-3.39,11.25-2.5,12,3,2.43,7.37,3.13,11.72,2.85,2.09-4,4.19-8,6.27-12,2.53-4.87,4.68-9.46,8.73-13.25C371.28,472.71,374.23,470.44,376.43,467.67Z"/><path class="cls-35" d="M367,398.91,365.63,402l-4,2.45,1,1.7-.34,6.1a15.16,15.16,0,0,0,3.89,2c.54.19.77.18,5.55.35,2,.07,3.08.1,3.54-.46a2.68,2.68,0,0,0,.16-2.53c-.31-.76-.7-.7-1.05-1.44-.56-1.16.13-1.83-.22-2.92s-1.17-.86-2.45-2.2c-1.45-1.51-1.15-2.51-2.59-4.3A8.08,8.08,0,0,0,367,398.91Z"/><path class="cls-40" d="M332.07,419.64a76.81,76.81,0,0,0,23,9.95c0,2.72-.13,5.58-.35,8.58a128.28,128.28,0,0,1-1.92,14.52,39.39,39.39,0,0,0,27.2,2.08A95.77,95.77,0,0,1,382.81,434q.63-2.53,1.35-4.86a6.38,6.38,0,0,0-2.52-7.19l-.05,0s-.39-.26-1-.62c0,0-1.1-.66-2.24-1.23-4.79-2.39-13.54-3.2-13.54-3.2-11.95-1.11-11.54-.9-13.85-1.27A58,58,0,0,1,338.37,412L330,386.61l-6.62,1.72c1.06,5.44,2.42,11.26,4.17,17.37C329,410.67,330.51,415.31,332.07,419.64Z"/><path class="cls-41" d="M374.39,410.2"/><path class="cls-42" d="M373,547.23h-7.21c.1-1.24.17-2.55.19-3.93q0-1.3,0-2.51a19.12,19.12,0,0,1,6.84.07,20,20,0,0,0,.19,6.37Z"/><path class="cls-42" d="M342.15,552.52h-7.21c.06-1.28,1.23-5.18,1.28-6.46l4-.48,3.53-.47c-.32,1.17-.62,2.41-.89,3.72S342.34,551.34,342.15,552.52Z"/><path class="cls-43" d="M371.73,550a3.67,3.67,0,0,0-3.67,3.6h3.76V550Z"/><path class="cls-43" d="M371.46,550a3.67,3.67,0,0,1,3.67,3.6h-3.76V550Z"/><path id="_Path_" data-name="&lt;Path&gt;" class="cls-44" d="M367.33,546.71a0,0,0,0,1,0,0c-.13.06-.51-1.13-1-1.36-1-.46-.09,2.6-2.37,4.58a8.48,8.48,0,0,1-2.84,1.65.89.89,0,0,0-.51.87v.85h13.79a15.7,15.7,0,0,0-1.23-6.63Z"/><path class="cls-43" d="M343.34,555.31a3.67,3.67,0,0,0-3.67,3.6h3.76v-3.59Z"/><path id="_Path_2" data-name="&lt;Path&gt;" class="cls-44" d="M336.43,552a0,0,0,0,1,0,0c-.13.06-.51-1.13-1-1.36-1-.46-2.72,2.6-5.72,4.58a12.51,12.51,0,0,1-3.76,1.65.9.9,0,0,0-.68.87v.85h18.23A15.7,15.7,0,0,0,342.2,552Z"/><path class="cls-4" d="M362.64,406.12a1.5,1.5,0,0,0-.55,1.62,6.07,6.07,0,0,0,2.73.66c0,.31-.08.73-.15,1.24-.18,1.33-.29,1.46-.4,1.52-.42.24-1.3-.26-1.65-1a1.75,1.75,0,0,1-.17-.82,2.77,2.77,0,0,0-.9,1.45,2.64,2.64,0,0,0,.36,2.09,4.59,4.59,0,0,0,2.72,1.64l.38,0c5.19.26,5.54.26,5.86.16,2.93-.88,2.73-9.85,2.72-10.24l-3.25-2a4.27,4.27,0,0,1,.4,3.66c-.11.27-.71,1.79-1.92,2s-1.92-1.14-4.37-1.82A8.62,8.62,0,0,0,362.64,406.12Z"/><path class="cls-5" d="M228.87,65.44l1.37-2.38a2.07,2.07,0,0,1,3.73.33h0a2.07,2.07,0,0,1,.07,1.17l-2.32,8.12-2.46-4.36A2.38,2.38,0,0,1,228.87,65.44Z"/><path class="cls-45" d="M267.08,110.82"/><path class="cls-2" d="M285.41,97.44l-12-3.19q0-1.5.06-3,0-1.14,0-2.27a2.35,2.35,0,0,1-1.05-.59,2.3,2.3,0,0,1-.45-.61l1.83-2.06.56-1.45a14,14,0,0,1,3.22-4.91h0a9,9,0,0,1,7-2.54h0a9,9,0,0,1,6.89,4.28l.29.48a4.74,4.74,0,0,1,.63,1.76h0a9,9,0,0,1-3.8,8.7L287,93.16Z"/><path class="cls-46" d="M292.87,89.09c-1.32,2.65-3.89,3.82-4.19,7a6.63,6.63,0,0,0,.08,1.78c-5.19.91-7.49-.14-8.61-1.39-2.49-2.77.68-6.66-2.18-12.75-.66-1.42-1.62-2.89-1.06-4.42s2.42-2.23,3.25-2.51c3.74-1.29,10.17-.59,12.66,4.23A9.33,9.33,0,0,1,292.87,89.09Z"/><path class="cls-47" d="M289.56,94.66a10.89,10.89,0,0,0-10.7-19Z"/><rect class="cls-48" x="272.07" y="84.36" width="23.47" height="2.07" transform="translate(348.93 374.53) rotate(-119.44)"/></g></g></g></svg>