<svg xmlns="http://www.w3.org/2000/svg" xmlns:xlink="http://www.w3.org/1999/xlink" viewBox="0 0 598.99 445.65"><defs><style>.cls-1{fill:url(#New_Gradient_Swatch_17);}.cls-2{fill:url(#New_Gradient_Swatch_12);}.cls-3{fill:url(#New_Gradient_Swatch_1);}.cls-4{fill:#172b4d;}.cls-5{fill:url(#linear-gradient);}.cls-6{fill:url(#New_Gradient_Swatch_7);}.cls-7{fill:url(#linear-gradient-2);}.cls-8{fill:url(#linear-gradient-3);}.cls-9{fill:url(#New_Gradient_Swatch_5);}.cls-10{fill:url(#New_Gradient_Swatch_8);}.cls-11{fill:url(#linear-gradient-4);}.cls-12{isolation:isolate;}.cls-13{fill:url(#linear-gradient-5);}.cls-14{fill:url(#New_Gradient_Swatch_5-2);}.cls-15{fill:#72594b;}.cls-16{fill:#dfe1e5;}.cls-17{fill:url(#New_Gradient_Swatch_14);}.cls-18{fill:url(#linear-gradient-6);}.cls-19{fill:#253858;}.cls-101,.cls-102,.cls-120,.cls-20,.cls-22,.cls-34,.cls-44{fill:none;}.cls-120,.cls-20,.cls-22,.cls-36{stroke:#b2d4ff;}.cls-101,.cls-102,.cls-20,.cls-22,.cls-34,.cls-36,.cls-44,.cls-60,.cls-61{stroke-linecap:round;}.cls-120,.cls-20{stroke-miterlimit:10;}.cls-20,.cls-34,.cls-44{stroke-width:2.55px;}.cls-21{fill:url(#New_Gradient_Swatch_8-2);}.cls-101,.cls-102,.cls-22,.cls-34,.cls-36,.cls-44,.cls-60,.cls-61{stroke-linejoin:round;}.cls-22,.cls-36,.cls-60{stroke-width:2.39px;}.cls-23,.cls-27,.cls-28,.cls-35,.cls-37{opacity:0.25;}.cls-23{fill:url(#linear-gradient-7);}.cls-24{fill:url(#linear-gradient-8);}.cls-25{fill:url(#linear-gradient-9);}.cls-26{fill:#4c9aff;}.cls-27{fill:url(#linear-gradient-10);}.cls-28{fill:url(#linear-gradient-11);}.cls-29,.cls-36{fill:#b2d4ff;}.cls-107,.cls-108,.cls-30,.cls-38,.cls-39,.cls-42,.cls-53,.cls-54,.cls-59,.cls-78,.cls-84{mix-blend-mode:multiply;}.cls-31{fill:url(#linear-gradient-12);}.cls-32{fill:url(#linear-gradient-13);}.cls-33{fill:#f4f5f7;}.cls-34{stroke:#4c9aff;}.cls-35{fill:url(#linear-gradient-14);}.cls-37{fill:url(#linear-gradient-15);}.cls-38{fill:url(#linear-gradient-16);}.cls-39{fill:url(#linear-gradient-17);}.cls-40{fill:url(#linear-gradient-18);}.cls-41,.cls-58{fill:#e5e8ec;}.cls-42{fill:url(#linear-gradient-19);}.cls-43{opacity:0.63;fill:url(#linear-gradient-20);}.cls-105,.cls-106,.cls-110,.cls-113,.cls-43,.cls-57,.cls-64,.cls-66,.cls-68,.cls-72,.cls-74,.cls-83,.cls-86,.cls-87,.cls-88,.cls-97,.cls-98{mix-blend-mode:screen;}.cls-44,.cls-60,.cls-61{stroke:#0065ff;}.cls-45{fill:url(#linear-gradient-21);}.cls-46{fill:#00875a;}.cls-47{fill:#36b37e;}.cls-48{clip-path:url(#clip-path);}.cls-49,.cls-72{fill:#ffc400;}.cls-50{fill:#ffe380;}.cls-51{fill:#79f2c0;}.cls-52{fill:url(#linear-gradient-23);}.cls-53{fill:url(#linear-gradient-24);}.cls-54{fill:url(#linear-gradient-25);}.cls-55{clip-path:url(#clip-path-2);}.cls-56{fill:url(#New_Gradient_Swatch_5-3);}.cls-105,.cls-106,.cls-110,.cls-113,.cls-57,.cls-59,.cls-64,.cls-66,.cls-68,.cls-72,.cls-74,.cls-80,.cls-83,.cls-84,.cls-86,.cls-87,.cls-88,.cls-97,.cls-98{opacity:0.37;}.cls-57{fill:url(#linear-gradient-26);}.cls-58{mix-blend-mode:soft-light;}.cls-59{fill:url(#linear-gradient-27);}.cls-103,.cls-60,.cls-61,.cls-78{fill:#0065ff;}.cls-61{stroke-width:2.39px;}.cls-62{clip-path:url(#clip-path-3);}.cls-63{fill:url(#linear-gradient-29);}.cls-64{fill:url(#linear-gradient-30);}.cls-65{clip-path:url(#clip-path-4);}.cls-67{fill:url(#linear-gradient-32);}.cls-68{fill:url(#linear-gradient-33);}.cls-69{fill:url(#linear-gradient-34);}.cls-70{fill:url(#linear-gradient-35);}.cls-71{clip-path:url(#clip-path-5);}.cls-73{clip-path:url(#clip-path-6);}.cls-74{fill:url(#linear-gradient-36);}.cls-75{fill:url(#linear-gradient-37);}.cls-76{clip-path:url(#clip-path-7);}.cls-77{fill:#0052cc;}.cls-79{fill:#deebff;}.cls-80{fill:url(#linear-gradient-39);}.cls-81{fill:url(#linear-gradient-40);}.cls-82{clip-path:url(#clip-path-8);}.cls-83{fill:url(#linear-gradient-41);}.cls-84{fill:url(#N300);}.cls-85{clip-path:url(#clip-path-9);}.cls-86{fill:url(#New_Gradient_Swatch_12-4);}.cls-87{fill:url(#New_Gradient_Swatch_12-5);}.cls-114,.cls-88{fill:#57d9a3;}.cls-89{fill:#fff0b2;}.cls-90{fill:#ffab00;}.cls-91{fill:#79e2f2;}.cls-92{fill:#3384ff;}.cls-93{fill:#00c7e5;}.cls-94{fill:#00a3bf;}.cls-95{fill:url(#linear-gradient-42);}.cls-96{clip-path:url(#clip-path-10);}.cls-97{fill:url(#linear-gradient-43);}.cls-98{fill:url(#linear-gradient-44);}.cls-99{fill:#ff5230;}.cls-100{fill:#fff;}.cls-101,.cls-102{stroke:#fff;}.cls-101{stroke-width:2.1px;}.cls-102{stroke-width:1.42px;}.cls-104{fill:#0057d8;}.cls-105{fill:url(#New_Gradient_Swatch_11);}.cls-106{fill:url(#New_Gradient_Swatch_11-2);}.cls-107{fill:url(#linear-gradient-45);}.cls-108{fill:url(#linear-gradient-46);}.cls-109{fill:url(#New_Gradient_Swatch_8-4);}.cls-110{fill:url(#linear-gradient-47);}.cls-111{fill:url(#linear-gradient-48);}.cls-112{fill:url(#New_Gradient_Swatch_5-5);}.cls-113{fill:url(#linear-gradient-49);}.cls-115{fill:#ff8f73;}.cls-116{fill:url(#linear-gradient-50);}.cls-117{fill:#b5917c;}.cls-118{fill:#c1c7d0;}.cls-119{fill:url(#linear-gradient-51);}.cls-120{stroke-width:3px;}.cls-121{clip-path:url(#clip-path-12);}.cls-122{fill:#8993a4;}.cls-123{fill:#9c7761;}.cls-124{clip-path:url(#clip-path-13);}.cls-125{fill:url(#linear-gradient-52);}.cls-126{fill:url(#linear-gradient-53);}.cls-127{fill:url(#linear-gradient-54);}.cls-128{fill:url(#linear-gradient-55);}.cls-129{fill:url(#New_Gradient_Swatch_5-6);}.cls-130{fill:url(#New_Gradient_Swatch_5-7);}.cls-131{fill:#a27f68;}.cls-132{fill:url(#linear-gradient-56);}.cls-133{fill:url(#linear-gradient-57);}.cls-134{fill:#42526e;}.cls-135{fill:url(#New_Gradient_Swatch_5-8);}.cls-136{fill:url(#New_Gradient_Swatch_5-9);}.cls-137{fill:url(#New_Gradient_Swatch_7-3);}</style><linearGradient id="New_Gradient_Swatch_17" x1="221.07" y1="113.77" x2="250.37" y2="113.77" gradientUnits="userSpaceOnUse"><stop offset="0" stop-color="#5243aa"/><stop offset="1" stop-color="#8777d9"/></linearGradient><linearGradient id="New_Gradient_Swatch_12" x1="508.41" y1="344.63" x2="573.03" y2="344.63" gradientUnits="userSpaceOnUse"><stop offset="0" stop-color="#00b8d9"/><stop offset="1" stop-color="#79e2f2"/></linearGradient><linearGradient id="New_Gradient_Swatch_1" x1="483.96" y1="170.16" x2="505.76" y2="170.16" gradientUnits="userSpaceOnUse"><stop offset="0" stop-color="#de350b"/><stop offset="1" stop-color="#ff7452"/></linearGradient><linearGradient id="linear-gradient" x1="95.25" y1="335.84" x2="95.25" y2="86.81" gradientUnits="userSpaceOnUse"><stop offset="0.4" stop-color="#2684ff"/><stop offset="0.46" stop-color="#2d88ff"/><stop offset="0.56" stop-color="#4294ff"/><stop offset="0.68" stop-color="#63a6ff"/><stop offset="0.81" stop-color="#92c0ff"/><stop offset="0.96" stop-color="#cde1ff"/><stop offset="1" stop-color="#deebff"/></linearGradient><linearGradient id="New_Gradient_Swatch_7" x1="56.57" y1="301.85" x2="133.94" y2="301.85" gradientUnits="userSpaceOnUse"><stop offset="0" stop-color="#ffc400"/><stop offset="1" stop-color="#fff0b2"/></linearGradient><linearGradient id="linear-gradient-2" x1="69.59" y1="116.17" x2="120.23" y2="116.17" gradientUnits="userSpaceOnUse"><stop offset="0.11" stop-color="#36b37e"/><stop offset="0.79" stop-color="#79f2c0"/></linearGradient><linearGradient id="linear-gradient-3" x1="70.17" y1="192.42" x2="120.87" y2="192.42" gradientUnits="userSpaceOnUse"><stop offset="0" stop-color="#008da6"/><stop offset="0.09" stop-color="#00a5c0"/><stop offset="0.19" stop-color="#00b8d5"/><stop offset="0.29" stop-color="#00c3e1"/><stop offset="0.38" stop-color="#00c7e5"/><stop offset="0.78" stop-color="#00c7e5"/><stop offset="0.8" stop-color="#00c7e5"/><stop offset="1" stop-color="#79e2f2"/></linearGradient><linearGradient id="New_Gradient_Swatch_5" x1="481.89" y1="74.27" x2="507.12" y2="74.27" gradientUnits="userSpaceOnUse"><stop offset="0" stop-color="#ff991f"/><stop offset="1" stop-color="#ffc400"/></linearGradient><linearGradient id="New_Gradient_Swatch_8" x1="476.3" y1="245.56" x2="512.72" y2="245.56" gradientUnits="userSpaceOnUse"><stop offset="0" stop-color="#00875a"/><stop offset="1" stop-color="#57d9a3"/></linearGradient><linearGradient id="linear-gradient-4" x1="267.06" y1="279.43" x2="339.21" y2="207.28" gradientUnits="userSpaceOnUse"><stop offset="0.59" stop-color="#0065ff"/><stop offset="0.68" stop-color="#0c6dff"/><stop offset="0.85" stop-color="#2c84ff"/><stop offset="1" stop-color="#4c9aff"/></linearGradient><linearGradient id="linear-gradient-5" x1="448.52" y1="414.7" x2="548.38" y2="414.7" gradientUnits="userSpaceOnUse"><stop offset="0" stop-color="#deebff" stop-opacity="0"/><stop offset="1" stop-color="#4c9aff"/></linearGradient><linearGradient id="New_Gradient_Swatch_5-2" x1="473.41" y1="426.17" x2="508" y2="391.59" gradientTransform="matrix(1, 0.05, -1.88, 0.65, 797.24, 124.21)" xlink:href="#New_Gradient_Swatch_5"/><linearGradient id="New_Gradient_Swatch_14" x1="357.67" y1="111.79" x2="379.72" y2="111.79" gradientUnits="userSpaceOnUse"><stop offset="0" stop-color="#0052cc"/><stop offset="1" stop-color="#2684ff"/></linearGradient><linearGradient id="linear-gradient-6" x1="358.69" y1="122.14" x2="358.69" y2="62.11" gradientUnits="userSpaceOnUse"><stop offset="0" stop-color="#c1c7d0"/><stop offset="1" stop-color="#f4f5f7"/></linearGradient><linearGradient id="New_Gradient_Swatch_8-2" x1="526.16" y1="297.77" x2="536.23" y2="287.7" xlink:href="#New_Gradient_Swatch_8"/><linearGradient id="linear-gradient-7" x1="101.68" y1="436.06" x2="386.98" y2="436.06" gradientUnits="userSpaceOnUse"><stop offset="0" stop-color="#0065ff" stop-opacity="0"/><stop offset="0.45" stop-color="#0065ff"/></linearGradient><linearGradient id="linear-gradient-8" x1="275.99" y1="370.14" x2="318.07" y2="412.22" gradientUnits="userSpaceOnUse"><stop offset="0" stop-color="#b2d4ff"/><stop offset="1" stop-color="#2684ff"/></linearGradient><linearGradient id="linear-gradient-9" x1="447.39" y1="230.98" x2="562.7" y2="115.68" gradientUnits="userSpaceOnUse"><stop offset="0.09" stop-color="#2684ff"/><stop offset="1" stop-color="#deebff"/></linearGradient><linearGradient id="linear-gradient-10" x1="447.04" y1="386.57" x2="574.49" y2="386.57" xlink:href="#linear-gradient-7"/><linearGradient id="linear-gradient-11" x1="416.23" y1="400.19" x2="479.95" y2="400.19" xlink:href="#linear-gradient-7"/><linearGradient id="linear-gradient-12" x1="414.33" y1="101.2" x2="440.52" y2="75" gradientUnits="userSpaceOnUse"><stop offset="0" stop-color="#2684ff"/><stop offset="0.02" stop-color="#308aff"/><stop offset="0.16" stop-color="#65a7ff"/><stop offset="0.3" stop-color="#90bfff"/><stop offset="0.43" stop-color="#b2d2ff"/><stop offset="0.55" stop-color="#cae0ff"/><stop offset="0.66" stop-color="#d9e8ff"/><stop offset="0.75" stop-color="#deebff"/></linearGradient><linearGradient id="linear-gradient-13" x1="315.71" y1="150.3" x2="478.21" y2="150.3" gradientUnits="userSpaceOnUse"><stop offset="0" stop-color="#4c9aff"/><stop offset="1" stop-color="#deebff"/></linearGradient><linearGradient id="linear-gradient-14" x1="98.77" y1="356.74" x2="210.95" y2="356.74" xlink:href="#linear-gradient-7"/><linearGradient id="linear-gradient-15" x1="0" y1="388.67" x2="159.23" y2="388.67" xlink:href="#linear-gradient-7"/><linearGradient id="linear-gradient-16" x1="152.79" y1="223.84" x2="205.7" y2="223.84" xlink:href="#linear-gradient-12"/><linearGradient id="linear-gradient-17" x1="166.22" y1="160.44" x2="191.41" y2="160.44" xlink:href="#linear-gradient-12"/><linearGradient id="linear-gradient-18" x1="297.46" y1="345.43" x2="297.46" y2="298.28" gradientUnits="userSpaceOnUse"><stop offset="0" stop-color="#ffe380"/><stop offset="1" stop-color="#ffab00"/></linearGradient><linearGradient id="linear-gradient-19" x1="546.76" y1="389.19" x2="546.76" y2="295.08" gradientUnits="userSpaceOnUse"><stop offset="0" stop-color="#2684ff"/><stop offset="1" stop-color="#deebff"/></linearGradient><linearGradient id="linear-gradient-20" x1="541.5" y1="382.14" x2="541.5" y2="302.15" gradientUnits="userSpaceOnUse"><stop offset="0.57" stop-color="#e5e8ec" stop-opacity="0.1"/><stop offset="1" stop-color="#e5e8ec"/></linearGradient><linearGradient id="linear-gradient-21" x1="21.73" y1="287.66" x2="197.68" y2="111.7" xlink:href="#linear-gradient-19"/><clipPath id="clip-path"><path id="_Clipping_Path_" data-name="&lt;Clipping Path&gt;" class="cls-5" d="M92.8,335.76a38.68,38.68,0,0,1-6.68-76.19l.68-.17a5.7,5.7,0,0,0,4.36-5.54V217.58a5.7,5.7,0,0,0-3.77-5.36,25.55,25.55,0,0,1-16.21-17A25,25,0,0,1,86.8,165l.63-.23a5.64,5.64,0,0,0,3.73-5.3V140.75a5.64,5.64,0,0,0-3.73-5.3l-.1,0a25.46,25.46,0,0,1-16.88-20.79A25,25,0,0,1,89,87.54a25.95,25.95,0,0,1,19.4,2.91,24.86,24.86,0,0,1,11.82,22.88c-.63,10.09-7.59,18.69-17.1,22.11h0a5.64,5.64,0,0,0-3.73,5.3v18.72a5.64,5.64,0,0,0,3.73,5.3l0,0a25.57,25.57,0,0,1,16.55,18.47,25,25,0,0,1-16,28.74l-.59.21a5.7,5.7,0,0,0-3.77,5.36v36.28a5.7,5.7,0,0,0,4.36,5.54l.68.17A38.68,38.68,0,0,1,92.8,335.76Z"/></clipPath><linearGradient id="linear-gradient-23" x1="234.28" y1="187.84" x2="370.7" y2="187.84" xlink:href="#linear-gradient-13"/><linearGradient id="linear-gradient-24" x1="146.78" y1="316.78" x2="210.39" y2="316.78" xlink:href="#linear-gradient-12"/><linearGradient id="linear-gradient-25" x1="146.78" y1="339.67" x2="210.39" y2="339.67" xlink:href="#linear-gradient-12"/><clipPath id="clip-path-2"><path id="_Clipping_Path_2" data-name="&lt;Clipping Path&gt;" class="cls-6" d="M95.25,335.84c-2.17,0-17.76-.09-29-12.7,0,0-9.74-10.91-9.66-26a47,47,0,0,1,1.61-11h0a18.88,18.88,0,0,1,9.08-8.77c4.69-2,5.89,0,12.94-1.08,9.19-1.46,10.16-5.44,16.17-4.74s6.88,4.89,11.43,4.31c5.81-.73,6.68-7.86,11.43-8,4.93-.12,8.84,7.45,10.56,10.78a39,39,0,0,1,4.16,18.52,40.77,40.77,0,0,1-3.31,15.48C125.25,324.59,111.85,335.67,95.25,335.84Z"/></clipPath><linearGradient id="New_Gradient_Swatch_5-3" x1="56.57" y1="301.85" x2="133.94" y2="301.85" xlink:href="#New_Gradient_Swatch_5"/><linearGradient id="linear-gradient-26" x1="78.31" y1="350.16" x2="153.51" y2="274.97" gradientUnits="userSpaceOnUse"><stop offset="0.23" stop-color="#e5e8ec" stop-opacity="0.1"/><stop offset="0.31" stop-color="#e5e8ec" stop-opacity="0.12"/><stop offset="0.38" stop-color="#e5e8ec" stop-opacity="0.17"/><stop offset="0.46" stop-color="#e5e8ec" stop-opacity="0.25"/><stop offset="0.54" stop-color="#e5e8ec" stop-opacity="0.38"/><stop offset="0.61" stop-color="#e5e8ec" stop-opacity="0.53"/><stop offset="0.69" stop-color="#e5e8ec" stop-opacity="0.72"/><stop offset="0.77" stop-color="#e5e8ec" stop-opacity="0.94"/><stop offset="0.78" stop-color="#e5e8ec"/></linearGradient><linearGradient id="linear-gradient-27" x1="-4988.06" y1="-2629.15" x2="-4988.06" y2="-2529.96" gradientTransform="translate(-4785.74 3112.33) rotate(122.51)" gradientUnits="userSpaceOnUse"><stop offset="0" stop-color="#ffd740" stop-opacity="0"/><stop offset="1" stop-color="#ffab00"/></linearGradient><clipPath id="clip-path-3"><path id="_Clipping_Path_3" data-name="&lt;Clipping Path&gt;" class="cls-7" d="M94.57,137.33c9.41.31,16-5.57,17.43-6.89,4.31-4,10.26-12.5,7.55-18.08-1.19-2.44-6.86-4.4-18.16-8.22-5.85-2-6-1.79-8.93-3C83.63,97.44,82.22,94.59,79.08,95c-5.18.74-9.59,9.63-9.48,17.31C69.77,124.53,81.37,136.9,94.57,137.33Z"/></clipPath><linearGradient id="linear-gradient-29" x1="69.59" y1="116.17" x2="120.23" y2="116.17" gradientUnits="userSpaceOnUse"><stop offset="0" stop-color="#cfd4db"/><stop offset="1" stop-color="#cfd4db" stop-opacity="0.1"/></linearGradient><linearGradient id="linear-gradient-30" x1="78.95" y1="154.25" x2="132.5" y2="100.69" xlink:href="#linear-gradient-26"/><clipPath id="clip-path-4"><path id="_Clipping_Path_4" data-name="&lt;Clipping Path&gt;" class="cls-8" d="M95.89,214.11A25.91,25.91,0,0,1,79,207.75c-5-4.47-10.88-13.39-8-18.61,2.68-4.92,10.25-.86,21.64-6.58,10.91-5.48,12.77-12.64,18.19-11.76,6,1,9.94,10.91,10.12,18.34.23,9.54-5.66,16-7.07,17.39A25.74,25.74,0,0,1,95.89,214.11Z"/></clipPath><linearGradient id="linear-gradient-32" x1="70.23" y1="192.42" x2="120.88" y2="192.42" xlink:href="#linear-gradient-26"/><linearGradient id="linear-gradient-33" x1="83.41" y1="230.15" x2="136.97" y2="176.6" xlink:href="#linear-gradient-26"/><linearGradient id="linear-gradient-34" x1="218.77" y1="156.74" x2="254.17" y2="156.74" xlink:href="#linear-gradient-19"/><linearGradient id="linear-gradient-35" x1="482.29" y1="72.53" x2="506.73" y2="72.53" gradientTransform="translate(0)" xlink:href="#linear-gradient"/><clipPath id="clip-path-5"><path id="_Clipping_Path_5" data-name="&lt;Clipping Path&gt;" class="cls-9" d="M494.34,84.81A12.6,12.6,0,0,0,503,81.38c2.15-2,5.11-6.23,3.76-9-.59-1.22-3.42-2.19-9-4.1-2.91-1-3-.89-4.45-1.5-4.4-1.83-5.1-3.25-6.67-3-2.58.37-4.78,4.8-4.72,8.63C482,78.43,487.76,84.6,494.34,84.81Z"/></clipPath><clipPath id="clip-path-6"><path id="_Clipping_Path_6" data-name="&lt;Clipping Path&gt;" class="cls-10" d="M494.51,227.35a18.21,18.21,0,1,0,18.21,18.21A18.23,18.23,0,0,0,494.51,227.35Z"/></clipPath><linearGradient id="linear-gradient-36" x1="488.72" y1="180.4" x2="527.76" y2="141.35" gradientTransform="matrix(1, 0, 0, -1, -3.06, 396.99)" gradientUnits="userSpaceOnUse"><stop offset="0.29" stop-color="#e5e8ec" stop-opacity="0.1"/><stop offset="0.35" stop-color="#e5e8ec" stop-opacity="0.12"/><stop offset="0.42" stop-color="#e5e8ec" stop-opacity="0.17"/><stop offset="0.49" stop-color="#e5e8ec" stop-opacity="0.25"/><stop offset="0.56" stop-color="#e5e8ec" stop-opacity="0.38"/><stop offset="0.63" stop-color="#e5e8ec" stop-opacity="0.53"/><stop offset="0.7" stop-color="#e5e8ec" stop-opacity="0.72"/><stop offset="0.77" stop-color="#e5e8ec" stop-opacity="0.94"/><stop offset="0.78" stop-color="#e5e8ec"/></linearGradient><linearGradient id="linear-gradient-37" x1="302.49" y1="257.49" x2="302.49" y2="118.2" xlink:href="#linear-gradient-12"/><clipPath id="clip-path-7"><path class="cls-11" d="M361.59,249.68l-36.94-57a18.68,18.68,0,0,1-9,5.07c-10,2.11-16.18-6.73-26.24-5.67-3.52.37-8.41,2-13.91,8.11l-32.07,49.45a5.43,5.43,0,0,0,4.55,8.38H357a5.43,5.43,0,0,0,4.55-8.38Z"/></clipPath><linearGradient id="linear-gradient-39" x1="93.24" y1="226.91" x2="198.13" y2="122.03" gradientTransform="matrix(1.09, 0.04, -0.04, 1, 164.22, 47.65)" gradientUnits="userSpaceOnUse"><stop offset="0" stop-color="#2684ff" stop-opacity="0"/><stop offset="1" stop-color="#b2d4ff"/></linearGradient><linearGradient id="linear-gradient-40" x1="216.87" y1="113.77" x2="254.57" y2="113.77" xlink:href="#linear-gradient-19"/><clipPath id="clip-path-8"><path id="_Clipping_Path_7" data-name="&lt;Clipping Path&gt;" class="cls-1" d="M235.72,128.41a14.65,14.65,0,1,1,14.65-14.65A14.66,14.66,0,0,1,235.72,128.41Z"/></clipPath><linearGradient id="linear-gradient-41" x1="225.32" y1="147.81" x2="273.71" y2="99.42" xlink:href="#linear-gradient-26"/><linearGradient id="N300" x1="-6569.38" y1="-195.67" x2="-6520.99" y2="-244.06" gradientTransform="translate(-6309.5 499.52) rotate(174.55)" gradientUnits="userSpaceOnUse"><stop offset="0" stop-color="#6c798f"/><stop offset="1" stop-color="#6c798f" stop-opacity="0.1"/></linearGradient><clipPath id="clip-path-9"><path id="_Clipping_Path_8" data-name="&lt;Clipping Path&gt;" class="cls-2" d="M570.43,383.32a2.61,2.61,0,0,0,2.6-2.6V326.05a23,23,0,0,1-11.55,3.39c-18.08.11-32.71-24-44.18-23.49-1.72.08-8.88,0-8.88,12.41,0,0,0,62.35,0,62.35a2.61,2.61,0,0,0,2.6,2.6Z"/></clipPath><linearGradient id="New_Gradient_Swatch_12-4" x1="492.3" y1="348.09" x2="598.99" y2="348.09" xlink:href="#New_Gradient_Swatch_12"/><linearGradient id="New_Gradient_Swatch_12-5" x1="488.71" y1="383.32" x2="593.78" y2="383.32" xlink:href="#New_Gradient_Swatch_12"/><linearGradient id="linear-gradient-42" x1="483.96" y1="156.06" x2="505.76" y2="156.06" xlink:href="#linear-gradient"/><clipPath id="clip-path-10"><path id="_Clipping_Path_9" data-name="&lt;Clipping Path&gt;" class="cls-3" d="M485.41,147.73a5.43,5.43,0,0,0-1.45,1.09v33.68a5.4,5.4,0,0,0,3.61,5.07,11.35,11.35,0,0,1,7.27,8.36,11.35,11.35,0,0,1,7.31-8.36,5.4,5.4,0,0,0,3.62-5.08V144.4C503.54,152.78,491.78,145.6,485.41,147.73Z"/></clipPath><linearGradient id="linear-gradient-43" x1="-4605.27" y1="898.88" x2="-4518.13" y2="811.74" gradientTransform="matrix(-0.96, 0.27, 0.27, 0.96, -4132.84, 555.8)" gradientUnits="userSpaceOnUse"><stop offset="0.34" stop-color="#e5e8ec"/><stop offset="0.35" stop-color="#e5e8ec" stop-opacity="0.94"/><stop offset="0.41" stop-color="#e5e8ec" stop-opacity="0.72"/><stop offset="0.46" stop-color="#e5e8ec" stop-opacity="0.53"/><stop offset="0.51" stop-color="#e5e8ec" stop-opacity="0.38"/><stop offset="0.56" stop-color="#e5e8ec" stop-opacity="0.25"/><stop offset="0.61" stop-color="#e5e8ec" stop-opacity="0.17"/><stop offset="0.66" stop-color="#e5e8ec" stop-opacity="0.12"/><stop offset="0.71" stop-color="#e5e8ec" stop-opacity="0.1"/></linearGradient><linearGradient id="linear-gradient-44" x1="-4416.1" y1="1449.97" x2="-4328.96" y2="1362.83" gradientTransform="matrix(-0.88, 0.47, 0.47, 0.88, -4027.53, 1001.57)" gradientUnits="userSpaceOnUse"><stop offset="0.45" stop-color="#e5e8ec"/><stop offset="0.46" stop-color="#e5e8ec" stop-opacity="0.94"/><stop offset="0.5" stop-color="#e5e8ec" stop-opacity="0.72"/><stop offset="0.53" stop-color="#e5e8ec" stop-opacity="0.53"/><stop offset="0.57" stop-color="#e5e8ec" stop-opacity="0.38"/><stop offset="0.61" stop-color="#e5e8ec" stop-opacity="0.25"/><stop offset="0.64" stop-color="#e5e8ec" stop-opacity="0.17"/><stop offset="0.68" stop-color="#e5e8ec" stop-opacity="0.12"/><stop offset="0.71" stop-color="#e5e8ec" stop-opacity="0.1"/></linearGradient><linearGradient id="New_Gradient_Swatch_11" x1="492.3" y1="348.09" x2="598.99" y2="348.09" gradientUnits="userSpaceOnUse"><stop offset="0" stop-color="#00a3bf"/><stop offset="1" stop-color="#00c7e5"/></linearGradient><linearGradient id="New_Gradient_Swatch_11-2" x1="488.71" y1="383.32" x2="593.78" y2="383.32" xlink:href="#New_Gradient_Swatch_11"/><linearGradient id="linear-gradient-45" x1="152.79" y1="234.63" x2="205.7" y2="234.63" xlink:href="#linear-gradient-12"/><linearGradient id="linear-gradient-46" x1="166.22" y1="165.14" x2="191.41" y2="165.14" xlink:href="#linear-gradient-12"/><linearGradient id="New_Gradient_Swatch_8-4" x1="222.43" y1="156.74" x2="250.51" y2="156.74" xlink:href="#New_Gradient_Swatch_8"/><linearGradient id="linear-gradient-47" x1="222.43" y1="161.97" x2="250.51" y2="161.97" gradientTransform="matrix(1, 0, 0, 1, 0, 0)" xlink:href="#linear-gradient-36"/><linearGradient id="linear-gradient-48" x1="406.8" y1="188.91" x2="455.22" y2="188.91" xlink:href="#linear-gradient-19"/><linearGradient id="New_Gradient_Swatch_5-5" x1="411.81" y1="188.91" x2="450.21" y2="188.91" xlink:href="#New_Gradient_Swatch_5"/><linearGradient id="linear-gradient-49" x1="411.81" y1="196.07" x2="450.21" y2="196.07" gradientTransform="matrix(1, 0, 0, 1, 0, 0)" xlink:href="#linear-gradient-36"/><linearGradient id="linear-gradient-50" x1="12683.91" y1="388.98" x2="12692.2" y2="388.98" gradientTransform="matrix(0.82, 0.57, -0.57, 0.82, -9968.46, -7233.95)" gradientUnits="userSpaceOnUse"><stop offset="0" stop-color="#b5917c"/><stop offset="1" stop-color="#9c7761"/></linearGradient><linearGradient id="linear-gradient-51" x1="12682.48" y1="387.59" x2="12689.38" y2="387.59" xlink:href="#linear-gradient-50"/><clipPath id="clip-path-12"><path id="_Clipping_Path_11" data-name="&lt;Clipping Path&gt;" class="cls-4" d="M158.63,445.65l-10.42,0,0-6.62,3.39.87a4.43,4.43,0,0,0,1.83,2.78c1.53,1,3.21.22,4.39,1.4A3,3,0,0,1,158.63,445.65Z"/></clipPath><clipPath id="clip-path-13"><path id="_Clipping_Path_12" data-name="&lt;Clipping Path&gt;" class="cls-4" d="M175.38,442.85H164.87v-6.68l3.42.86a4.47,4.47,0,0,0,1.85,2.8c1.55,1,3.24.21,4.43,1.4A3,3,0,0,1,175.38,442.85Z"/></clipPath><linearGradient id="linear-gradient-52" x1="162.62" y1="437.87" x2="162.62" y2="378.16" gradientUnits="userSpaceOnUse"><stop offset="0" stop-color="#57d9a3"/><stop offset="1" stop-color="#00875a"/></linearGradient><linearGradient id="linear-gradient-53" x1="153.43" y1="440.44" x2="153.43" y2="380.02" xlink:href="#linear-gradient-52"/><linearGradient id="linear-gradient-54" x1="149.73" y1="400.94" x2="149.73" y2="351.62" gradientUnits="userSpaceOnUse"><stop offset="0" stop-color="#c1c7d0"/><stop offset="1" stop-color="#fff"/></linearGradient><linearGradient id="linear-gradient-55" x1="151.17" y1="371.72" x2="151.17" y2="353.56" xlink:href="#linear-gradient-54"/><linearGradient id="New_Gradient_Swatch_5-6" x1="470.45" y1="370.64" x2="480.88" y2="370.64" xlink:href="#New_Gradient_Swatch_5"/><linearGradient id="New_Gradient_Swatch_5-7" x1="461.08" y1="370.65" x2="471.51" y2="370.65" gradientTransform="translate(149.47 -131.49) rotate(19.44)" xlink:href="#New_Gradient_Swatch_5"/><linearGradient id="linear-gradient-56" x1="407.04" y1="298.33" x2="445.48" y2="298.33" gradientTransform="translate(72.75 -83.42) rotate(12.21)" gradientUnits="userSpaceOnUse"><stop offset="0.17" stop-color="#dfe1e5"/><stop offset="0.99" stop-color="#fff"/></linearGradient><linearGradient id="linear-gradient-57" x1="444.87" y1="359.31" x2="476.62" y2="327.57" gradientTransform="matrix(1, 0, 0, 1, 0, 0)" xlink:href="#linear-gradient-56"/><linearGradient id="New_Gradient_Swatch_5-8" x1="461.4" y1="419.09" x2="495.99" y2="384.51" gradientTransform="matrix(1, 0, -1.85, 0.74, 781.02, 109.7)" xlink:href="#New_Gradient_Swatch_5"/><linearGradient id="New_Gradient_Swatch_5-9" x1="467.37" y1="422.32" x2="501.95" y2="387.74" gradientTransform="matrix(1, 0, -1.85, 0.74, 781.02, 109.7)" xlink:href="#New_Gradient_Swatch_5"/><linearGradient id="New_Gradient_Swatch_7-3" x1="455.44" y1="415.86" x2="490.02" y2="381.28" gradientTransform="matrix(1, 0, -1.85, 0.74, 781.02, 109.7)" xlink:href="#New_Gradient_Swatch_7"/></defs><title>Laboratory</title><g class="cls-12"><g id="Layer_2" data-name="Layer 2"><g id="Layer_1-2" data-name="Layer 1"><ellipse class="cls-13" cx="498.45" cy="414.7" rx="49.93" ry="4.21"/><path class="cls-14" d="M537.88,417.85l-58-3c-.82,0-.23-.5,1.31-1l13-4.46a15.12,15.12,0,0,1,4.27-.88l58,3c.82,0,.23.5-1.31,1l-13,4.46A15.12,15.12,0,0,1,537.88,417.85Z"/><path class="cls-15" d="M386.37,99.48c-.35-.42-1.28-.14-1.79.17a2.42,2.42,0,0,0-1.11,1.52c-.17.84.31,1.08.34,2.27s-.41,1.84-.2,2,.67-.27,1-.72c.58-.83.19-1.35.68-2.33.39-.79.79-.74,1.07-1.6C386.43,100.49,386.65,99.83,386.37,99.48Z"/><path class="cls-15" d="M383.67,101.74s1.88,2.75,1.79,3.62-.51,1.35-.22,1.57,1-.91,1.19-.92.36.25.62-.05a3.22,3.22,0,0,0,.76-1.08,8.06,8.06,0,0,0-.11-3.36c-.33-.72-.93-2.26-1.68-2.65s-2.19,2.18-2.19,2.18Z"/><path class="cls-15" d="M338.09,64c.06.55-.79,1-1.37,1.16a2.42,2.42,0,0,1-1.87-.26c-.72-.46-.56-1-1.39-1.82s-1.61-1-1.56-1.24.66-.29,1.2-.21c1,.16,1.1.8,2.14,1.13.84.26,1.08,0,1.89.34C337.41,63.23,338,63.53,338.09,64Z"/><path class="cls-15" d="M334.59,64.34s-.67-3.26-1.36-3.81S331.91,60,332,59.6s1.32-.05,1.49-.21.07-.43.47-.41a3.22,3.22,0,0,1,1.3.2,8.06,8.06,0,0,1,2.33,2.42c.29.74,1,2.24.74,3.05s-3.09.05-3.09.05Z"/><path class="cls-15" d="M367.24,66.05c-.15.53.37.92.41,2.13a4.68,4.68,0,0,1-.41,2c3.2,1.23,5.92,1.34,6.62.23a4.05,4.05,0,0,0,.23-2.14,4.63,4.63,0,0,0-.51-2.5C372.29,63.94,367.65,64.64,367.24,66.05Z"/><path class="cls-16" d="M387,99.29l-4.33,1.84q-.66-4.1-1.25-8.35-.37-2.72-.7-5.38l-6.33-11.83L379.8,72a34.68,34.68,0,0,1,5.38,12.1c.55,2.49.9,5.55,1.23,8.5C386.72,95.38,386.91,97.68,387,99.29Z"/><path id="_Clipping_Path_13" data-name="&lt;Clipping Path&gt;" class="cls-17" d="M377.65,90.34a9.46,9.46,0,0,0-.52-1.17,10.64,10.64,0,0,0-.83-1.31c-.29.06-.75.14-1.34.21s-.91.06-1.11.07c-1.21.07-3.55.17-10,.21a12.2,12.2,0,0,0-1.08,1.32,11.85,11.85,0,0,0-2,4.85c-2.55,13.93-2.67,19.2-2.67,19.2s-.32,9.71-.4,20.25a2.8,2.8,0,0,0,.63.94,3.13,3.13,0,0,0,2.22.81,3.57,3.57,0,0,0,2.1-.72,25.85,25.85,0,0,0,2.36-5.78,23.73,23.73,0,0,0,.84-6,23.45,23.45,0,0,0-.66-5.74,49.55,49.55,0,0,1,6.57-13.31q.35,8,.92,16.22.42,6,.93,11.82a4.47,4.47,0,0,0,4.93.13A31.44,31.44,0,0,0,379,122a31,31,0,0,0-1.08-5.17c.39-1.62.75-3.38,1-5.27.27-1.68.45-3.28.58-4.78,0,0,.69-8-.6-12.72C378.66,93.06,377.94,91.13,377.65,90.34Z"/><path class="cls-4" d="M357.68,132.91a6.81,6.81,0,0,0,3,1.28,7.92,7.92,0,0,0,2.68,0c-.39,2.11-.8,3.81-1.1,5A23.92,23.92,0,0,0,361,146c0,.56,0,1,.06,1.31l-2.88.24-.52-.4-.73.48-7.31.64c-.46,0-.81-.3-.7-.67h0l2.85-1c3-1.05,5-3.4,5.17-6,.13-1.76.28-3.7.44-5.09Q357.51,134.17,357.68,132.91Z"/><path id="_Clipping_Path_14" data-name="&lt;Clipping Path&gt;" class="cls-18" d="M379.8,72a22.16,22.16,0,0,0-3.42-1.71,18.74,18.74,0,0,0-1.86-.64c-3.87-1.09-13.11-.45-16.8-.25-1.66.09-4.19.19-7.33.14q-3.25-1.76-6.65-3.77-3.12-1.85-6-3.7l-2.65,3.17a47.09,47.09,0,0,0,14.15,10.37A42.81,42.81,0,0,0,362,77.58a8.17,8.17,0,0,0-.51,2.22,8.51,8.51,0,0,0,.88,4.49q-1.13,4.52-2.26,9Q357,106,353.94,118.51a30.7,30.7,0,0,0,28.33.34c-1.34-12.33-2.49-21.49-3.65-28a36.94,36.94,0,0,1-.39-12.38A34.94,34.94,0,0,1,379.8,72Z"/><path class="cls-15" d="M368.84,57.39a14.37,14.37,0,0,0-2.35,3.68c-.06.17-.08.25-.42.43s-.8.26-.71.51.59.59.65.81l-.41,2.95a.75.75,0,0,0,.47.81l.87.34,4.81,1.88c-.06-.19-1.82-5-1.8-5.27s.07-.85-.25-1-.83-2.95-1-3.32a1.41,1.41,0,0,1,0-1C368.78,57.71,368.84,57.39,368.84,57.39Z"/><path class="cls-19" d="M376.86,66.49a4.82,4.82,0,0,1-3.55,1.75c-2-.07-3.85-1.71-3.91-3.14a10.31,10.31,0,0,0,.15-2.21c-.07-.54-.27-1.32-.57-1.34s-.52.76-.72.72-.19-.9-.19-1.39c0-2.17-.45-2.28-.27-3.14a4.35,4.35,0,0,1,2.37-2.63,5.67,5.67,0,0,1,4.89.36,7.4,7.4,0,0,1,3.5,7.62A6.48,6.48,0,0,1,376.86,66.49Z"/><path class="cls-19" d="M381.16,61.66A3.62,3.62,0,0,1,378.49,63c-1.49-.05-2.89-1.28-2.94-2.36a7.74,7.74,0,0,0,.12-1.66c-.06-.41-.2-1-.43-1s-.39.57-.54.54-.14-.68-.14-1c0-1.63-.34-1.72-.21-2.36a3.27,3.27,0,0,1,1.78-2,4.26,4.26,0,0,1,3.68.27,5.56,5.56,0,0,1,2.63,5.73A4.87,4.87,0,0,1,381.16,61.66Z"/><path class="cls-16" d="M358.69,107.89h6.83a0,0,0,0,1,0,0v4a3.42,3.42,0,0,1-3.42,3.42h0a3.42,3.42,0,0,1-3.42-3.42v-4A0,0,0,0,1,358.69,107.89Z" transform="translate(27.41 -66.04) rotate(10.83)"/><path class="cls-4" d="M373.44,132.2a27.48,27.48,0,0,1,.37,3.69c.09,2.82-.32,3.6-.73,4.05a4.11,4.11,0,0,1-1,.75,4.23,4.23,0,0,1-1.91.54v.46c.39.21.95.5,1.63.8s.61.23,1.78.7a6.72,6.72,0,0,0,1.94.66,3.56,3.56,0,0,0,1.29-.13l1.88-11.53Z"/><line class="cls-20" x1="235.72" y1="128.41" x2="235.72" y2="183.86"/><path class="cls-21" d="M537.06,294.51a5.87,5.87,0,0,1-11.73,0c0-3.24,5.87-11.85,5.87-11.85S537.06,291.27,537.06,294.51Z"/><path class="cls-22" d="M346.23,319.11c0-11.24,9.11-34.52,20.35-34.52s20.36,23.28,20.36,34.52"/><rect class="cls-23" x="101.68" y="428.26" width="285.3" height="15.6"/><rect class="cls-24" x="292.03" y="354.1" width="9.99" height="74.16"/><line class="cls-20" x1="283.48" y1="184.55" x2="490.45" y2="184.55"/><path class="cls-25" d="M506.59,265.15a23,23,0,0,0-6.17-41.83v-9.15H496.9V203.7h3.46v-5.48a5.56,5.56,0,0,1,5.56-5.56h0a5.56,5.56,0,0,0,5.56-5.56V125a5.56,5.56,0,0,0-5.56-5.56h0a5.56,5.56,0,0,1-5.56-5.56v-5.48H496.9V90.05a17.7,17.7,0,1,0-4.79,0v18.37h-2.79v5.48a5.56,5.56,0,0,1-5.56,5.56,5.56,5.56,0,0,0-5.56,5.56V187.1a5.56,5.56,0,0,0,5.56,5.56,5.56,5.56,0,0,1,5.56,5.56v5.48h2.79v10.46h-3.41v9.12a23,23,0,0,0,0,44.55h0l42.45,15.76,1.49-3.68Z"/><path class="cls-26" d="M215.31,404.49h.2a2.54,2.54,0,0,1,2.54,2.54V465.1a0,0,0,0,1,0,0h-5.28a0,0,0,0,1,0,0V407A2.54,2.54,0,0,1,215.31,404.49Z" transform="translate(-219.38 650.2) rotate(-90)"/><ellipse class="cls-27" cx="510.77" cy="386.57" rx="63.73" ry="8.42"/><ellipse class="cls-28" cx="448.09" cy="400.19" rx="31.86" ry="4.21"/><path class="cls-20" d="M425.06,184.42c0-3.77,11.9-3.77,11.9-7.55s-11.9-3.77-11.9-7.55,11.9-3.77,11.9-7.55-11.9-3.77-11.9-7.55,11.9-3.77,11.9-7.55-11.9-3.77-11.9-7.55,11.9-3.77,11.9-7.55-11.9-3.77-11.9-7.55a2.28,2.28,0,0,1,1.18-1.83,5.91,5.91,0,0,0,2.63-4.83v-5.65"/><path class="cls-20" d="M425.06,184.91c0,3.77,11.9,3.77,11.9,7.55s-11.9,3.77-11.9,7.55,11.9,3.77,11.9,7.55-11.9,3.77-11.9,7.55,11.9,3.77,11.9,7.55-11.9,3.77-11.9,7.55S437,234,437,237.74s-11.9,3.77-11.9,7.55a2.28,2.28,0,0,0,1.18,1.83,5.91,5.91,0,0,1,2.63,4.83v5.65"/><path class="cls-29" d="M402.6,64.7l20.63,31.81v19.43h10.43V96.52L454.3,64.7a5.34,5.34,0,0,0-4.48-8.25H407.08A5.34,5.34,0,0,0,402.6,64.7Z"/><path class="cls-29" d="M426.16,113V96.52a2.92,2.92,0,0,0-.47-1.59L405.05,63.12a2.42,2.42,0,0,1,2-3.74h42.73a2.42,2.42,0,0,1,2,3.74L431.22,94.93a2.92,2.92,0,0,0-.47,1.59V113Z"/><rect class="cls-29" x="427.17" y="108.72" width="2.57" height="13.64" rx="1.28" ry="1.28" transform="matrix(0, -1, 1, 0, 312.91, 543.99)"/><g class="cls-30"><path id="_Clipping_Path_15" data-name="&lt;Clipping Path&gt;" class="cls-31" d="M438.4,77.68c-8-.23-18-5.46-25.83-3l13.12,20.22a2.92,2.92,0,0,1,.47,1.59V113h4.59V96.52a2.92,2.92,0,0,1,.47-1.59l11.5-17.73A14.51,14.51,0,0,1,438.4,77.68Z"/></g><rect class="cls-32" x="315.71" y="141.77" width="162.49" height="17.05"/><circle class="cls-33" cx="452.2" cy="137.62" r="2.01" transform="translate(-17.92 88.51) rotate(-10.96)"/><line class="cls-20" x1="179.25" y1="184.55" x2="283.48" y2="184.55"/><line class="cls-34" x1="262.42" y1="267.54" x2="262.42" y2="442.36"/><ellipse class="cls-35" cx="154.86" cy="356.74" rx="56.09" ry="6.09"/><rect class="cls-36" x="346.12" y="267.54" width="40.86" height="17.05"/><ellipse class="cls-37" cx="79.62" cy="388.67" rx="79.62" ry="10.52"/><rect class="cls-29" x="136.8" y="217.09" width="84.03" height="4.79" transform="translate(398.3 40.67) rotate(90)"/><circle class="cls-29" cx="179.25" cy="223.84" r="31.56"/><path class="cls-38" d="M179.24,250.3a26.46,26.46,0,1,1,26.46-26.46A26.49,26.49,0,0,1,179.24,250.3Z"/><circle class="cls-29" cx="178.82" cy="160.44" r="17.7"/><path class="cls-39" d="M178.82,173a12.6,12.6,0,1,1,12.6-12.6A12.61,12.61,0,0,1,178.82,173Z"/><path class="cls-40" d="M311.87,334.94c-2,4.83-7.3,10.59-14.84,10.49a15.82,15.82,0,0,1-14.67-11.59,16.2,16.2,0,0,1,5.28-16.62c.08,3.21,2.34,5.6,4.72,5.74,2.79.16,5.05-2.65,5.14-4.9.11-2.85-3.34-3.23-4.55-7.43-1.16-4,.8-7.87,1.15-8.55a13,13,0,0,1,2.93-3.79,16.06,16.06,0,0,0,1.61,7.65c2.32,4.61,5.77,5.21,9,8.55C312.1,319.14,314.86,327.76,311.87,334.94Z"/><path class="cls-41" d="M368.48,245.21,315.8,164V119.2h.11a4.89,4.89,0,0,0,0-9.78H289.07a4.89,4.89,0,1,0,0,9.78h.11V164L236.5,245.21a13.64,13.64,0,0,0,11.44,21.06H357A13.64,13.64,0,0,0,368.48,245.21Z"/><path class="cls-42" d="M588.87,295.08a2.11,2.11,0,1,1,0,4.23h0a10,10,0,0,0-10,10v71.45a8.48,8.48,0,0,1-8.48,8.48H511a8.48,8.48,0,0,1-8.48-8.48v-84.4a1.09,1.09,0,0,1,1.09-1.09Z"/><path class="cls-43" d="M511,382.14a1.43,1.43,0,0,1-1.43-1.43V302.26l63.83-.11a16.91,16.91,0,0,0-1.56,7.11v71.45a1.43,1.43,0,0,1-1.43,1.43Z"/><path class="cls-20" d="M114.56,104.54c5.85,0,5.85,18.46,11.71,18.46s5.85-18.46,11.71-18.46S143.83,123,149.68,123s5.85-18.46,11.71-18.46S167.24,123,173.1,123s5.86-18.46,11.71-18.46S190.67,123,196.52,123s5.86-18.46,11.72-18.46c1.32,0,2.35.94,3.21,2.4a13.61,13.61,0,0,0,11.67,6.83h4.65"/><line class="cls-44" x1="95.25" y1="301.83" x2="95.25" y2="378.1"/><path class="cls-45" d="M110,254.35v-9.7h-4.08V218.21a31.57,31.57,0,0,0,0-59.41V141.42a31.57,31.57,0,0,0,5.88-56.57l35.74-20.26-2-5L87.29,81.16h0a31.57,31.57,0,0,0-2.73,60.26V158.8a31.57,31.57,0,0,0,0,59.41v26.45H81.13v9.48a45.28,45.28,0,1,0,28.89.22Z"/><circle class="cls-46" cx="166.68" cy="48.12" r="6.18"/><circle class="cls-47" cx="150.18" cy="26.27" r="9.15"/><path id="_Clipping_Path_16" data-name="&lt;Clipping Path&gt;" class="cls-5" d="M92.8,335.76a38.68,38.68,0,0,1-6.68-76.19l.68-.17a5.7,5.7,0,0,0,4.36-5.54V217.58a5.7,5.7,0,0,0-3.77-5.36,25.55,25.55,0,0,1-16.21-17A25,25,0,0,1,86.8,165l.63-.23a5.64,5.64,0,0,0,3.73-5.3V140.75a5.64,5.64,0,0,0-3.73-5.3l-.1,0a25.46,25.46,0,0,1-16.88-20.79A25,25,0,0,1,89,87.54a25.95,25.95,0,0,1,19.4,2.91,24.86,24.86,0,0,1,11.82,22.88c-.63,10.09-7.59,18.69-17.1,22.11h0a5.64,5.64,0,0,0-3.73,5.3v18.72a5.64,5.64,0,0,0,3.73,5.3l0,0a25.57,25.57,0,0,1,16.55,18.47,25,25,0,0,1-16,28.74l-.59.21a5.7,5.7,0,0,0-3.77,5.36v36.28a5.7,5.7,0,0,0,4.36,5.54l.68.17A38.68,38.68,0,0,1,92.8,335.76Z"/><g class="cls-48"><circle class="cls-49" cx="96.92" cy="244.24" r="2.24"/><circle class="cls-50" cx="94.12" cy="252.93" r="2.24"/><circle class="cls-49" cx="83.99" cy="269.15" r="2.24"/></g><circle class="cls-51" cx="168.14" cy="31.36" r="4.06"/><circle class="cls-46" cx="159.17" cy="6.01" r="6.01"/><circle class="cls-51" cx="150.78" cy="46" r="4.06"/><circle class="cls-47" cx="155.11" cy="59.26" r="4.06"/><path class="cls-52" d="M368.48,245.21,315.8,164V119.2h.11a4.89,4.89,0,0,0,0-9.78H289.07a4.89,4.89,0,1,0,0,9.78h.11V164L236.5,245.21a13.64,13.64,0,0,0,11.44,21.06H357A13.64,13.64,0,0,0,368.48,245.21Z"/><path class="cls-29" d="M214.29,347.81l-28.5-43.94V279.63h.06a2.64,2.64,0,1,0,0-5.29H171.32a2.64,2.64,0,0,0,0,5.29h.06v24.24l-28.5,43.94a7.38,7.38,0,0,0,6.19,11.39h59A7.38,7.38,0,0,0,214.29,347.81Z"/><path class="cls-53" d="M149.07,354.1a2.27,2.27,0,0,1-1.91-3.51l29.33-45.21V279.45h4.2v25.93L210,350.59a2.27,2.27,0,0,1-1.91,3.51Z"/><path class="cls-54" d="M197.76,331.86a12.27,12.27,0,0,0-5.4-1.36c-3.36,0-4.42,1.49-6.8,1.91-6,1-9-6.89-15.55-7.17-2.22-.09-5.46.67-9.54,4.85l-13.3,20.51a2.27,2.27,0,0,0,1.91,3.51h59a2.27,2.27,0,0,0,1.91-3.51Z"/><path id="_Clipping_Path_17" data-name="&lt;Clipping Path&gt;" class="cls-6" d="M95.25,335.84c-2.17,0-17.76-.09-29-12.7,0,0-9.74-10.91-9.66-26a47,47,0,0,1,1.61-11h0a18.88,18.88,0,0,1,9.08-8.77c4.69-2,5.89,0,12.94-1.08,9.19-1.46,10.16-5.44,16.17-4.74s6.88,4.89,11.43,4.31c5.81-.73,6.68-7.86,11.43-8,4.93-.12,8.84,7.45,10.56,10.78a39,39,0,0,1,4.16,18.52,40.77,40.77,0,0,1-3.31,15.48C125.25,324.59,111.85,335.67,95.25,335.84Z"/><g class="cls-55"><g id="_Group_" data-name="&lt;Group&gt;"><path class="cls-56" d="M95.25,335.84c-2.17,0-17.76-.09-29-12.7,0,0-9.74-10.91-9.66-26a47,47,0,0,1,1.61-11h0a18.88,18.88,0,0,1,9.08-8.77c4.69-2,5.89,0,12.94-1.08,9.19-1.46,10.16-5.44,16.17-4.74s6.88,4.89,11.43,4.31c5.81-.73,6.68-7.86,11.43-8,4.93-.12,8.84,7.45,10.56,10.78a39,39,0,0,1,4.16,18.52,40.77,40.77,0,0,1-3.31,15.48C125.25,324.59,111.85,335.67,95.25,335.84Z"/></g><path class="cls-57" d="M63.53,325.17c-.25-7.76,3.09-16.13,9-21.21,13.35-11.54,30.34,2.1,41.89-7.34,13.53-11.05,1.74-39.17,10.68-42.84,6.43-2.64,18.22,9.59,24.19,20,8,14,12.36,36.55,1.19,54.66C132.36,357.78,84.3,358,70.1,341.9A27.64,27.64,0,0,1,63.53,325.17Z"/><circle class="cls-58" cx="80.13" cy="284.51" r="5.48"/><path class="cls-59" d="M77.08,241.22c6.68,4,11.94,11.27,13.07,19,2.56,17.46-18.07,24.45-16.33,39.27,2,17.35,32.09,22.52,30.39,32-1.23,6.85-17.88,10.21-29.88,9.64-16.1-.76-37.47-9.22-46.73-28.37-15-31,10.63-71.66,31.85-75A27.64,27.64,0,0,1,77.08,241.22Z"/><circle class="cls-58" cx="96.69" cy="258.47" r="2.98"/><circle class="cls-58" cx="97.92" cy="287.88" r="2.98"/><circle class="cls-58" cx="79.26" cy="324.56" r="2.98"/></g><rect class="cls-60" x="221.6" y="267.54" width="124.52" height="17.05"/><rect class="cls-61" x="221.22" y="425.59" width="124.9" height="17.05"/><rect class="cls-36" x="345.77" y="425.59" width="41.17" height="17.05"/><polyline class="cls-44" points="221.18 442.08 221.96 267.33 346.51 267.54 346.47 280.42 345.73 442.64"/><path id="_Clipping_Path_18" data-name="&lt;Clipping Path&gt;" class="cls-7" d="M94.57,137.33c9.41.31,16-5.57,17.43-6.89,4.31-4,10.26-12.5,7.55-18.08-1.19-2.44-6.86-4.4-18.16-8.22-5.85-2-6-1.79-8.93-3C83.63,97.44,82.22,94.59,79.08,95c-5.18.74-9.59,9.63-9.48,17.31C69.77,124.53,81.37,136.9,94.57,137.33Z"/><g class="cls-62"><g id="_Group_2" data-name="&lt;Group&gt;" class="cls-30"><path class="cls-63" d="M94.57,137.33c9.41.31,16-5.57,17.43-6.89,4.31-4,10.26-12.5,7.55-18.08-1.19-2.44-6.86-4.4-18.16-8.22-5.85-2-6-1.79-8.93-3C83.63,97.44,82.22,94.59,79.08,95c-5.18.74-9.59,9.63-9.48,17.31C69.77,124.53,81.37,136.9,94.57,137.33Z"/></g><path class="cls-64" d="M68.42,136.45a19.72,19.72,0,0,1,6.38-15.1c9.51-8.22,21.61,1.49,29.83-5.23,9.64-7.87,1.24-27.89,7.61-30.51,4.58-1.88,13,6.83,17.23,14.25,5.71,10,8.8,26,.85,38.93-12.88,20.89-47.11,21-57.22,9.57A19.69,19.69,0,0,1,68.42,136.45Z"/></g><path id="_Clipping_Path_19" data-name="&lt;Clipping Path&gt;" class="cls-8" d="M95.89,214.11A25.91,25.91,0,0,1,79,207.75c-5-4.47-10.88-13.39-8-18.61,2.68-4.92,10.25-.86,21.64-6.58,10.91-5.48,12.77-12.64,18.19-11.76,6,1,9.94,10.91,10.12,18.34.23,9.54-5.66,16-7.07,17.39A25.74,25.74,0,0,1,95.89,214.11Z"/><g class="cls-65"><g id="_Group_3" data-name="&lt;Group&gt;" class="cls-66"><path class="cls-67" d="M95.89,214.11a26.37,26.37,0,0,1-21.56-11.86c-1.63-2.49-5.71-8.72-3.42-13.11,2.63-5,10.63-1.05,21.64-6.58s12.77-12.64,18.19-11.76c6.07,1,9.85,11,10.12,18.34a24.8,24.8,0,0,1-6,16.76C107.79,213.93,98,214.13,95.89,214.11Z"/></g><path class="cls-68" d="M72.89,212.35a19.72,19.72,0,0,1,6.38-15.1c9.51-8.22,21.61,1.49,29.83-5.23,9.64-7.87,1.24-27.89,7.61-30.51,4.58-1.88,13,6.83,17.23,14.25,5.71,10,8.8,26,.85,38.93-12.88,20.89-47.11,21-57.22,9.57A19.69,19.69,0,0,1,72.89,212.35Z"/></g><circle class="cls-69" cx="236.47" cy="156.74" r="17.7"/><path class="cls-70" d="M494.51,84.75a12.22,12.22,0,1,1,12.22-12.22A12.23,12.23,0,0,1,494.51,84.75Z"/><path id="_Clipping_Path_20" data-name="&lt;Clipping Path&gt;" class="cls-9" d="M494.34,84.81A12.6,12.6,0,0,0,503,81.38c2.15-2,5.11-6.23,3.76-9-.59-1.22-3.42-2.19-9-4.1-2.91-1-3-.89-4.45-1.5-4.4-1.83-5.1-3.25-6.67-3-2.58.37-4.78,4.8-4.72,8.63C482,78.43,487.76,84.6,494.34,84.81Z"/><g class="cls-71"><path class="cls-72" d="M476.3,71.73a9.83,9.83,0,0,1,6.79-4.55c6.21-.83,8.6,6.53,13.86,6,6.17-.65,8.14-11.29,11.51-10.64,2.42.47,3.54,6.39,3.29,10.65-.34,5.71-3.44,13.25-10.28,16.46C490.39,94.8,476.08,85.52,475,78A9.81,9.81,0,0,1,476.3,71.73Z"/></g><path id="_Clipping_Path_21" data-name="&lt;Clipping Path&gt;" class="cls-10" d="M494.51,227.35a18.21,18.21,0,1,0,18.21,18.21A18.23,18.23,0,0,0,494.51,227.35Z"/><g class="cls-73"><path class="cls-74" d="M478,229.57a14.38,14.38,0,0,0,4.65,11c6.93,6,15.75-1.09,21.75,3.81,7,5.74.9,20.34,5.55,22.24,3.34,1.37,9.46-5,12.56-10.39,4.16-7.26,6.42-19,.62-28.38-9.39-15.23-34.34-15.34-41.72-7A14.35,14.35,0,0,0,478,229.57Z"/></g><path class="cls-75" d="M247.94,257.49a4.86,4.86,0,0,1-4.07-7.5l52.68-81.22A8.78,8.78,0,0,0,298,164V119.2a8.9,8.9,0,0,0-.06-1h9.18a8.9,8.9,0,0,0-.06,1V164a8.78,8.78,0,0,0,1.41,4.78L361.12,250a4.86,4.86,0,0,1-4.07,7.5Z"/><path class="cls-11" d="M361.59,249.68l-36.94-57a18.68,18.68,0,0,1-9,5.07c-10,2.11-16.18-6.73-26.24-5.67-3.52.37-8.41,2-13.91,8.11l-32.07,49.45a5.43,5.43,0,0,0,4.55,8.38H357a5.43,5.43,0,0,0,4.55-8.38Z"/><g class="cls-76"><circle class="cls-77" cx="331.63" cy="230.43" r="6.82"/><circle class="cls-26" cx="290.25" cy="207.63" r="4.4"/><circle class="cls-78" cx="265.97" cy="242.6" r="4.4"/><circle class="cls-79" cx="314.64" cy="243.88" r="4.4"/><path class="cls-80" d="M236.66,242.41a37.12,37.12,0,0,1,14.7-29.07c20.9-15.36,46.1,4.58,64.16-7.95,21.16-14.67,4.6-54.5,18.4-59.14,9.93-3.34,27.27,14.35,35.85,29.21,11.51,19.93,17,51.62-.9,76.26-29,39.9-102.22,37.6-123,14.36A36.9,36.9,0,0,1,236.66,242.41Z"/></g><circle class="cls-81" cx="235.72" cy="113.77" r="18.85"/><path id="_Clipping_Path_22" data-name="&lt;Clipping Path&gt;" class="cls-1" d="M235.72,128.41a14.65,14.65,0,1,1,14.65-14.65A14.66,14.66,0,0,1,235.72,128.41Z"/><g class="cls-82"><path class="cls-83" d="M215.81,131.73a17.82,17.82,0,0,1,5.77-13.65c8.59-7.43,19.52,1.35,27-4.72,8.71-7.11,1.12-25.21,6.87-27.57,4.14-1.7,11.72,6.17,15.57,12.88,5.16,9,8,23.52.77,35.17-11.64,18.87-42.57,19-51.71,8.65A17.79,17.79,0,0,1,215.81,131.73Z"/><path class="cls-84" d="M259.8,85.94a17.82,17.82,0,0,1-4.45,14.13c-7.85,8.21-19.56.51-26.39,7.26-8,7.91,1.28,25.2-4.23,28.1-4,2.09-12.26-5-16.72-11.34-6-8.47-10.15-22.66-4.1-34.94,9.8-19.89,40.57-23,50.65-13.52A17.79,17.79,0,0,1,259.8,85.94Z"/></g><path class="cls-44" d="M221.6,322.27a37.68,37.68,0,0,1,37.68-37.68"/><path class="cls-44" d="M346.12,322.27a37.68,37.68,0,0,0-37.68-37.68"/><path id="_Clipping_Path_23" data-name="&lt;Clipping Path&gt;" class="cls-2" d="M570.43,383.32a2.61,2.61,0,0,0,2.6-2.6V326.05a23,23,0,0,1-11.55,3.39c-18.08.11-32.71-24-44.18-23.49-1.72.08-8.88,0-8.88,12.41,0,0,0,62.35,0,62.35a2.61,2.61,0,0,0,2.6,2.6Z"/><g class="cls-85"><path class="cls-86" d="M492.92,361.66c-4-19.76,12.59-53.95,15.49-45.38,2.65,7.83,6,20.35,25.09,25.32C548,345.36,568,338,573,326.05c2.85-6.78.32-13.77,6-18.79,2.43-2.15,6.8-4.32,10.06-3.24,9.87,3.27,15.55,38.29,1.34,61.33-20.29,32.91-74.22,33.16-90.15,15.08C495.59,375.09,494.33,368.62,492.92,361.66Z"/><path class="cls-87" d="M588.46,362.4c-4.64-6.22-12.48-10.68-20.23-11-17.63-.69-22.4,20.57-37.31,20.4-17.47-.19-25.8-29.52-35.08-26.82-6.68,1.95-8.26,18.86-6.42,30.73,2.46,15.93,13.15,36.28,33.17,43.46C555,430.83,592.72,401,593.76,379.57A27.64,27.64,0,0,0,588.46,362.4Z"/></g><circle class="cls-47" cx="98.48" cy="129.19" r="3.99"/><circle class="cls-88" cx="91.96" cy="110.28" r="2.77"/><circle class="cls-51" cx="87.58" cy="123.1" r="1.61"/><circle class="cls-47" cx="102.47" cy="82.92" r="1.61"/><circle class="cls-47" cx="92.75" cy="94.13" r="3.45"/><circle class="cls-89" cx="75.05" cy="271.82" r="3.22"/><circle class="cls-90" cx="106.91" cy="267.85" r="5.38"/><circle class="cls-91" cx="81.43" cy="179.58" r="2.93"/><circle class="cls-91" cx="100.92" cy="203.04" r="2.93"/><circle class="cls-29" cx="302.72" cy="173.39" r="2.83" transform="translate(-5.09 337.58) rotate(-57.88)"/><circle class="cls-29" cx="300.81" cy="216.46" r="2.83" transform="translate(-42.46 356.12) rotate(-57.88)"/><circle class="cls-92" cx="296.22" cy="186.84" r="2.01" transform="translate(-19.52 338.36) rotate(-57.88)"/><circle class="cls-92" cx="297.97" cy="200.18" r="2.01" transform="translate(-30 346.1) rotate(-57.88)"/><circle class="cls-93" cx="94.94" cy="164.28" r="1.61"/><circle class="cls-91" cx="90.32" cy="174.05" r="1.61"/><circle class="cls-94" cx="93.44" cy="198.31" r="1.61"/><circle class="cls-91" cx="93.44" cy="189.46" r="1.61"/><circle class="cls-91" cx="90.32" cy="206.6" r="1.61"/><path class="cls-95" d="M491.73,190.2a11.33,11.33,0,0,0-4.56-2.77,4.5,4.5,0,0,1-3.21-4.26V128.95a4.5,4.5,0,0,1,3.21-4.26,11.33,11.33,0,0,0,4.56-2.77,4.41,4.41,0,0,1,6.22,0,11.33,11.33,0,0,0,4.59,2.78,4.5,4.5,0,0,1,3.22,4.26v54.21a4.49,4.49,0,0,1-3.22,4.26,11.35,11.35,0,0,0-4.6,2.78A4.41,4.41,0,0,1,491.73,190.2Z"/><path id="_Clipping_Path_24" data-name="&lt;Clipping Path&gt;" class="cls-3" d="M485.41,147.73a5.43,5.43,0,0,0-1.45,1.09v33.68a5.4,5.4,0,0,0,3.61,5.07,11.35,11.35,0,0,1,7.27,8.36,11.35,11.35,0,0,1,7.31-8.36,5.4,5.4,0,0,0,3.62-5.08V144.4C503.54,152.78,491.78,145.6,485.41,147.73Z"/><g class="cls-96"><path class="cls-97" d="M554.69,168c-2.1-8.74-8.41-17.07-16.53-20.94-18.46-8.79-33.25,11.67-49.06,4.68-18.52-8.19-14-43.23-25.11-44.58-8-1-17.41,16.31-20.88,29.8-4.65,18.09-2.57,44.64,15.47,61.44,29.23,27.21,83,12.68,93.9-9.69A32,32,0,0,0,554.69,168Z"/><path class="cls-98" d="M553,170.22c-4-8.07-12-14.81-20.72-16.8-19.94-4.53-29.88,18.68-46.84,15.33-19.86-3.93-23.13-39.11-34.28-38-8,.8-13.41,19.73-13.83,33.65-.57,18.67,7.28,44.12,28.57,56.55,34.48,20.13,83.75-5.83,89.49-30.05A32,32,0,0,0,553,170.22Z"/></g><circle class="cls-99" cx="498.55" cy="140.56" r="4.84"/><circle class="cls-99" cx="490.25" cy="133.58" r="1.98"/><circle class="cls-99" cx="500.65" cy="127.76" r="1.98"/><ellipse class="cls-19" cx="296.84" cy="357.81" rx="7.83" ry="1.65"/><ellipse class="cls-19" cx="296.84" cy="357.76" rx="7.83" ry="1.65"/><ellipse class="cls-19" cx="296.84" cy="357.72" rx="7.83" ry="1.65"/><ellipse class="cls-19" cx="296.84" cy="357.67" rx="7.83" ry="1.65"/><ellipse class="cls-19" cx="296.84" cy="357.63" rx="7.83" ry="1.65"/><ellipse class="cls-19" cx="296.84" cy="357.58" rx="7.83" ry="1.65"/><ellipse class="cls-19" cx="296.84" cy="357.54" rx="7.83" ry="1.65"/><ellipse class="cls-19" cx="296.84" cy="357.49" rx="7.83" ry="1.65"/><ellipse class="cls-19" cx="296.84" cy="357.45" rx="7.83" ry="1.65"/><ellipse class="cls-19" cx="296.84" cy="357.4" rx="7.83" ry="1.65"/><ellipse class="cls-19" cx="296.84" cy="357.36" rx="7.83" ry="1.65"/><ellipse class="cls-19" cx="296.84" cy="357.31" rx="7.83" ry="1.65"/><ellipse class="cls-19" cx="296.84" cy="357.27" rx="7.83" ry="1.65"/><ellipse class="cls-19" cx="296.84" cy="357.22" rx="7.83" ry="1.65"/><ellipse class="cls-19" cx="296.84" cy="357.17" rx="7.83" ry="1.65"/><ellipse class="cls-19" cx="296.84" cy="357.13" rx="7.83" ry="1.65"/><ellipse class="cls-19" cx="296.84" cy="357.08" rx="7.83" ry="1.65"/><ellipse class="cls-19" cx="296.84" cy="357.04" rx="7.83" ry="1.65"/><ellipse class="cls-19" cx="296.84" cy="356.99" rx="7.83" ry="1.65"/><ellipse class="cls-19" cx="296.84" cy="356.95" rx="7.83" ry="1.65"/><ellipse class="cls-19" cx="296.84" cy="356.9" rx="7.83" ry="1.65"/><ellipse class="cls-19" cx="296.84" cy="356.86" rx="7.83" ry="1.65"/><ellipse class="cls-19" cx="296.84" cy="356.81" rx="7.83" ry="1.65"/><ellipse class="cls-19" cx="296.84" cy="356.77" rx="7.83" ry="1.65"/><ellipse class="cls-19" cx="296.84" cy="356.72" rx="7.83" ry="1.65"/><ellipse class="cls-19" cx="296.84" cy="356.68" rx="7.83" ry="1.65"/><ellipse class="cls-19" cx="296.84" cy="356.63" rx="7.83" ry="1.65"/><ellipse class="cls-19" cx="296.84" cy="356.59" rx="7.83" ry="1.65"/><ellipse class="cls-19" cx="296.84" cy="356.54" rx="7.83" ry="1.65"/><ellipse class="cls-19" cx="296.84" cy="356.5" rx="7.83" ry="1.65"/><ellipse class="cls-19" cx="296.84" cy="356.45" rx="7.83" ry="1.65"/><ellipse class="cls-19" cx="296.84" cy="356.41" rx="7.83" ry="1.65"/><ellipse class="cls-19" cx="296.84" cy="356.36" rx="7.83" ry="1.65"/><ellipse class="cls-19" cx="296.84" cy="356.31" rx="7.83" ry="1.65"/><ellipse class="cls-19" cx="296.84" cy="356.27" rx="7.83" ry="1.65"/><ellipse class="cls-19" cx="296.84" cy="356.22" rx="7.83" ry="1.65"/><ellipse class="cls-19" cx="296.84" cy="356.18" rx="7.83" ry="1.65"/><ellipse class="cls-19" cx="296.84" cy="356.13" rx="7.83" ry="1.65"/><ellipse class="cls-19" cx="296.84" cy="356.09" rx="7.83" ry="1.65"/><ellipse class="cls-19" cx="296.84" cy="356.04" rx="7.83" ry="1.65"/><ellipse class="cls-19" cx="296.84" cy="356" rx="7.83" ry="1.65"/><ellipse class="cls-19" cx="296.84" cy="355.95" rx="7.83" ry="1.65"/><ellipse class="cls-19" cx="296.84" cy="355.91" rx="7.83" ry="1.65"/><ellipse class="cls-19" cx="296.84" cy="355.86" rx="7.83" ry="1.65"/><ellipse class="cls-19" cx="296.84" cy="355.82" rx="7.83" ry="1.65"/><ellipse class="cls-19" cx="296.84" cy="355.77" rx="7.83" ry="1.65"/><ellipse class="cls-19" cx="296.84" cy="355.73" rx="7.83" ry="1.65"/><ellipse class="cls-19" cx="296.84" cy="355.68" rx="7.83" ry="1.65"/><ellipse class="cls-19" cx="296.84" cy="355.64" rx="7.83" ry="1.65"/><ellipse class="cls-19" cx="296.84" cy="355.59" rx="7.83" ry="1.65"/><ellipse class="cls-19" cx="296.84" cy="355.55" rx="7.83" ry="1.65"/><ellipse class="cls-19" cx="296.84" cy="355.5" rx="7.83" ry="1.65"/><ellipse class="cls-19" cx="296.84" cy="355.46" rx="7.83" ry="1.65"/><ellipse class="cls-19" cx="296.84" cy="355.41" rx="7.83" ry="1.65"/><ellipse class="cls-19" cx="296.84" cy="355.36" rx="7.83" ry="1.65"/><ellipse class="cls-19" cx="296.84" cy="355.32" rx="7.83" ry="1.65"/><ellipse class="cls-19" cx="296.84" cy="355.27" rx="7.83" ry="1.65"/><ellipse class="cls-19" cx="296.84" cy="355.23" rx="7.83" ry="1.65"/><ellipse class="cls-19" cx="296.84" cy="355.18" rx="7.83" ry="1.65"/><ellipse class="cls-19" cx="296.84" cy="355.14" rx="7.83" ry="1.65"/><ellipse class="cls-19" cx="296.84" cy="355.09" rx="7.83" ry="1.65"/><ellipse class="cls-19" cx="296.84" cy="355.05" rx="7.83" ry="1.65"/><ellipse class="cls-19" cx="296.84" cy="355" rx="7.83" ry="1.65"/><ellipse class="cls-19" cx="296.84" cy="354.96" rx="7.83" ry="1.65"/><ellipse class="cls-19" cx="296.84" cy="354.91" rx="7.83" ry="1.65"/><ellipse class="cls-19" cx="296.84" cy="354.87" rx="7.83" ry="1.65"/><ellipse class="cls-19" cx="296.84" cy="354.82" rx="7.83" ry="1.65"/><ellipse class="cls-19" cx="296.84" cy="354.78" rx="7.83" ry="1.65"/><ellipse class="cls-19" cx="296.84" cy="354.73" rx="7.83" ry="1.65"/><ellipse class="cls-19" cx="296.84" cy="354.69" rx="7.83" ry="1.65"/><ellipse class="cls-19" cx="296.84" cy="354.64" rx="7.83" ry="1.65"/><ellipse class="cls-19" cx="296.84" cy="354.6" rx="7.83" ry="1.65"/><ellipse class="cls-19" cx="296.84" cy="354.55" rx="7.83" ry="1.65"/><ellipse class="cls-19" cx="296.84" cy="354.5" rx="7.83" ry="1.65"/><ellipse class="cls-19" cx="296.84" cy="354.46" rx="7.83" ry="1.65"/><ellipse class="cls-19" cx="296.84" cy="354.41" rx="7.83" ry="1.65"/><ellipse class="cls-19" cx="296.84" cy="354.37" rx="7.83" ry="1.65"/><ellipse class="cls-19" cx="296.84" cy="354.32" rx="7.83" ry="1.65"/><ellipse class="cls-19" cx="296.84" cy="354.28" rx="7.83" ry="1.65"/><ellipse class="cls-19" cx="296.84" cy="354.23" rx="7.83" ry="1.65"/><ellipse class="cls-19" cx="296.84" cy="354.19" rx="7.83" ry="1.65"/><ellipse class="cls-19" cx="296.84" cy="354.14" rx="7.83" ry="1.65"/><ellipse class="cls-19" cx="296.84" cy="354.1" rx="7.83" ry="1.65"/><ellipse class="cls-19" cx="296.84" cy="354.05" rx="7.83" ry="1.65"/><ellipse class="cls-19" cx="296.84" cy="354.01" rx="7.83" ry="1.65"/><ellipse class="cls-19" cx="296.84" cy="353.96" rx="7.83" ry="1.65"/><ellipse class="cls-19" cx="296.84" cy="353.92" rx="7.83" ry="1.65"/><ellipse class="cls-19" cx="296.84" cy="353.87" rx="7.83" ry="1.65"/><ellipse class="cls-19" cx="296.84" cy="353.83" rx="7.83" ry="1.65"/><ellipse class="cls-19" cx="296.84" cy="353.78" rx="7.83" ry="1.65"/><ellipse class="cls-19" cx="296.84" cy="353.74" rx="7.83" ry="1.65"/><ellipse class="cls-19" cx="296.84" cy="353.69" rx="7.83" ry="1.65"/><ellipse class="cls-19" cx="296.84" cy="353.65" rx="7.83" ry="1.65"/><ellipse class="cls-19" cx="296.84" cy="353.6" rx="7.83" ry="1.65"/><ellipse class="cls-19" cx="296.84" cy="353.55" rx="7.83" ry="1.65"/><ellipse class="cls-19" cx="296.84" cy="353.51" rx="7.83" ry="1.65"/><ellipse class="cls-19" cx="296.84" cy="353.46" rx="7.83" ry="1.65"/><ellipse class="cls-19" cx="296.84" cy="353.42" rx="7.83" ry="1.65"/><ellipse class="cls-19" cx="296.84" cy="353.37" rx="7.83" ry="1.65"/><ellipse class="cls-19" cx="296.84" cy="353.33" rx="7.83" ry="1.65"/><ellipse class="cls-19" cx="296.84" cy="353.28" rx="7.83" ry="1.65"/><ellipse class="cls-19" cx="296.84" cy="353.24" rx="7.83" ry="1.65"/><ellipse class="cls-19" cx="296.84" cy="353.19" rx="7.83" ry="1.65"/><ellipse class="cls-19" cx="296.84" cy="353.15" rx="7.83" ry="1.65"/><ellipse class="cls-19" cx="296.84" cy="353.1" rx="7.83" ry="1.65"/><ellipse class="cls-19" cx="296.84" cy="353.06" rx="7.83" ry="1.65"/><ellipse class="cls-19" cx="296.84" cy="353.01" rx="7.83" ry="1.65"/><ellipse class="cls-19" cx="296.84" cy="352.97" rx="7.83" ry="1.65"/><ellipse class="cls-19" cx="296.84" cy="352.92" rx="7.83" ry="1.65"/><ellipse class="cls-19" cx="296.84" cy="352.88" rx="7.83" ry="1.65"/><ellipse class="cls-19" cx="296.84" cy="352.83" rx="7.83" ry="1.65"/><ellipse class="cls-19" cx="296.84" cy="352.79" rx="7.83" ry="1.65"/><ellipse class="cls-19" cx="296.84" cy="352.74" rx="7.83" ry="1.65"/><ellipse class="cls-19" cx="296.84" cy="352.7" rx="7.83" ry="1.65"/><ellipse class="cls-19" cx="296.84" cy="352.65" rx="7.83" ry="1.65"/><ellipse class="cls-19" cx="296.84" cy="352.6" rx="7.83" ry="1.65"/><ellipse class="cls-19" cx="296.84" cy="352.56" rx="7.83" ry="1.65"/><ellipse class="cls-19" cx="296.84" cy="352.51" rx="7.83" ry="1.65"/><ellipse class="cls-19" cx="296.84" cy="352.47" rx="7.83" ry="1.65"/><ellipse class="cls-19" cx="296.84" cy="352.42" rx="7.83" ry="1.65"/><ellipse class="cls-19" cx="296.84" cy="352.38" rx="7.83" ry="1.65"/><ellipse class="cls-19" cx="296.84" cy="352.33" rx="7.83" ry="1.65"/><ellipse class="cls-19" cx="296.84" cy="352.29" rx="7.83" ry="1.65"/><ellipse class="cls-19" cx="296.84" cy="352.24" rx="7.83" ry="1.65"/><ellipse class="cls-19" cx="296.84" cy="352.2" rx="7.83" ry="1.65"/><ellipse class="cls-19" cx="296.84" cy="352.15" rx="7.83" ry="1.65"/><ellipse class="cls-19" cx="296.84" cy="352.11" rx="7.83" ry="1.65"/><ellipse class="cls-19" cx="296.84" cy="352.06" rx="7.83" ry="1.65"/><ellipse class="cls-19" cx="296.84" cy="352.02" rx="7.83" ry="1.65"/><ellipse class="cls-19" cx="296.84" cy="351.97" rx="7.83" ry="1.65"/><ellipse class="cls-19" cx="296.84" cy="351.93" rx="7.83" ry="1.65"/><ellipse class="cls-19" cx="296.84" cy="351.88" rx="7.83" ry="1.65"/><ellipse class="cls-19" cx="296.84" cy="351.84" rx="7.83" ry="1.65"/><ellipse class="cls-19" cx="296.84" cy="351.79" rx="7.83" ry="1.65"/><ellipse class="cls-19" cx="296.84" cy="351.74" rx="7.83" ry="1.65"/><ellipse class="cls-19" cx="296.84" cy="351.7" rx="7.83" ry="1.65"/><ellipse class="cls-19" cx="296.84" cy="351.65" rx="7.83" ry="1.65"/><ellipse class="cls-19" cx="296.84" cy="351.61" rx="7.83" ry="1.65"/><ellipse class="cls-19" cx="296.84" cy="351.56" rx="7.83" ry="1.65"/><ellipse class="cls-19" cx="296.84" cy="351.52" rx="7.83" ry="1.65"/><ellipse class="cls-19" cx="296.84" cy="351.47" rx="7.83" ry="1.65"/><ellipse class="cls-19" cx="296.84" cy="351.43" rx="7.83" ry="1.65"/><ellipse class="cls-19" cx="296.84" cy="351.38" rx="7.83" ry="1.65"/><ellipse class="cls-19" cx="296.84" cy="351.34" rx="7.83" ry="1.65"/><ellipse class="cls-19" cx="296.84" cy="351.29" rx="7.83" ry="1.65"/><ellipse class="cls-19" cx="296.84" cy="351.25" rx="7.83" ry="1.65"/><ellipse class="cls-19" cx="296.84" cy="351.2" rx="7.83" ry="1.65"/><ellipse class="cls-19" cx="296.84" cy="351.16" rx="7.83" ry="1.65"/><ellipse class="cls-19" cx="296.84" cy="351.11" rx="7.83" ry="1.65"/><ellipse class="cls-19" cx="296.84" cy="351.07" rx="7.83" ry="1.65"/><ellipse class="cls-19" cx="296.84" cy="351.02" rx="7.83" ry="1.65"/><ellipse class="cls-19" cx="296.84" cy="350.98" rx="7.83" ry="1.65"/><ellipse class="cls-19" cx="296.84" cy="350.93" rx="7.83" ry="1.65"/><ellipse class="cls-19" cx="296.84" cy="350.89" rx="7.83" ry="1.65"/><ellipse class="cls-19" cx="296.84" cy="350.84" rx="7.83" ry="1.65"/><ellipse class="cls-19" cx="296.84" cy="350.79" rx="7.83" ry="1.65"/><ellipse class="cls-19" cx="296.84" cy="350.75" rx="7.83" ry="1.65"/><ellipse class="cls-19" cx="296.84" cy="350.7" rx="7.83" ry="1.65"/><ellipse class="cls-19" cx="296.84" cy="350.66" rx="7.83" ry="1.65"/><ellipse class="cls-19" cx="296.84" cy="350.61" rx="7.83" ry="1.65"/><ellipse class="cls-19" cx="296.84" cy="350.57" rx="7.83" ry="1.65"/><ellipse class="cls-19" cx="296.84" cy="350.52" rx="7.83" ry="1.65"/><ellipse class="cls-19" cx="296.84" cy="350.48" rx="7.83" ry="1.65"/><ellipse class="cls-19" cx="296.84" cy="350.43" rx="7.83" ry="1.65"/><ellipse class="cls-19" cx="296.84" cy="350.39" rx="7.83" ry="1.65"/><ellipse class="cls-19" cx="296.84" cy="350.34" rx="7.83" ry="1.65"/><ellipse class="cls-19" cx="296.84" cy="350.3" rx="7.83" ry="1.65"/><ellipse class="cls-19" cx="296.84" cy="350.25" rx="7.83" ry="1.65"/><ellipse class="cls-19" cx="296.84" cy="350.21" rx="7.83" ry="1.65"/><ellipse class="cls-19" cx="296.84" cy="350.16" rx="7.83" ry="1.65"/><ellipse class="cls-19" cx="296.84" cy="350.12" rx="7.83" ry="1.65"/><ellipse class="cls-19" cx="296.84" cy="350.07" rx="7.83" ry="1.65"/><ellipse class="cls-19" cx="296.84" cy="350.03" rx="7.83" ry="1.65"/><ellipse class="cls-19" cx="296.84" cy="349.98" rx="7.83" ry="1.65"/><ellipse class="cls-19" cx="296.84" cy="349.93" rx="7.83" ry="1.65"/><ellipse class="cls-19" cx="296.84" cy="349.89" rx="7.83" ry="1.65"/><ellipse class="cls-19" cx="296.84" cy="349.84" rx="7.83" ry="1.65"/><ellipse class="cls-19" cx="296.84" cy="349.8" rx="7.83" ry="1.65"/><ellipse class="cls-19" cx="296.84" cy="349.75" rx="7.83" ry="1.65"/><ellipse class="cls-19" cx="296.84" cy="349.71" rx="7.83" ry="1.65"/><ellipse class="cls-19" cx="296.84" cy="349.66" rx="7.83" ry="1.65"/><ellipse class="cls-19" cx="296.84" cy="349.62" rx="7.83" ry="1.65"/><ellipse class="cls-19" cx="296.84" cy="349.57" rx="7.83" ry="1.65"/><ellipse class="cls-19" cx="296.84" cy="349.53" rx="7.83" ry="1.65"/><ellipse class="cls-19" cx="296.84" cy="349.48" rx="7.83" ry="1.65"/><ellipse class="cls-19" cx="296.84" cy="349.44" rx="7.83" ry="1.65"/><ellipse class="cls-19" cx="296.84" cy="349.39" rx="7.83" ry="1.65"/><ellipse class="cls-19" cx="296.84" cy="349.35" rx="7.83" ry="1.65"/><ellipse class="cls-19" cx="296.84" cy="349.3" rx="7.83" ry="1.65"/><ellipse class="cls-19" cx="296.84" cy="349.26" rx="7.83" ry="1.65"/><ellipse class="cls-19" cx="296.84" cy="349.21" rx="7.83" ry="1.65"/><ellipse class="cls-19" cx="296.84" cy="349.17" rx="7.83" ry="1.65"/><ellipse class="cls-19" cx="296.84" cy="349.12" rx="7.83" ry="1.65"/><ellipse class="cls-19" cx="296.84" cy="349.08" rx="7.83" ry="1.65"/><ellipse class="cls-19" cx="296.84" cy="349.03" rx="7.83" ry="1.65"/><ellipse class="cls-19" cx="296.84" cy="348.98" rx="7.83" ry="1.65"/><ellipse class="cls-19" cx="296.84" cy="348.94" rx="7.83" ry="1.65"/><ellipse class="cls-19" cx="296.84" cy="348.89" rx="7.83" ry="1.65"/><ellipse class="cls-19" cx="296.84" cy="348.85" rx="7.83" ry="1.65"/><ellipse class="cls-19" cx="296.84" cy="348.8" rx="7.83" ry="1.65"/><ellipse class="cls-19" cx="296.84" cy="348.76" rx="7.83" ry="1.65"/><ellipse class="cls-19" cx="296.84" cy="348.71" rx="7.83" ry="1.65"/><ellipse class="cls-19" cx="296.84" cy="348.67" rx="7.83" ry="1.65"/><ellipse class="cls-19" cx="296.84" cy="348.62" rx="7.83" ry="1.65"/><ellipse class="cls-19" cx="296.84" cy="348.58" rx="7.83" ry="1.65"/><ellipse class="cls-19" cx="296.84" cy="348.53" rx="7.83" ry="1.65"/><ellipse class="cls-19" cx="296.84" cy="348.49" rx="7.83" ry="1.65"/><ellipse class="cls-19" cx="296.84" cy="348.44" rx="7.83" ry="1.65"/><ellipse class="cls-19" cx="296.84" cy="348.4" rx="7.83" ry="1.65"/><ellipse class="cls-19" cx="296.84" cy="348.35" rx="7.83" ry="1.65"/><ellipse class="cls-19" cx="296.84" cy="348.31" rx="7.83" ry="1.65"/><ellipse class="cls-19" cx="296.84" cy="348.26" rx="7.83" ry="1.65"/><ellipse class="cls-19" cx="296.84" cy="348.22" rx="7.83" ry="1.65"/><ellipse class="cls-19" cx="296.84" cy="348.17" rx="7.83" ry="1.65"/><ellipse class="cls-19" cx="296.84" cy="348.12" rx="7.83" ry="1.65"/><ellipse class="cls-19" cx="296.84" cy="348.08" rx="7.83" ry="1.65"/><ellipse class="cls-19" cx="296.84" cy="348.03" rx="7.83" ry="1.65"/><ellipse class="cls-19" cx="296.84" cy="347.99" rx="7.83" ry="1.65"/><ellipse class="cls-19" cx="296.84" cy="347.94" rx="7.83" ry="1.65"/><ellipse class="cls-19" cx="296.84" cy="347.9" rx="7.83" ry="1.65"/><ellipse class="cls-19" cx="296.84" cy="347.85" rx="7.83" ry="1.65"/><ellipse class="cls-19" cx="296.84" cy="347.81" rx="7.83" ry="1.65"/><ellipse class="cls-19" cx="296.84" cy="347.76" rx="7.83" ry="1.65"/><ellipse class="cls-19" cx="296.84" cy="347.72" rx="7.83" ry="1.65"/><ellipse class="cls-19" cx="296.84" cy="347.67" rx="7.83" ry="1.65"/><ellipse class="cls-19" cx="296.84" cy="347.63" rx="7.83" ry="1.65"/><ellipse class="cls-19" cx="296.84" cy="347.58" rx="7.83" ry="1.65"/><ellipse class="cls-19" cx="296.84" cy="347.54" rx="7.83" ry="1.65"/><ellipse class="cls-19" cx="296.84" cy="347.49" rx="7.83" ry="1.65"/><ellipse class="cls-19" cx="296.84" cy="347.45" rx="7.83" ry="1.65"/><ellipse class="cls-19" cx="296.84" cy="347.4" rx="7.83" ry="1.65"/><ellipse class="cls-19" cx="296.84" cy="347.36" rx="7.83" ry="1.65"/><ellipse class="cls-19" cx="296.84" cy="347.31" rx="7.83" ry="1.65"/><ellipse class="cls-19" cx="296.84" cy="347.27" rx="7.83" ry="1.65"/><ellipse class="cls-19" cx="296.84" cy="347.22" rx="7.83" ry="1.65"/><ellipse class="cls-19" cx="296.84" cy="347.17" rx="7.83" ry="1.65"/><ellipse class="cls-19" cx="296.84" cy="347.13" rx="7.83" ry="1.65"/><ellipse class="cls-19" cx="296.84" cy="347.08" rx="7.83" ry="1.65"/><ellipse class="cls-19" cx="296.84" cy="347.04" rx="7.83" ry="1.65"/><ellipse class="cls-19" cx="296.84" cy="346.99" rx="7.83" ry="1.65"/><ellipse class="cls-19" cx="296.84" cy="346.95" rx="7.83" ry="1.65"/><ellipse class="cls-19" cx="296.84" cy="346.9" rx="7.83" ry="1.65"/><ellipse class="cls-19" cx="296.84" cy="346.86" rx="7.83" ry="1.65"/><ellipse class="cls-19" cx="296.84" cy="346.81" rx="7.83" ry="1.65"/><ellipse class="cls-19" cx="296.84" cy="346.77" rx="7.83" ry="1.65"/><ellipse class="cls-19" cx="296.84" cy="346.72" rx="7.83" ry="1.65"/><ellipse class="cls-19" cx="296.84" cy="346.68" rx="7.83" ry="1.65"/><ellipse class="cls-19" cx="296.84" cy="346.63" rx="7.83" ry="1.65"/><ellipse class="cls-19" cx="296.84" cy="346.59" rx="7.83" ry="1.65"/><ellipse class="cls-19" cx="296.84" cy="346.54" rx="7.83" ry="1.65"/><ellipse class="cls-19" cx="296.84" cy="346.5" rx="7.83" ry="1.65"/><ellipse class="cls-19" cx="296.84" cy="346.45" rx="7.83" ry="1.65"/><ellipse class="cls-19" cx="296.84" cy="346.41" rx="7.83" ry="1.65"/><ellipse class="cls-19" cx="296.84" cy="346.36" rx="7.83" ry="1.65"/><ellipse class="cls-19" cx="296.84" cy="346.32" rx="7.83" ry="1.65"/><ellipse class="cls-19" cx="296.84" cy="346.27" rx="7.83" ry="1.65"/><ellipse class="cls-19" cx="296.84" cy="346.22" rx="7.83" ry="1.65"/><ellipse class="cls-19" cx="296.84" cy="346.18" rx="7.83" ry="1.65"/><ellipse class="cls-19" cx="296.84" cy="346.13" rx="7.83" ry="1.65"/><ellipse class="cls-19" cx="296.84" cy="346.09" rx="7.83" ry="1.65"/><ellipse class="cls-19" cx="296.84" cy="346.04" rx="7.83" ry="1.65"/><ellipse class="cls-19" cx="296.84" cy="346" rx="7.83" ry="1.65"/><ellipse class="cls-19" cx="296.84" cy="345.95" rx="7.83" ry="1.65"/><ellipse class="cls-19" cx="296.84" cy="345.91" rx="7.83" ry="1.65"/><ellipse class="cls-19" cx="296.84" cy="345.86" rx="7.83" ry="1.65"/><ellipse class="cls-19" cx="296.84" cy="345.82" rx="7.83" ry="1.65"/><ellipse class="cls-19" cx="296.84" cy="345.77" rx="7.83" ry="1.65"/><ellipse class="cls-19" cx="296.84" cy="345.73" rx="7.83" ry="1.65"/><ellipse class="cls-19" cx="296.84" cy="345.68" rx="7.83" ry="1.65"/><ellipse class="cls-19" cx="296.84" cy="345.64" rx="7.83" ry="1.65"/><ellipse class="cls-19" cx="296.84" cy="345.59" rx="7.83" ry="1.65"/><ellipse class="cls-19" cx="296.84" cy="345.55" rx="7.83" ry="1.65"/><ellipse class="cls-19" cx="296.84" cy="345.5" rx="7.83" ry="1.65"/><ellipse class="cls-19" cx="296.84" cy="345.46" rx="7.83" ry="1.65"/><ellipse class="cls-19" cx="296.84" cy="345.41" rx="7.83" ry="1.65"/><ellipse class="cls-19" cx="296.84" cy="345.36" rx="7.83" ry="1.65"/><ellipse class="cls-19" cx="296.84" cy="345.32" rx="7.83" ry="1.65"/><ellipse class="cls-19" cx="296.84" cy="345.27" rx="7.83" ry="1.65"/><ellipse class="cls-19" cx="296.84" cy="345.23" rx="7.83" ry="1.65"/><ellipse class="cls-19" cx="296.84" cy="345.18" rx="7.83" ry="1.65"/><ellipse class="cls-19" cx="296.84" cy="345.14" rx="7.83" ry="1.65"/><ellipse class="cls-19" cx="296.84" cy="345.09" rx="7.83" ry="1.65"/><ellipse class="cls-19" cx="296.84" cy="345.05" rx="7.83" ry="1.65"/><ellipse class="cls-19" cx="296.84" cy="345" rx="7.83" ry="1.65"/><ellipse class="cls-19" cx="296.84" cy="344.96" rx="7.83" ry="1.65"/><ellipse class="cls-19" cx="296.84" cy="344.91" rx="7.83" ry="1.65"/><ellipse class="cls-19" cx="296.84" cy="344.87" rx="7.83" ry="1.65"/><ellipse class="cls-19" cx="296.84" cy="344.82" rx="7.83" ry="1.65"/><ellipse class="cls-19" cx="296.84" cy="344.78" rx="7.83" ry="1.65"/><ellipse class="cls-19" cx="296.84" cy="344.73" rx="7.83" ry="1.65"/><ellipse class="cls-19" cx="296.84" cy="344.69" rx="7.83" ry="1.65"/><ellipse class="cls-19" cx="296.84" cy="344.64" rx="7.83" ry="1.65"/><ellipse class="cls-19" cx="296.84" cy="344.6" rx="7.83" ry="1.65"/><ellipse class="cls-19" cx="296.84" cy="344.55" rx="7.83" ry="1.65"/><ellipse class="cls-19" cx="296.84" cy="344.51" rx="7.83" ry="1.65"/><ellipse class="cls-19" cx="296.84" cy="344.46" rx="7.83" ry="1.65"/><ellipse class="cls-19" cx="296.84" cy="344.41" rx="7.83" ry="1.65"/><ellipse class="cls-19" cx="296.84" cy="344.37" rx="7.83" ry="1.65"/><ellipse class="cls-19" cx="296.84" cy="344.32" rx="7.83" ry="1.65"/><ellipse class="cls-19" cx="296.84" cy="344.28" rx="7.83" ry="1.65"/><ellipse class="cls-19" cx="296.84" cy="344.23" rx="7.83" ry="1.65"/><ellipse class="cls-19" cx="296.84" cy="344.19" rx="7.83" ry="1.65"/><ellipse class="cls-19" cx="296.84" cy="344.14" rx="7.83" ry="1.65"/><ellipse class="cls-19" cx="296.84" cy="344.1" rx="7.83" ry="1.65"/><ellipse class="cls-19" cx="296.84" cy="344.05" rx="7.83" ry="1.65"/><ellipse class="cls-19" cx="296.84" cy="344.01" rx="7.83" ry="1.65"/><ellipse class="cls-19" cx="296.84" cy="343.96" rx="7.83" ry="1.65"/><ellipse class="cls-19" cx="296.84" cy="343.92" rx="7.83" ry="1.65"/><ellipse class="cls-19" cx="296.84" cy="343.87" rx="7.83" ry="1.65"/><ellipse class="cls-19" cx="296.84" cy="343.83" rx="7.83" ry="1.65"/><ellipse class="cls-19" cx="296.84" cy="343.78" rx="7.83" ry="1.65"/><ellipse class="cls-19" cx="296.84" cy="343.78" rx="7.83" ry="1.65"/><circle class="cls-100" cx="310.59" cy="187.84" r="5.23"/><polyline class="cls-101" points="146.09 26.27 148.85 29.4 153.94 24.31"/><polyline class="cls-102" points="164.1 47.94 165.97 50.05 169.4 46.62"/><circle class="cls-94" cx="562.96" cy="267.47" r="6.18"/><circle class="cls-93" cx="546.45" cy="245.62" r="9.15"/><circle class="cls-91" cx="564.41" cy="250.71" r="4.06"/><circle class="cls-91" cx="555.44" cy="218.98" r="6.01"/><circle class="cls-91" cx="540.67" cy="265.35" r="4.06"/><circle class="cls-91" cx="551.38" cy="278.61" r="4.06"/><circle class="cls-91" cx="532.65" cy="357.25" r="4.06"/><rect class="cls-103" x="283.02" y="48.3" width="6.56" height="6.56" rx="1.64" ry="1.64" transform="translate(78.73 -152.24) rotate(34.27)"/><rect class="cls-103" x="302.24" y="74.44" width="9.8" height="9.8" rx="2.45" ry="2.45" transform="translate(247.98 -232.31) rotate(64.77)"/><rect class="cls-103" x="297.7" y="98.23" width="6.56" height="6.56" rx="1.64" ry="1.64" transform="translate(159.93 -183.09) rotate(45)"/><rect class="cls-104" x="298.4" y="28.45" width="24.04" height="24.04" rx="5.11" ry="5.11" transform="translate(5.26 -29.35) rotate(5.46)"/><path class="cls-100" d="M307.61,44.83l-3.73-5.14a.64.64,0,0,1,.14-.89l1.56-1.13a.64.64,0,0,1,.89.14l2.21,3L316,35.48a.64.64,0,0,1,.89.13L318,37.17a.64.64,0,0,1-.13.89L308.51,45A.64.64,0,0,1,307.61,44.83Z"/><rect class="cls-104" x="274.67" y="69.33" width="18.99" height="18.99" rx="4.03" ry="4.03" transform="translate(-10.72 77.15) rotate(-15.18)"/><path class="cls-100" d="M283.31,82.83l-4.19-2.76a.5.5,0,0,1-.14-.7l.84-1.27a.5.5,0,0,1,.7-.14L283,79.59l3.88-6a.5.5,0,0,1,.7-.15l1.28.83a.5.5,0,0,1,.15.7l-5,7.71A.5.5,0,0,1,283.31,82.83Z"/><g class="cls-30"><path id="_Clipping_Path_25" data-name="&lt;Clipping Path&gt;" class="cls-2" d="M570.43,383.32a2.61,2.61,0,0,0,2.6-2.6V326.05a23,23,0,0,1-11.55,3.39c-18.08.11-32.71-24-44.18-23.49-1.72.08-8.88,0-8.88,12.41,0,0,0,62.35,0,62.35a2.61,2.61,0,0,0,2.6,2.6Z"/><g class="cls-85"><path class="cls-105" d="M492.92,361.66c-4-19.76,12.59-53.95,15.49-45.38,2.65,7.83,6,20.35,25.09,25.32C548,345.36,568,338,573,326.05c2.85-6.78.32-13.77,6-18.79,2.43-2.15,6.8-4.32,10.06-3.24,9.87,3.27,15.55,38.29,1.34,61.33-20.29,32.91-74.22,33.16-90.15,15.08C495.59,375.09,494.33,368.62,492.92,361.66Z"/><path class="cls-106" d="M588.46,362.4c-4.64-6.22-12.48-10.68-20.23-11-17.63-.69-22.4,20.57-37.31,20.4-17.47-.19-25.8-29.52-35.08-26.82-6.68,1.95-8.26,18.86-6.42,30.73,2.46,15.93,13.15,36.28,33.17,43.46C555,430.83,592.72,401,593.76,379.57A27.64,27.64,0,0,0,588.46,362.4Z"/></g></g><path class="cls-50" d="M302,337.07a5,5,0,0,1-10,0c0-2.76,5-11.86,5-11.86S302,334.31,302,337.07Z"/><line class="cls-22" x1="386.98" y1="267.54" x2="386.98" y2="442.36"/><line class="cls-44" x1="48.33" y1="301.83" x2="142.03" y2="301.83"/><line class="cls-44" x1="55.94" y1="301.83" x2="35.12" y2="391.35"/><line class="cls-44" x1="134.7" y1="301.83" x2="155.25" y2="390.15"/><path class="cls-44" d="M143.38,340a49.33,49.33,0,0,0-96.14,0"/><path class="cls-107" d="M205.7,223.84a26.46,26.46,0,0,1-52.92,0A20.84,20.84,0,0,0,163,227.47c9.47.56,13.94-6.68,23.46-8.23C190.81,218.54,197.2,218.85,205.7,223.84Z"/><path class="cls-108" d="M191.41,160.44a12.6,12.6,0,1,1-25.19,0,9.05,9.05,0,0,1,5.11-3.11c4.08-.69,6.47,2.64,12,3.6A18.25,18.25,0,0,0,191.41,160.44Z"/><path class="cls-109" d="M236.47,170.77a14,14,0,1,1,14-14A14.05,14.05,0,0,1,236.47,170.77Z"/><path class="cls-110" d="M250.51,156.74a14,14,0,1,1-28.08,0,10.09,10.09,0,0,1,5.69-3.47c4.55-.77,7.21,2.94,13.42,4A20.34,20.34,0,0,0,250.51,156.74Z"/><circle class="cls-111" cx="431.01" cy="188.91" r="24.21"/><path class="cls-112" d="M431,208.11a19.2,19.2,0,1,1,19.2-19.2A19.22,19.22,0,0,1,431,208.11Z"/><path class="cls-113" d="M450.21,188.91a19.2,19.2,0,1,1-38.4,0,13.8,13.8,0,0,1,7.79-4.74c6.22-1.06,9.86,4,18.35,5.48A27.81,27.81,0,0,0,450.21,188.91Z"/><circle class="cls-91" cx="541.41" cy="331.78" r="2.21"/><circle class="cls-91" cx="531.25" cy="330.72" r="4.13"/><circle class="cls-114" cx="490.25" cy="236.47" r="2.21"/><circle class="cls-115" cx="490.45" cy="179.85" r="2.21"/><circle class="cls-49" cx="424.51" cy="198.98" r="3.02"/><circle class="cls-115" cx="500.65" cy="158.82" r="2.21"/><circle class="cls-114" cx="499.49" cy="253.83" r="3.15"/><circle class="cls-91" cx="566.27" cy="373.63" r="2.21"/><circle class="cls-91" cx="518.17" cy="345.08" r="2.21"/><circle class="cls-94" cx="518.17" cy="322.16" r="2.21"/><circle class="cls-50" cx="436.63" cy="181.69" r="5.55"/><path class="cls-116" d="M184.84,378.79l1.56.84a13,13,0,0,0,5,1.51q1.44.18,1.53-.1t-.44-.56c.42.14.8.11.89,0s-.13-.57-.64-.86c.09,0,.2-.12.21-.21,0-.3-.88-.6-1.24-.73-.89-.31-2.14-.77-4-1.54l-2-.18Z"/><path class="cls-117" d="M171.5,372.73l15.35,2.53-2,3.57a33.56,33.56,0,0,0-4.06-.57c-3.38-.27-4.58.15-7.4-.17s-4-.46-5.24-1.3c0,0-1.62-1.14-4.14-8.69h0l5.58-2.23C170.07,367.63,170.8,372.09,171.5,372.73Z"/><path class="cls-16" d="M165,372.7c-.38-.22-.7-.6-1.26-2.6a31.37,31.37,0,0,1-1-5.59l4.93-9.93a39.53,39.53,0,0,1,1.45,4.41s.64,2.41,1.42,7.46h0c.29,2.25.34,2.52.17,3.06C169.89,371.88,166.59,373.61,165,372.7Z"/><path class="cls-118" d="M170.67,369.5c.18-.54.12-.81-.17-3.06,0,0-.06-.48-.15-1.24a10,10,0,0,1-.52.92,8.43,8.43,0,0,1-6.17,3.7l.07.27c.56,2,.88,2.38,1.26,2.6C166.59,373.61,169.89,371.88,170.67,369.5Z"/><path class="cls-119" d="M186.35,375l.85.08a5.31,5.31,0,0,1,2.1.66l2.79,1.58h0a1.2,1.2,0,0,1-1.54.57l-1.16-.48-2,.19a2.66,2.66,0,0,1-2.72-1.67h0A1.7,1.7,0,0,1,186.35,375Z"/><rect class="cls-26" x="185.1" y="378.83" width="5.28" height="55.96"/><path class="cls-26" d="M187.65,373.37h.2a2.54,2.54,0,0,1,2.54,2.54v2.92a0,0,0,0,1,0,0H185.1a0,0,0,0,1,0,0v-2.92A2.54,2.54,0,0,1,187.65,373.37Z"/><line class="cls-120" x1="171.8" y1="379.2" x2="203.02" y2="379.2"/><path id="_Clipping_Path_26" data-name="&lt;Clipping Path&gt;" class="cls-4" d="M158.63,445.65l-10.42,0,0-6.62,3.39.87a4.43,4.43,0,0,0,1.83,2.78c1.53,1,3.21.22,4.39,1.4A3,3,0,0,1,158.63,445.65Z"/><g class="cls-121"><rect class="cls-122" x="147.8" y="444.91" width="10.83" height="0.71" transform="translate(1.8 -0.62) rotate(0.23)"/></g><path class="cls-123" d="M162.68,352.2a4,4,0,1,1-8,.13,21,21,0,0,0,0-6.24l8,1.52c-1.13,1.9-1.38,3.63-.67,4.29A1.2,1.2,0,0,0,162.68,352.2Z"/><path class="cls-4" d="M154.87,346.23l-1.34-1.2a3.3,3.3,0,0,1-1.07-2.06l-.08-.63a21.18,21.18,0,0,1-.06-4.62,2.66,2.66,0,0,1,1.55-2.19l.23-.1a13.22,13.22,0,0,1,5.33-1.13H163a1.69,1.69,0,0,1,1.81-.58c.79.34.84,1.55.59,2.3a2.4,2.4,0,0,1-1.23,1.32l-3.53,6.38Z"/><path class="cls-117" d="M163.52,337.14c.18.68.34,1.42.46,2.23a23,23,0,0,1,.27,3c.06.16.18.45.35.79.52,1,1.09,1.68.9,1.9,0,0-.74.25-.87.34s-.31,2.5-.87,3.39c-1.14,1.81-7,1.7-8.59-1.3a4.14,4.14,0,0,1-.43-2.36,2.35,2.35,0,0,0,.32-.1,2.66,2.66,0,0,0,1.33-1.15c.55-1-.14-2,.38-2.34a.8.8,0,0,1,.79,0c.69.37.67,2,.67,2h0l1.1-.17c.23-2.78,1-3.76,1.68-4.1a5.51,5.51,0,0,0,1.38-.8A4.86,4.86,0,0,0,163.52,337.14Z"/><path id="_Clipping_Path_27" data-name="&lt;Clipping Path&gt;" class="cls-4" d="M175.38,442.85H164.87v-6.68l3.42.86a4.47,4.47,0,0,0,1.85,2.8c1.55,1,3.24.21,4.43,1.4A3,3,0,0,1,175.38,442.85Z"/><g class="cls-124"><rect class="cls-122" x="164.66" y="442.13" width="10.92" height="0.72"/></g><circle class="cls-122" cx="167.05" cy="439.68" r="0.79"/><path class="cls-125" d="M155.75,379.94l6.12,26.73,2.93,30.71a3.93,3.93,0,0,0,4.71-.7c0-9.8-.06-20.25-1.18-31.18l-2.8-27.35Z"/><path class="cls-126" d="M148.93,380.06c-.32,5.09-.46,10.59-.31,16.44.1,3.75.31,7.35.6,10.77q-.41,4.15-.7,8.49c-.56,8.6-.64,16.77-.39,24.42a15.94,15.94,0,0,0,4.76.14c1.5-10.51,3-21.46,3.9-32.88L158.87,380Z"/><path id="_Clipping_Path_28" data-name="&lt;Clipping Path&gt;" class="cls-114" d="M164.63,352.72c-.93-.29-1.71-.52-2.29-.67v0a5.37,5.37,0,0,1-3.93,1.43,6,6,0,0,1-3.63-1.57,17.79,17.79,0,0,0-5.89.7,3,3,0,0,0-.83.33c-2.27,1.5-.66,7.37-.2,8.94.57,8.29.62,11.54.5,12.69a5.29,5.29,0,0,0,.09,2.42,8.3,8.3,0,0,1,.51,1.66,4.74,4.74,0,0,1,0,1.36h17a1.63,1.63,0,0,1,0-.88,1.62,1.62,0,0,1,.48-.73c1.37-1.26,1.43-6.06,1.43-6.06,0-3.73-.34-12.63-.11-15.95a3.44,3.44,0,0,0-.61-2.6C166.86,353.55,166.5,353.32,164.63,352.72Z"/><path class="cls-127" d="M144,400.94h11.36l-.68-49.32c-1,.11-2.32.29-4,.61-3.43.67-4.1,1.17-4.38,1.42-1.51,1.32-1.52,3.58-1.53,4.54C144.58,374.7,144.31,384.43,144,400.94Z"/><path class="cls-16" d="M162.34,400.94h5.5V355.61a2.71,2.71,0,0,0-2-2.62l-3.49-.95Z"/><path class="cls-117" d="M169.4,377.61l-1.78,2.59a69.08,69.08,0,0,0-6.15-3.44,69.1,69.1,0,0,1-7.77-4l0,0a3.12,3.12,0,0,1-.69-4.64l1.29-1.53Z"/><path class="cls-117" d="M166.54,379.45l1.68,1.25a5.71,5.71,0,0,0,3.51,1.67c.47,0,1.6.18,1.91-.36a.71.71,0,0,0,.07-.45,1.16,1.16,0,0,0,.94-1.09.78.78,0,0,0-.26-.48c.67-.32,1.06-.82,1-1.21a.56.56,0,0,0-.35-.43c-.21-.05-.36.14-.72.33a2.68,2.68,0,0,1-.76.26l-1.36-1a1.6,1.6,0,0,0,.58.25,1.36,1.36,0,0,0,.73,0,1.31,1.31,0,0,0,.62-.44c-1.23-.5-2.19-.9-2.81-1.17a4.27,4.27,0,0,0-2-.57,3,3,0,0,0-1.78.7A3.29,3.29,0,0,0,166.54,379.45Z"/><path class="cls-16" d="M146.5,389.48h0a3.22,3.22,0,0,1,3.22,3.22v3.73a0,0,0,0,1,0,0h-6.44a0,0,0,0,1,0,0V392.7A3.22,3.22,0,0,1,146.5,389.48Z" transform="translate(293.01 785.92) rotate(180)"/><path class="cls-128" d="M157.49,368.67l-.56-1.23c-1.14-2.48-1.81-3.88-2.05-4.39-2.12-4.57-1-6.21-2.92-8-1.31-1.2-3.68-2.11-5.37-1.11a4.08,4.08,0,0,0-1.72,2.68,7.82,7.82,0,0,0,.91,4l.34.74c.46,1,.77,1.59,1.07,2.21.88,1.78,1.58,3.31,2.91,5.92.78,1.53.93,1.77,1.3,2,1.76.91,4.57-1.33,4.82-1.53A8.12,8.12,0,0,0,157.49,368.67Z"/><path class="cls-118" d="M152.87,368.17a8.25,8.25,0,0,1-3,.84l.46.89c.79,1.52.94,1.76,1.29,2,1.65,1,4-1,4.31-1.23a6.81,6.81,0,0,0,1.65-2.09c-.42-.88-.93-1.94-1.52-3.15A8.33,8.33,0,0,1,152.87,368.17Z"/><circle class="cls-122" cx="150.16" cy="442.3" r="0.78" transform="translate(-292.75 590.67) rotate(-89.77)"/><path class="cls-34" d="M405.56,133.58"/><path class="cls-118" d="M458.71,333.87c-.64,3.51-1.45,7.18-2.47,11a142.94,142.94,0,0,1-10,26.52,37.46,37.46,0,0,0,8.18,1.13,38.07,38.07,0,0,0,14.85-2.63V337.52Z"/><path class="cls-19" d="M475.26,393.43l-.28,1.64a3.42,3.42,0,0,1-1,1.86h0a3.42,3.42,0,0,1-1.09.72l-2.73,1.13v.92h6.63l.65-.65.74.74h1.65V398.7a14,14,0,0,0-.3-2.88l-.07-.33-.64-3.32Z"/><path class="cls-19" d="M457.45,394.71l-1,1.61a3.86,3.86,0,0,1-1.77,1.57h0a3.86,3.86,0,0,1-1.43.32l-3.33.1-.37,1,7,2.66.94-.42.48,1.08,1.74.66.44-1.15A15.79,15.79,0,0,0,461,399l.06-.38.65-3.75Z"/><path class="cls-129" d="M478.4,347.12c.13.27.28.58.44.92A24,24,0,0,1,480,351.3a27.69,27.69,0,0,1,.78,4.28c.28,2.8-.16,7.27-1.84,16a77.31,77.31,0,0,1,1.39,11.91,49.16,49.16,0,0,1-.71,10.68l-5.41-.18a62.49,62.49,0,0,0-.77-11.21,105.09,105.09,0,0,0-2-10.8s-2.82-15.89,1-21.17C473.13,349.8,474.55,348,478.4,347.12Z"/><path class="cls-130" d="M476.26,351.93c0,.3.07.64.11,1a24,24,0,0,1,0,3.46,27.69,27.69,0,0,1-.69,4.3c-.67,2.74-2.57,6.81-7.06,14.47A77.31,77.31,0,0,1,466,386.87a49.16,49.16,0,0,1-4.22,9.84l-5-2a62.49,62.49,0,0,0,3-10.83A105.09,105.09,0,0,0,461.46,373s2.62-15.92,7.95-19.64C470.4,352.71,472.33,351.51,476.26,351.93Z"/><path class="cls-131" d="M437.93,312.67l-3.32-3.58a.56.56,0,0,0-.76.14c0,.3.06.61-.1.72s-.28-.06-.45,0-.28.77-.27,1a2.28,2.28,0,0,0,.11.64l-.17.74a.79.79,0,0,0,.2.73l.08,1.12c-.17.38,1.12,1.41,1.16,1.45l1.94.89a.56.56,0,0,0,1-.25l.73-3.11A.56.56,0,0,0,437.93,312.67Z"/><path class="cls-118" d="M441.63,312.34c-.6.57.8,3.38-2.62-.56a3.93,3.93,0,0,1-1.39-2.45c-.12-1.47,1.18-2,.89-3.31-.16-.73-.62-1-.56-1.79,0-.56.33-1.19.61-1.2s.38.81,1,2.23a27.9,27.9,0,0,1,1.34,2.48c.18.49.24.8.61,1.85a5.72,5.72,0,0,1,.27.8C441.9,310.85,442.11,311.87,441.63,312.34Z"/><path class="cls-118" d="M475.93,329c-.46-1.75-2.31-2.59-7.85-4.53-3.2-1.12-7.39-2.52-12.38-4l-14.27-11.28-2.24,3.47,14,13.5c3.13,1.17,5.65,2.28,7.41,3.09,7.09,3.27,10.65,4.91,11.22,5.44a1.17,1.17,0,0,0,.82.39C474.27,335.06,476.58,331.52,475.93,329Z"/><path class="cls-131" d="M468.82,320a3.78,3.78,0,0,0,.92-.6,3.83,3.83,0,0,0,1-1.38c.22-.59,1-2.5,2.09-3.2a4.11,4.11,0,0,1,2.51-.63,4.94,4.94,0,0,1,3.94,3.8,5.72,5.72,0,0,1-2.39,5.88,6.25,6.25,0,0,1-4.56.86,7,7,0,0,1-3.07-1.31q.12-.49.23-1c.13-.66.23-1.28.29-1.87Z"/><rect class="cls-132" x="412.34" y="268.63" width="27.84" height="59.39" rx="3.55" ry="3.55" transform="translate(-53.46 96.92) rotate(-12.21)"/><path class="cls-131" d="M434.68,319.45c.66.17,1.38-.78,1.66-1.45a3,3,0,0,0,0-2.32c-.43-1-1.08-.86-2-2s-.91-2.14-1.23-2.13-.48.75-.47,1.42c0,1.25.78,1.48,1,2.81.17,1.07-.25,1.3.08,2.36C433.89,318.49,434.15,319.31,434.68,319.45Z"/><path class="cls-131" d="M435.76,315.25s-3.85-1.4-4.39-2.34-.46-1.71-.9-1.72-.3,1.6-.52,1.78-.54,0-.58.49a4,4,0,0,0,0,1.62,9.91,9.91,0,0,0,2.52,3.27c.85.49,2.55,1.59,3.58,1.45s.62-3.75.62-3.75Z"/><path class="cls-49" d="M411.25,294.78c5.65,3.31,8.67,3.12,10.4,2.11,3.46-2,2.22-7.47,6.06-10.41,2.8-2.15,6.78-1.79,10-1l-3.39-15.66a3.55,3.55,0,0,0-4.22-2.72l-20.28,4.39a3.55,3.55,0,0,0-2.72,4.22Z"/><path class="cls-49" d="M398,290.37"/><path class="cls-131" d="M471.34,322.89l-.71,4.87h5.86v-5.09Z"/><path class="cls-133" d="M478.5,329.45a9.55,9.55,0,0,0-8.74-2.86c-2.05-.12-4.82.07-8.54-.06a71.07,71.07,0,0,1-10.58-1.17l-14.08-8.82-2.66,3.19a64.29,64.29,0,0,0,14.62,12,77.4,77.4,0,0,0,14.8,4.56l.08.19-4.6,36.82a84.8,84.8,0,0,0,24.41-1.15Z"/><path class="cls-134" d="M474.39,321A7.28,7.28,0,0,1,471,315.7a5.69,5.69,0,0,1,3.45-1.89,6.45,6.45,0,0,1,3.94,1.1c3,2,3.83,9,2.1,17.49-3.6.68-6.86,0-7.89-1.88-.8-1.46-.2-3.54.6-6.34A23.59,23.59,0,0,1,474.39,321Z"/><path class="cls-135" d="M538.1,411H480c-.82,0-.26-.49,1.25-1.1L494,404.79a15.12,15.12,0,0,1,4.22-1.1h58.07c.82,0,.26.49-1.25,1.1l-12.75,5.12A15.12,15.12,0,0,1,538.1,411Z"/><path class="cls-136" d="M538.1,413.39H480c-.82,0-.26-.49,1.25-1.1L494,407.18a15.12,15.12,0,0,1,4.22-1.1h58.07c.82,0,.26.49-1.25,1.1l-12.75,5.12A15.12,15.12,0,0,1,538.1,413.39Z"/><path class="cls-137" d="M538.1,408.61H480c-.82,0-.26-.49,1.25-1.1L494,402.39a15.12,15.12,0,0,1,4.22-1.1h58.07c.82,0,.26.49-1.25,1.1l-12.75,5.12A15.12,15.12,0,0,1,538.1,408.61Z"/></g></g></g></svg>