<svg xmlns="http://www.w3.org/2000/svg" xmlns:xlink="http://www.w3.org/1999/xlink" viewBox="0 0 569.78 280.41"><defs><style>.cls-1{fill:#008364;}.cls-2{fill:#ff991f;}.cls-3{fill:#f1dad5;}.cls-4{fill:url(#linear-gradient);}.cls-5{fill:#ebecf0;}.cls-6{fill:#ffc400;}.cls-7{fill:#ffd740;}.cls-8{fill:#2db07c;}.cls-9{isolation:isolate;}.cls-10,.cls-13,.cls-14,.cls-15{opacity:0.15;}.cls-10{fill:url(#linear-gradient-2);}.cls-11{clip-path:url(#clip-path);}.cls-12,.cls-16,.cls-32{fill:none;stroke-linecap:round;stroke-miterlimit:10;}.cls-12{stroke:#48cc8c;}.cls-12,.cls-32{stroke-width:3.2px;}.cls-13{fill:url(#linear-gradient-3);}.cls-14{fill:url(#linear-gradient-4);}.cls-15{fill:url(#linear-gradient-5);}.cls-16{stroke:#cfd4db;stroke-width:3.39px;}.cls-17{fill:#a5adba;}.cls-18{fill:#cfd4db;}.cls-19{clip-path:url(#clip-path-2);}.cls-20,.cls-22,.cls-24,.cls-51{mix-blend-mode:multiply;}.cls-20{fill:url(#linear-gradient-6);}.cls-21{clip-path:url(#clip-path-3);}.cls-22{fill:url(#linear-gradient-7);}.cls-23{clip-path:url(#clip-path-4);}.cls-24{fill:url(#linear-gradient-8);}.cls-25{clip-path:url(#clip-path-5);}.cls-26{clip-path:url(#clip-path-6);}.cls-27{fill:#0065ff;}.cls-28{clip-path:url(#clip-path-7);}.cls-29{clip-path:url(#clip-path-8);}.cls-30{clip-path:url(#clip-path-9);}.cls-31{clip-path:url(#clip-path-10);}.cls-32{stroke:#2db07c;}.cls-33{fill:#72594b;}.cls-34,.cls-51{fill:#dfe1e5;}.cls-35{fill:url(#New_Gradient_Swatch_14);}.cls-36{fill:#172b4d;}.cls-37{fill:url(#linear-gradient-9);}.cls-38{fill:#253858;}.cls-39{fill:#00875a;}.cls-40{fill:url(#linear-gradient-10);}.cls-41{fill:#9c7761;}.cls-42{fill:#b5917c;}.cls-43{fill:#36b37e;}.cls-44{fill:#57d9a3;}.cls-45{fill:#f4f5f7;}.cls-46{fill:#c1c7d0;}.cls-47{fill:url(#linear-gradient-11);}.cls-48{fill:#344563;}.cls-49{fill:#66a3ff;}.cls-50{clip-path:url(#clip-path-11);}.cls-52{fill:url(#linear-gradient-12);}.cls-53{fill:url(#linear-gradient-13);}.cls-54{clip-path:url(#clip-path-12);}.cls-55{fill:#2684ff;}.cls-56{fill:#efc7b0;}.cls-57{fill:#4c9aff;}.cls-58{fill:url(#linear-gradient-15);}.cls-59{fill:#9ce3ee;}.cls-60{fill:#f1dbcb;}.cls-61{fill:#1db9d4;}.cls-62{fill:url(#linear-gradient-16);}</style><linearGradient id="linear-gradient" x1="34.72" y1="226.54" x2="34.72" y2="143.38" gradientUnits="userSpaceOnUse"><stop offset="0" stop-color="#2684ff"/><stop offset="1" stop-color="#0052cc"/></linearGradient><linearGradient id="linear-gradient-2" x1="70.19" y1="236.47" x2="448.95" y2="236.47" gradientUnits="userSpaceOnUse"><stop offset="0" stop-color="#091e42"/><stop offset="0.33" stop-color="#091e42" stop-opacity="0.65"/><stop offset="1" stop-color="#091e42" stop-opacity="0"/></linearGradient><clipPath id="clip-path"><path id="_Clipping_Path_" data-name="&lt;Clipping Path&gt;" class="cls-1" d="M271.73,170.3c-11.27,11.1-30.09,10.27-30.09,10.27s-.55-18.83,10.72-29.93,30.09-10.27,30.09-10.27S283,159.2,271.73,170.3Z"/></clipPath><linearGradient id="linear-gradient-3" x1="-7105.51" y1="272.41" x2="-7041.57" y2="272.41" gradientTransform="matrix(-1, 0, 0, 1, -7032.18, 0)" gradientUnits="userSpaceOnUse"><stop offset="0" stop-color="#091e42" stop-opacity="0"/><stop offset="0.67" stop-color="#091e42" stop-opacity="0.65"/><stop offset="1" stop-color="#091e42"/></linearGradient><linearGradient id="linear-gradient-4" x1="-7530.66" y1="235.65" x2="-7454" y2="235.65" xlink:href="#linear-gradient-3"/><linearGradient id="linear-gradient-5" x1="-7601.96" y1="272.41" x2="-7553.27" y2="272.41" xlink:href="#linear-gradient-3"/><clipPath id="clip-path-2"><path id="_Clipping_Path_2" data-name="&lt;Clipping Path&gt;" class="cls-2" d="M415.85,237.36c-.68-1.25-16.14-28.71-47.64-29.84a56.74,56.74,0,0,0-51.69,29.84,143.76,143.76,0,0,0,99.33,0Z"/></clipPath><linearGradient id="linear-gradient-6" x1="389.39" y1="267.98" x2="389.39" y2="197.08" gradientUnits="userSpaceOnUse"><stop offset="0.46" stop-color="#fff0b2"/><stop offset="1" stop-color="#ffc400"/></linearGradient><clipPath id="clip-path-3"><path id="_Clipping_Path_3" data-name="&lt;Clipping Path&gt;" class="cls-6" d="M292.47,237.06c-.68-1.25-16.14-28.71-47.64-29.84a56.74,56.74,0,0,0-51.69,29.84,143.76,143.76,0,0,0,99.33,0Z"/></clipPath><linearGradient id="linear-gradient-7" x1="271.23" y1="262.22" x2="271.23" y2="191.32" xlink:href="#linear-gradient-6"/><clipPath id="clip-path-4"><path id="_Clipping_Path_4" data-name="&lt;Clipping Path&gt;" class="cls-7" d="M175.52,236.79c-.68-1.25-16.14-28.71-47.64-29.84a56.74,56.74,0,0,0-51.69,29.84,143.76,143.76,0,0,0,99.33,0Z"/></clipPath><linearGradient id="linear-gradient-8" x1="151.78" y1="263.5" x2="151.78" y2="192.6" gradientUnits="userSpaceOnUse"><stop offset="0.28" stop-color="#fff0b2"/><stop offset="1" stop-color="#ffc400"/></linearGradient><clipPath id="clip-path-5"><path id="_Clipping_Path_5" data-name="&lt;Clipping Path&gt;" class="cls-8" d="M108.08,207.22c6.66,6.56,17.78,6.07,17.78,6.07s.33-11.12-6.33-17.68-17.78-6.07-17.78-6.07S101.42,200.67,108.08,207.22Z"/></clipPath><clipPath id="clip-path-6"><path id="_Clipping_Path_6" data-name="&lt;Clipping Path&gt;" class="cls-8" d="M143.64,207.22c-6.66,6.56-17.78,6.07-17.78,6.07s-.33-11.12,6.33-17.68S150,189.54,150,189.54,150.29,200.67,143.64,207.22Z"/></clipPath><clipPath id="clip-path-7"><path id="_Clipping_Path_7" data-name="&lt;Clipping Path&gt;" class="cls-8" d="M337.68,126.58c11.27,11.1,30.09,10.27,30.09,10.27s.55-18.83-10.72-29.93S327,96.65,327,96.65,326.41,115.48,337.68,126.58Z"/></clipPath><clipPath id="clip-path-8"><path id="_Clipping_Path_8" data-name="&lt;Clipping Path&gt;" class="cls-8" d="M336.24,209.95c11.27,11.1,30.09,10.27,30.09,10.27s.55-18.83-10.72-29.93S325.52,180,325.52,180,325,198.85,336.24,209.95Z"/></clipPath><clipPath id="clip-path-9"><path id="_Clipping_Path_9" data-name="&lt;Clipping Path&gt;" class="cls-8" d="M213.72,202.86c11.27,11.1,30.09,10.27,30.09,10.27s.55-18.83-10.72-29.93S203,172.92,203,172.92,202.45,191.75,213.72,202.86Z"/></clipPath><clipPath id="clip-path-10"><path id="_Clipping_Path_10" data-name="&lt;Clipping Path&gt;" class="cls-1" d="M395.17,167.57c-11.27,11.1-30.09,10.27-30.09,10.27s-.55-18.83,10.72-29.93,30.09-10.27,30.09-10.27S406.44,156.47,395.17,167.57Z"/></clipPath><linearGradient id="New_Gradient_Swatch_14" x1="441.58" y1="137.19" x2="475.97" y2="137.19" gradientUnits="userSpaceOnUse"><stop offset="0" stop-color="#0052cc"/><stop offset="1" stop-color="#2684ff"/></linearGradient><linearGradient id="linear-gradient-9" x1="443.16" y1="153.35" x2="443.16" y2="59.7" gradientUnits="userSpaceOnUse"><stop offset="0" stop-color="#c1c7d0"/><stop offset="1" stop-color="#f4f5f7"/></linearGradient><linearGradient id="linear-gradient-10" x1="14000.7" y1="164.14" x2="14012.43" y2="164.14" gradientTransform="matrix(-1, 0, 0, 1, 14498.57, 0)" gradientUnits="userSpaceOnUse"><stop offset="0" stop-color="#b5917c"/><stop offset="1" stop-color="#9c7761"/></linearGradient><linearGradient id="linear-gradient-11" x1="13998.68" y1="162.17" x2="14008.45" y2="162.17" xlink:href="#linear-gradient-10"/><clipPath id="clip-path-11"><path id="_Clipping_Path_11" data-name="&lt;Clipping Path&gt;" class="cls-3" d="M21.17,248.79a147.62,147.62,0,0,1-.5-21.92c.34-5.65.29-11.32.72-17a28.18,28.18,0,0,0,0-3c0-.33,0-.67-.09-1.2-.33-3.5-1.83-18.42-.68-23.7a43.56,43.56,0,0,1,1.87-6.28,16.05,16.05,0,0,1,1.91-4,17.79,17.79,0,0,0,1.84.63c.69.2,1.24.29,1.52.36,1.64.38,4.78,1,13.28,2.38a25,25,0,0,1,1.42,2.39A26.92,26.92,0,0,1,45.22,186c3.83,24.38,4.23,33.82,4.23,33.82h0c.55,3.72,1,7.76,1.21,12.09a131.15,131.15,0,0,1-.23,17.47l-6.92,1.49q-.1-.63-.19-1.27a115.3,115.3,0,0,1-1.19-16.23A160.84,160.84,0,0,0,38,216.12c-2.22-7.45-4.3-14.43-5.8-14.24-2.08.26-1.68,12.66-2.68,29.61-.38,6.39-.89,12.29-1.46,17.61Z"/></clipPath><linearGradient id="linear-gradient-12" x1="33.53" y1="143.83" x2="33.53" y2="139.95" gradientUnits="userSpaceOnUse"><stop offset="0" stop-color="#f1dbcb"/><stop offset="1" stop-color="#efc7b0"/></linearGradient><linearGradient id="linear-gradient-13" x1="40.05" y1="133.81" x2="54.02" y2="133.81" gradientTransform="matrix(-1, 0, 0, 1, 82.72, 0)" gradientUnits="userSpaceOnUse"><stop offset="0.77" stop-color="#f1dbcb"/><stop offset="1" stop-color="#efc7b0"/></linearGradient><clipPath id="clip-path-12"><path id="_Clipping_Path_12" data-name="&lt;Clipping Path&gt;" class="cls-4" d="M43.93,153.55c.54,4.43-1,8.11-1.28,16.06a31.84,31.84,0,0,0,1.56,10.73c2.06,7.39,5,20.94,8.87,40a1.55,1.55,0,0,1-2.78,1.13,3,3,0,0,1-1.14,2.29,3.2,3.2,0,0,1-4.07-.71,6,6,0,0,1-2.94,2.25,6.34,6.34,0,0,1-5.35-.81,4.65,4.65,0,0,1-3.79,2,4.53,4.53,0,0,1-3.35-1.76,3.9,3.9,0,0,1-2.89,1,4,4,0,0,1-3-1.94A4.21,4.21,0,0,1,20,225.11a4.19,4.19,0,0,1-2.92-2.46A341.27,341.27,0,0,1,20.71,181s2.17-10,.49-18A48.87,48.87,0,0,0,19,155.65a44.19,44.19,0,0,0-2.6-5.31,35.2,35.2,0,0,1,9.12-4.55c1.34-.15,2.34-.14,3.23-.86a3.55,3.55,0,0,0,1-1.51l7.52,0a4,4,0,0,0,1.07,1.93c1.32,1.28,2.8.66,4.06,2a4.86,4.86,0,0,1,1.15,2.53c.11.65.07,1.13.26,2.79C43.86,153.05,43.91,153.39,43.93,153.55Z"/></clipPath><linearGradient id="linear-gradient-15" x1="-325.4" y1="1646.11" x2="-318.3" y2="1646.11" gradientTransform="matrix(-0.83, -0.56, -0.56, 0.83, 742.68, -1383)" gradientUnits="userSpaceOnUse"><stop offset="0.38" stop-color="#f1dbcb"/><stop offset="1" stop-color="#efc7b0"/></linearGradient><linearGradient id="linear-gradient-16" x1="56.95" y1="186.05" x2="66.61" y2="186.05" gradientTransform="matrix(-1, 0, 0, 1, 82.72, 0)" xlink:href="#linear-gradient-15"/></defs><title>Growing</title><g class="cls-9"><g id="Layer_2" data-name="Layer 2"><g id="Layer_1-2" data-name="Layer 1"><path class="cls-10" d="M381.59,223.29c-26.21,0-48.9,2.93-60,7.21-11.13-4.28-33.83-7.21-60-7.21-27.83,0-51.72,3.3-62,8-10.27-4.71-34.15-8-62-8-37.2,0-67.36,5.9-67.36,13.18s30.16,13.18,67.36,13.18c27.83,0,51.72-3.3,62-8,10.27,4.71,34.15,8,62,8,26.21,0,48.9-2.93,60-7.21,11.13,4.28,33.83,7.21,60,7.21,37.2,0,67.36-5.9,67.36-13.18S418.79,223.29,381.59,223.29Z"/><path id="_Clipping_Path_13" data-name="&lt;Clipping Path&gt;" class="cls-1" d="M271.73,170.3c-11.27,11.1-30.09,10.27-30.09,10.27s-.55-18.83,10.72-29.93,30.09-10.27,30.09-10.27S283,159.2,271.73,170.3Z"/><g class="cls-11"><line class="cls-12" x1="282.45" y1="140.37" x2="241.64" y2="180.57"/></g><ellipse class="cls-13" cx="41.36" cy="272.41" rx="31.97" ry="8"/><ellipse class="cls-14" cx="460.14" cy="235.65" rx="38.33" ry="9.59"/><ellipse class="cls-15" cx="545.43" cy="272.41" rx="24.35" ry="6.09"/><line class="cls-16" x1="477.53" y1="194.59" x2="479.8" y2="235.2"/><line class="cls-16" x1="432.33" y1="194.59" x2="430.06" y2="235.2"/><line class="cls-16" x1="454.82" y1="197.28" x2="454.82" y2="241.54"/><ellipse class="cls-17" cx="454.82" cy="193.6" rx="27.69" ry="6.24"/><ellipse class="cls-17" cx="454.82" cy="193.53" rx="27.69" ry="6.24"/><ellipse class="cls-17" cx="454.82" cy="193.47" rx="27.69" ry="6.24"/><ellipse class="cls-17" cx="454.82" cy="193.4" rx="27.69" ry="6.24"/><ellipse class="cls-17" cx="454.82" cy="193.33" rx="27.69" ry="6.24"/><ellipse class="cls-17" cx="454.82" cy="193.26" rx="27.69" ry="6.24"/><ellipse class="cls-17" cx="454.82" cy="193.19" rx="27.69" ry="6.24"/><ellipse class="cls-17" cx="454.82" cy="193.13" rx="27.69" ry="6.24"/><ellipse class="cls-17" cx="454.82" cy="193.06" rx="27.69" ry="6.24"/><ellipse class="cls-17" cx="454.82" cy="192.99" rx="27.69" ry="6.24"/><ellipse class="cls-17" cx="454.82" cy="192.92" rx="27.69" ry="6.24"/><ellipse class="cls-17" cx="454.82" cy="192.85" rx="27.69" ry="6.24"/><ellipse class="cls-17" cx="454.82" cy="192.79" rx="27.69" ry="6.24"/><ellipse class="cls-17" cx="454.82" cy="192.72" rx="27.69" ry="6.24"/><ellipse class="cls-17" cx="454.82" cy="192.65" rx="27.69" ry="6.24"/><ellipse class="cls-17" cx="454.82" cy="192.58" rx="27.69" ry="6.24"/><ellipse class="cls-17" cx="454.82" cy="192.52" rx="27.69" ry="6.24"/><ellipse class="cls-17" cx="454.82" cy="192.45" rx="27.69" ry="6.24"/><ellipse class="cls-17" cx="454.82" cy="192.38" rx="27.69" ry="6.24"/><ellipse class="cls-17" cx="454.82" cy="192.31" rx="27.69" ry="6.24"/><ellipse class="cls-17" cx="454.82" cy="192.24" rx="27.69" ry="6.24"/><ellipse class="cls-17" cx="454.82" cy="192.18" rx="27.69" ry="6.24"/><ellipse class="cls-17" cx="454.82" cy="192.11" rx="27.69" ry="6.24"/><ellipse class="cls-17" cx="454.82" cy="192.04" rx="27.69" ry="6.24"/><ellipse class="cls-17" cx="454.82" cy="191.97" rx="27.69" ry="6.24"/><ellipse class="cls-17" cx="454.82" cy="191.9" rx="27.69" ry="6.24"/><ellipse class="cls-17" cx="454.82" cy="191.84" rx="27.69" ry="6.24"/><ellipse class="cls-17" cx="454.82" cy="191.77" rx="27.69" ry="6.24"/><ellipse class="cls-17" cx="454.82" cy="191.7" rx="27.69" ry="6.24"/><ellipse class="cls-17" cx="454.82" cy="191.63" rx="27.69" ry="6.24"/><ellipse class="cls-17" cx="454.82" cy="191.56" rx="27.69" ry="6.24"/><ellipse class="cls-17" cx="454.82" cy="191.5" rx="27.69" ry="6.24"/><ellipse class="cls-17" cx="454.82" cy="191.43" rx="27.69" ry="6.24"/><ellipse class="cls-17" cx="454.82" cy="191.36" rx="27.69" ry="6.24"/><ellipse class="cls-17" cx="454.82" cy="191.29" rx="27.69" ry="6.24"/><ellipse class="cls-17" cx="454.82" cy="191.23" rx="27.69" ry="6.24"/><ellipse class="cls-17" cx="454.82" cy="191.16" rx="27.69" ry="6.24"/><ellipse class="cls-17" cx="454.82" cy="191.09" rx="27.69" ry="6.24"/><ellipse class="cls-17" cx="454.82" cy="191.02" rx="27.69" ry="6.24"/><ellipse class="cls-17" cx="454.82" cy="190.95" rx="27.69" ry="6.24"/><ellipse class="cls-17" cx="454.82" cy="190.89" rx="27.69" ry="6.24"/><ellipse class="cls-17" cx="454.82" cy="190.82" rx="27.69" ry="6.24"/><ellipse class="cls-17" cx="454.82" cy="190.75" rx="27.69" ry="6.24"/><ellipse class="cls-17" cx="454.82" cy="190.68" rx="27.69" ry="6.24"/><ellipse class="cls-17" cx="454.82" cy="190.61" rx="27.69" ry="6.24"/><ellipse class="cls-17" cx="454.82" cy="190.55" rx="27.69" ry="6.24"/><ellipse class="cls-17" cx="454.82" cy="190.48" rx="27.69" ry="6.24"/><ellipse class="cls-17" cx="454.82" cy="190.41" rx="27.69" ry="6.24"/><ellipse class="cls-17" cx="454.82" cy="190.34" rx="27.69" ry="6.24"/><ellipse class="cls-17" cx="454.82" cy="190.28" rx="27.69" ry="6.24"/><ellipse class="cls-17" cx="454.82" cy="190.21" rx="27.69" ry="6.24"/><ellipse class="cls-17" cx="454.82" cy="190.14" rx="27.69" ry="6.24"/><ellipse class="cls-17" cx="454.82" cy="190.07" rx="27.69" ry="6.24"/><ellipse class="cls-17" cx="454.82" cy="190" rx="27.69" ry="6.24"/><ellipse class="cls-17" cx="454.82" cy="189.94" rx="27.69" ry="6.24"/><ellipse class="cls-17" cx="454.82" cy="189.87" rx="27.69" ry="6.24"/><ellipse class="cls-17" cx="454.82" cy="189.8" rx="27.69" ry="6.24"/><ellipse class="cls-17" cx="454.82" cy="189.73" rx="27.69" ry="6.24"/><ellipse class="cls-17" cx="454.82" cy="189.66" rx="27.69" ry="6.24"/><ellipse class="cls-17" cx="454.82" cy="189.6" rx="27.69" ry="6.24"/><ellipse class="cls-17" cx="454.82" cy="189.53" rx="27.69" ry="6.24"/><ellipse class="cls-18" cx="454.82" cy="189.53" rx="27.69" ry="6.24"/><path id="_Clipping_Path_14" data-name="&lt;Clipping Path&gt;" class="cls-2" d="M415.85,237.36c-.68-1.25-16.14-28.71-47.64-29.84a56.74,56.74,0,0,0-51.69,29.84,143.76,143.76,0,0,0,99.33,0Z"/><g class="cls-19"><path class="cls-20" d="M361.77,259c-2-6.89,10.72-10.67,13-22.55,3-16-16.82-26.1-13-33.41,4.46-8.43,38.57-9.53,50.93,7.1,13.76,18.51-4.19,52.6-25.46,57.21C377,269.6,363.66,265.46,361.77,259Z"/></g><path id="_Clipping_Path_15" data-name="&lt;Clipping Path&gt;" class="cls-6" d="M292.47,237.06c-.68-1.25-16.14-28.71-47.64-29.84a56.74,56.74,0,0,0-51.69,29.84,143.76,143.76,0,0,0,99.33,0Z"/><g class="cls-21"><path class="cls-22" d="M243.61,253.26c-2-6.89,10.72-10.67,13-22.55,3-16-16.82-26.1-13-33.41,4.46-8.43,38.57-9.53,50.93,7.1,13.76,18.51-4.19,52.6-25.46,57.21C258.81,263.84,245.5,259.7,243.61,253.26Z"/></g><path id="_Clipping_Path_16" data-name="&lt;Clipping Path&gt;" class="cls-7" d="M175.52,236.79c-.68-1.25-16.14-28.71-47.64-29.84a56.74,56.74,0,0,0-51.69,29.84,143.76,143.76,0,0,0,99.33,0Z"/><g class="cls-23"><path class="cls-24" d="M124.16,254.54c-2-6.89,10.72-10.67,13-22.55,3-16-16.82-26.1-13-33.41,4.46-8.43,38.57-9.53,50.93,7.1,13.76,18.51-4.19,52.6-25.46,57.21C139.36,265.12,126,261,124.16,254.54Z"/></g><line class="cls-12" x1="366.18" y1="218.53" x2="366.18" y2="72.88"/><line class="cls-12" x1="242.8" y1="210.48" x2="242.8" y2="101.98"/><circle class="cls-12" cx="125.86" cy="174.03" r="9.79"/><line class="cls-12" x1="125.88" y1="210.62" x2="125.88" y2="185.3"/><path id="_Clipping_Path_17" data-name="&lt;Clipping Path&gt;" class="cls-8" d="M108.08,207.22c6.66,6.56,17.78,6.07,17.78,6.07s.33-11.12-6.33-17.68-17.78-6.07-17.78-6.07S101.42,200.67,108.08,207.22Z"/><g class="cls-25"><line class="cls-12" x1="101.75" y1="189.54" x2="125.85" y2="213.29"/></g><path id="_Clipping_Path_18" data-name="&lt;Clipping Path&gt;" class="cls-8" d="M143.64,207.22c-6.66,6.56-17.78,6.07-17.78,6.07s-.33-11.12,6.33-17.68S150,189.54,150,189.54,150.29,200.67,143.64,207.22Z"/><g class="cls-26"><line class="cls-12" x1="149.97" y1="189.54" x2="125.85" y2="213.29"/></g><path class="cls-6" d="M384.15,74.19c.74-.5,1.47-1,2.17-1.58l9.15,11.53c-1,.8-2.07,1.58-3.15,2.29Zm-47.33,9.88L346,72.57c.7.56,1.42,1.09,2.16,1.58L340,86.38C338.89,85.66,337.83,84.89,336.82,84.08ZM320.72,59.79l14.18-3.94c.24.85.52,1.71.83,2.55l-13.8,5.11C321.48,62.29,321.07,61,320.72,59.79Zm75.9-23.89,13.79-5.13c.45,1.21.86,2.46,1.21,3.71l-14.17,4C397.21,37.59,396.93,36.74,396.62,35.9Zm-75.85-1.52c.35-1.25.76-2.49,1.21-3.71l13.78,5.15c-.31.83-.59,1.69-.83,2.54Zm63.4-14.22,8.17-12.24c1.07.72,2.13,1.49,3.15,2.3l-9.16,11.52C385.63,21.19,384.91,20.66,384.17,20.16ZM337,10.16c1-.8,2.07-1.57,3.15-2.29l8.15,12.25c-.74.49-1.47,1-2.17,1.58Zm30.52,4.58q-1.31-.05-2.61,0L364.29,0q1.89-.07,3.81,0h.13L367.89,7l-.23,7.8Zm.39-7.35v0Z"/><circle class="cls-12" cx="366.18" cy="47.17" r="25.71"/><path class="cls-27" d="M366.18,66.48a19.31,19.31,0,1,0-19.31-19.31A19.33,19.33,0,0,0,366.18,66.48Z"/><circle class="cls-12" cx="210.76" cy="138.41" r="9.79"/><circle class="cls-12" cx="242.8" cy="92" r="9.79"/><path class="cls-12" d="M210.76,148.2a16.17,16.17,0,0,0,16.17,16.17"/><path class="cls-12" d="M243.11,180.55a16.17,16.17,0,0,0-16.17-16.17"/><path class="cls-12" d="M366.16,141a16.17,16.17,0,0,1,16.17-16.17"/><path class="cls-12" d="M398.51,108.66a16.17,16.17,0,0,1-16.17,16.17"/><circle class="cls-12" cx="398.51" cy="98.88" r="9.79"/><path id="_Clipping_Path_19" data-name="&lt;Clipping Path&gt;" class="cls-8" d="M337.68,126.58c11.27,11.1,30.09,10.27,30.09,10.27s.55-18.83-10.72-29.93S327,96.65,327,96.65,326.41,115.48,337.68,126.58Z"/><g class="cls-28"><line class="cls-12" x1="325.65" y1="95.26" x2="373.38" y2="142.4"/></g><path id="_Clipping_Path_20" data-name="&lt;Clipping Path&gt;" class="cls-8" d="M336.24,209.95c11.27,11.1,30.09,10.27,30.09,10.27s.55-18.83-10.72-29.93S325.52,180,325.52,180,325,198.85,336.24,209.95Z"/><g class="cls-29"><line class="cls-12" x1="324.21" y1="178.63" x2="371.94" y2="225.77"/></g><path id="_Clipping_Path_21" data-name="&lt;Clipping Path&gt;" class="cls-8" d="M213.72,202.86c11.27,11.1,30.09,10.27,30.09,10.27s.55-18.83-10.72-29.93S203,172.92,203,172.92,202.45,191.75,213.72,202.86Z"/><g class="cls-30"><line class="cls-12" x1="201.69" y1="171.53" x2="249.42" y2="218.67"/></g><path id="_Clipping_Path_22" data-name="&lt;Clipping Path&gt;" class="cls-1" d="M395.17,167.57c-11.27,11.1-30.09,10.27-30.09,10.27s-.55-18.83,10.72-29.93,30.09-10.27,30.09-10.27S406.44,156.47,395.17,167.57Z"/><g class="cls-31"><line class="cls-32" x1="405.89" y1="137.64" x2="365.08" y2="177.84"/></g><path class="cls-27" d="M121.22,183.51"/><path class="cls-33" d="M486.33,118c-.55-.66-2-.21-2.79.27a3.77,3.77,0,0,0-1.73,2.38c-.26,1.31.48,1.68.52,3.54s-.64,2.88-.31,3.1,1-.42,1.53-1.12c.9-1.3.29-2.1,1.06-3.63.61-1.23,1.23-1.16,1.67-2.49C486.43,119.57,486.78,118.54,486.33,118Z"/><path class="cls-33" d="M482.12,121.53s2.93,4.29,2.79,5.65-.79,2.1-.34,2.44,1.49-1.42,1.85-1.44.55.39,1-.08a5,5,0,0,0,1.19-1.68,12.56,12.56,0,0,0-.18-5.23c-.52-1.13-1.46-3.53-2.62-4.14s-3.42,3.41-3.42,3.41Z"/><path class="cls-33" d="M411,62.62c.09.85-1.23,1.58-2.13,1.81A3.77,3.77,0,0,1,406,64c-1.12-.72-.87-1.52-2.17-2.84s-2.51-1.54-2.44-1.93,1-.46,1.86-.32c1.56.26,1.71,1.25,3.34,1.77,1.31.41,1.68-.08,2.95.54C410,61.46,411,61.93,411,62.62Z"/><path class="cls-33" d="M405.57,63.19s-1-5.09-2.12-5.94-2.06-.89-2-1.45,2.06-.08,2.32-.33.1-.67.73-.63a5,5,0,0,1,2,.31,12.56,12.56,0,0,1,3.64,3.77c.45,1.16,1.52,3.5,1.15,4.76s-4.82.08-4.82.08Z"/><path class="cls-33" d="M456.5,65.86c-.24.83.58,1.43.63,3.32a7.3,7.3,0,0,1-.63,3.1c5,1.92,9.24,2.08,10.33.36.46-.73.42-1.88.36-3.33-.06-1.62-.11-2.94-.79-3.9C464.37,62.56,457.14,63.65,456.5,65.86Z"/><path class="cls-34" d="M487.35,117.7l-6.76,2.86q-1-6.39-1.94-13-.58-4.24-1.1-8.39l-9.87-18.44,8.41-5.52a54.09,54.09,0,0,1,8.38,18.88c.86,3.89,1.4,8.65,1.92,13.25C486.89,111.61,487.17,115.19,487.35,117.7Z"/><path id="_Clipping_Path_23" data-name="&lt;Clipping Path&gt;" class="cls-35" d="M472.73,103.75a14.75,14.75,0,0,0-.82-1.82,16.59,16.59,0,0,0-1.29-2c-.45.09-1.17.22-2.09.32s-1.41.1-1.74.12c-1.89.12-5.53.27-15.63.33a19,19,0,0,0-1.68,2.06,18.48,18.48,0,0,0-3.11,7.56c-4,21.72-4.17,29.94-4.17,29.94s-.49,15.14-.62,31.58a4.37,4.37,0,0,0,1,1.46,4.88,4.88,0,0,0,3.47,1.26,5.57,5.57,0,0,0,3.27-1.12,40.32,40.32,0,0,0,3.68-9,37,37,0,0,0,1.31-9.38,36.57,36.57,0,0,0-1-9,77.29,77.29,0,0,1,10.24-20.76q.55,12.41,1.43,25.3.65,9.36,1.45,18.44a7,7,0,0,0,7.7.21,49,49,0,0,0,.74-16.09,48.42,48.42,0,0,0-1.68-8.07c.61-2.53,1.17-5.28,1.63-8.21.41-2.62.71-5.11.91-7.45,0,0,1.07-12.46-.94-19.84C474.31,108,473.19,105,472.73,103.75Z"/><path class="cls-36" d="M441.58,170.14a10.62,10.62,0,0,0,4.61,2,12.35,12.35,0,0,0,4.18,0c-.6,3.3-1.24,5.95-1.71,7.76-1,3.87-1.93,6.56-1.91,10.59,0,.87.05,1.58.09,2l-4.49.37-.81-.62-1.13.76-11.41,1c-.71.06-1.27-.47-1.1-1h0l4.44-1.58c4.62-1.64,7.77-5.31,8.06-9.41.2-2.74.44-5.77.69-7.94Q441.33,172.1,441.58,170.14Z"/><path id="_Clipping_Path_24" data-name="&lt;Clipping Path&gt;" class="cls-37" d="M476.09,75.19a34.56,34.56,0,0,0-5.33-2.67,29.23,29.23,0,0,0-2.9-1c-6-1.7-20.45-.7-26.21-.39-2.59.14-6.54.29-11.43.22q-5.07-2.74-10.37-5.89-4.86-2.89-9.33-5.77l-4.13,4.95a73.44,73.44,0,0,0,22.07,16.18,66.77,66.77,0,0,0,19.9,3,12.75,12.75,0,0,0-.8,3.46,13.27,13.27,0,0,0,1.37,7q-1.76,7-3.52,14.11-4.89,19.67-9.67,39.26a47.89,47.89,0,0,0,44.18.53c-2.08-19.23-3.89-33.51-5.69-43.62a57.61,57.61,0,0,1-.61-19.3A54.49,54.49,0,0,1,476.09,75.19Z"/><path class="cls-33" d="M459,52.35a22.41,22.41,0,0,0-3.67,5.75c-.1.26-.12.39-.65.67s-1.25.4-1.11.8.93.92,1,1.26l-.63,4.6a1.18,1.18,0,0,0,.74,1.26l1.35.53,7.5,2.93c-.09-.3-2.83-7.78-2.81-8.21s.11-1.32-.39-1.55-1.29-4.6-1.52-5.18a2.2,2.2,0,0,1,0-1.55C458.89,52.85,459,52.35,459,52.35Z"/><path class="cls-38" d="M471.51,66.55c-.84.87-2.75,2.83-5.54,2.73-3.08-.1-6-2.66-6.11-4.9,0-1,.48-1.69.24-3.45-.11-.85-.42-2.05-.88-2.09S458.41,60,458.09,60s-.3-1.4-.3-2.17c0-3.38-.71-3.56-.43-4.9.54-2.56,3.35-3.93,3.7-4.1,3.48-1.64,7.05.25,7.63.56,4.27,2.27,6.22,7.58,5.46,11.89A10.1,10.1,0,0,1,471.51,66.55Z"/><path class="cls-38" d="M478.21,59A5.65,5.65,0,0,1,474,61.06c-2.32-.08-4.51-2-4.59-3.68a12.08,12.08,0,0,0,.18-2.6c-.09-.64-.32-1.54-.66-1.57s-.61.89-.84.84-.22-1.05-.22-1.63c0-2.54-.53-2.67-.32-3.68a5.1,5.1,0,0,1,2.78-3.08,6.64,6.64,0,0,1,5.73.42A8.68,8.68,0,0,1,480.2,55,7.59,7.59,0,0,1,478.21,59Z"/><path class="cls-34" d="M443.17,131.11h10.66a0,0,0,0,1,0,0v6.17a5.33,5.33,0,0,1-5.33,5.33h0a5.33,5.33,0,0,1-5.33-5.33v-6.17a0,0,0,0,1,0,0Z" transform="translate(33.7 -81.82) rotate(10.83)"/><path class="cls-36" d="M466.17,169a42.87,42.87,0,0,1,.58,5.76c.15,4.39-.5,5.61-1.14,6.32a6.41,6.41,0,0,1-1.49,1.17,6.6,6.6,0,0,1-3,.85v.72c.61.33,1.48.78,2.55,1.25s1,.36,2.78,1.09a10.49,10.49,0,0,0,3,1,5.55,5.55,0,0,0,2-.21l2.94-18Z"/><path class="cls-36" d="M551.29,264.93l.2,5.19a18.65,18.65,0,0,0-3.65.05c-3.32.38-4.75,1.47-8.28,2a22.26,22.26,0,0,1-3.29.24l-1.83-1.47a17.71,17.71,0,0,0,2.61-.87,18.8,18.8,0,0,0,7.27-5.56Z"/><path class="cls-39" d="M550.25,190.15l-.19,30.44.82,44.63-8,.23-4-39-4.61-35.88Z"/><path class="cls-40" d="M497.38,167.21l-2.49-.3a18.46,18.46,0,0,1-7-2.34q-1.81-1-1.69-1.36t1-.29c-.6-.19-1-.53-1-.78s.61-.56,1.44-.48a.46.46,0,0,1-.07-.41c.21-.36,1.5,0,2,.17,1.28.37,3.11.85,5.86,1.46l2.47,1.43Z"/><path class="cls-41" d="M540.06,151c-.3,3.47,2.09,6.37,4.82,6.74,3.13.42,6.6-2.5,6.48-6.56a29.75,29.75,0,0,1,0-8.83L540,144.5c1.6,2.68,2,5.13,1,6.07A1.7,1.7,0,0,1,540.06,151Z"/><path class="cls-36" d="M551.12,142.56l1.89-1.69a4.68,4.68,0,0,0,1.51-2.92l.11-.89a30,30,0,0,0,.08-6.53,3.76,3.76,0,0,0-2.19-3.1l-.33-.15a18.71,18.71,0,0,0-7.54-1.59h-5.06a2.39,2.39,0,0,0-2.56-.83c-1.11.48-1.19,2.2-.83,3.25a3.39,3.39,0,0,0,1.75,1.87l5,9Z"/><path class="cls-42" d="M538.87,129.7c-.25,1-.48,2-.66,3.15a32.51,32.51,0,0,0-.39,4.31c-.09.23-.25.63-.49,1.11-.73,1.47-1.54,2.37-1.28,2.69,0,0,1.05.35,1.23.48.38.27.43,3.53,1.23,4.79,1.61,2.56,9.85,2.41,12.16-1.84a5.86,5.86,0,0,0,.61-3.34,3.32,3.32,0,0,1-.45-.14,3.76,3.76,0,0,1-1.88-1.63c-.78-1.45.2-2.77-.54-3.31a1.13,1.13,0,0,0-1.12,0c-1,.52-.95,2.78-.95,2.78h0l-1.56-.24c-.33-3.94-1.4-5.32-2.38-5.81a7.8,7.8,0,0,1-2-1.13A6.87,6.87,0,0,1,538.87,129.7Z"/><path class="cls-42" d="M517.75,171l-19.83-9.56-.65,5.72a47.5,47.5,0,0,1,5.16,2.64c4.13,2.44,5.19,3.9,8.71,5.83,3.36,1.84,5,2.75,7.12,2.75,0,0,2.81,0,11.86-6.7h0l-4.64-7.12C523.55,166.29,519.08,170.87,517.75,171Z"/><path class="cls-43" d="M559.53,190.42l-1.07,30.42L558,265.49h-8L545.3,222l-1.81-31.6Z"/><path class="cls-34" d="M525.31,176.3c.61.06,1.3-.13,3.57-2a44.43,44.43,0,0,0,5.75-5.64l-.42-15.78c-1.43,1.79-2.63,3.2-3.43,4.11-3.07,3.53-6.75,7.56-6.75,7.56-2.17,2.37-2.45,2.64-2.68,3.41C520.31,171.36,522.72,176,525.31,176.3Z"/><path id="_Clipping_Path_25" data-name="&lt;Clipping Path&gt;" class="cls-44" d="M537.31,151.74c1.31-.42,2.42-.73,3.24-.95l0,0,0,0a7.6,7.6,0,0,0,5.56,2,8.48,8.48,0,0,0,5.13-2.22,25.18,25.18,0,0,1,8.34,1,4.23,4.23,0,0,1,1.17.47c3.22,2.12.93,10.43.28,12.65-.81,11.73-.88,16.33-.7,18a7.49,7.49,0,0,1-.12,3.42,11.74,11.74,0,0,0-.73,2.35,6.71,6.71,0,0,0,0,1.92H535.48a2.31,2.31,0,0,0,0-1.25,2.29,2.29,0,0,0-.68-1c-1.94-1.78-2-8.58-2-8.58,0-5.27.48-17.88.16-22.57a4.87,4.87,0,0,1,.86-3.67C534.16,152.91,534.66,152.59,537.31,151.74Z"/><path class="cls-45" d="M566.44,220H550.36l1-69.8c1.34.15,3.28.41,5.6.86,4.86.95,5.8,1.65,6.2,2,2.13,1.87,2.15,5.07,2.17,6.43C565.68,182.85,566.06,196.62,566.44,220Z"/><path class="cls-5" d="M557,177.63c-.23-2.34-.52-5.3-.81-8.74-.58-6.76-.73-9.73.63-13.11s2.69-3.81,3-3.89c2-.41,3.87,1.86,4,2,0,0,1.36,1.68,1.75,5.55,0,.48.11,1.15.11,1.15.14,1.53.2,2.49.27,3.46.2,2.81.43,5.17.68,9.32.14,2.42.13,2.82-.19,3.33-1.5,2.36-6.54,1.64-7,1.57A11.5,11.5,0,0,1,557,177.63Z"/><path class="cls-46" d="M521.34,168c.23-.76.51-1,2.68-3.41l1.19-1.31a14.18,14.18,0,0,0-.15,1.49,11.93,11.93,0,0,0,4.14,9.3l-.31.26c-2.27,1.85-3,2-3.57,2C522.72,176,520.31,171.36,521.34,168Z"/><path class="cls-45" d="M540.55,220h-7.78V155.84a3.84,3.84,0,0,1,2.84-3.7l4.94-1.34Z"/><path class="cls-36" d="M557.76,265.49l.52,5.17a18.65,18.65,0,0,0-3.64.27c-3.29.58-4.65,1.76-8.15,2.49a22.26,22.26,0,0,1-3.27.44l-1.92-1.36a17.71,17.71,0,0,0,2.55-1,18.8,18.8,0,0,0,6.92-6Z"/><rect class="cls-36" x="530.23" y="172.02" width="17.14" height="20.77" transform="translate(-25.33 109.39) rotate(-11.33)"/><path class="cls-42" d="M538.21,183l1.41,4.22a97.76,97.76,0,0,1,9.71-2.27c4.52-.81,7.44-1,12.12-2.38l.06,0a4.42,4.42,0,0,0,2.75-6l-1.16-2.59Z"/><path class="cls-42" d="M541.38,186.62l-2.78,1a8.09,8.09,0,0,1-5.42.91c-.66-.14-2.25-.38-2.46-1.24a1,1,0,0,1,.08-.63,1.65,1.65,0,0,1-.85-1.84,1.1,1.1,0,0,1,.54-.55c-.78-.7-1.12-1.53-.86-2a.79.79,0,0,1,.64-.45c.3,0,.44.33.86.73a3.79,3.79,0,0,0,.94.65l2.25-.84a2.27,2.27,0,0,1-.88.11,1.92,1.92,0,0,1-1-.31,1.85,1.85,0,0,1-.67-.85c1.87-.2,3.33-.37,4.27-.49a6,6,0,0,1,3,0,4.21,4.21,0,0,1,2.15,1.64A4.65,4.65,0,0,1,541.38,186.62Z"/><path class="cls-46" d="M562.29,173.72a11.68,11.68,0,0,0,4.31-1.14c0,.45.05.92.08,1.42.12,2.42.12,2.82-.17,3.33-1.32,2.36-5.61,1.67-6.14,1.57a9.64,9.64,0,0,1-3.5-1.38c-.12-1.37-.25-3-.39-4.93A11.79,11.79,0,0,0,562.29,173.72Z"/><path class="cls-47" d="M498.67,161.63l-1-.59a7.52,7.52,0,0,0-3-.94l-4.52-.45h0a1.7,1.7,0,0,0,1.32,1.91l1.73.39,2.17,1.85a3.76,3.76,0,0,0,4.51.28h0A2.4,2.4,0,0,0,498.67,161.63Z"/><path class="cls-34" d="M558.4,203.76h9.12a0,0,0,0,1,0,0V209a4.56,4.56,0,0,1-4.56,4.56h0A4.56,4.56,0,0,1,558.4,209v-5.28A0,0,0,0,1,558.4,203.76Z"/><path class="cls-36" d="M35.54,123.79c1.9-.79,5.52,1.81,7.29,4.4a12.1,12.1,0,0,1,1.94,5.41,13.37,13.37,0,0,1-.19,4.41,3.34,3.34,0,0,1,.23,4.69c-.31.34-1,1-4.73,1.1l-.69,0a4.79,4.79,0,0,1-4.82-4.08C32.75,127.68,34,124.44,35.54,123.79Z"/><path class="cls-48" d="M21.57,266.31c-.76,1-.57,1.89-.31,6.2.19,3.08.17,3.94.85,4.32s2-.14,2.56-.56c.92-.67,1.21-1.63,1.81-3.55a15.49,15.49,0,0,0,.63-3.28c0-.41,0-.76.06-1.08a3.43,3.43,0,0,0-.82-2.72,3.17,3.17,0,0,0-2.44-.73A3.6,3.6,0,0,0,21.57,266.31Z"/><path class="cls-48" d="M56.44,273.08a.79.79,0,0,0,.38-1,3.72,3.72,0,0,0-.51-.89,3.45,3.45,0,0,0-.4-.43c-2.28-2.1-4-3.18-5.88-5a3.66,3.66,0,0,0-1.53-1.12,2.84,2.84,0,0,0-2.66.51,3.47,3.47,0,0,0-.88,2.63,6.69,6.69,0,0,0,.55,3l1.78.92.44-.28c.54.28,1.31.66,2.25,1.11a15.87,15.87,0,0,0,2.86,1.19A5.39,5.39,0,0,0,56.44,273.08Z"/><path class="cls-49" d="M28.07,249.1c-.67,6-1.25,12.48-1.92,16.67a2.05,2.05,0,0,1-1,1.45h0a3.52,3.52,0,0,1-.91.45,2.4,2.4,0,0,1-1.88-.3A2.08,2.08,0,0,1,22,267q-.27-5-.49-10.18-.17-4.06-.3-8.06Z"/><path id="_Clipping_Path_26" data-name="&lt;Clipping Path&gt;" class="cls-3" d="M21.17,248.79a147.62,147.62,0,0,1-.5-21.92c.34-5.65.29-11.32.72-17a28.18,28.18,0,0,0,0-3c0-.33,0-.67-.09-1.2-.33-3.5-1.83-18.42-.68-23.7a43.56,43.56,0,0,1,1.87-6.28,16.05,16.05,0,0,1,1.91-4,17.79,17.79,0,0,0,1.84.63c.69.2,1.24.29,1.52.36,1.64.38,4.78,1,13.28,2.38a25,25,0,0,1,1.42,2.39A26.92,26.92,0,0,1,45.22,186c3.83,24.38,4.23,33.82,4.23,33.82h0c.55,3.72,1,7.76,1.21,12.09a131.15,131.15,0,0,1-.23,17.47l-6.92,1.49q-.1-.63-.19-1.27a115.3,115.3,0,0,1-1.19-16.23A160.84,160.84,0,0,0,38,216.12c-2.22-7.45-4.3-14.43-5.8-14.24-2.08.26-1.68,12.66-2.68,29.61-.38,6.39-.89,12.29-1.46,17.61Z"/><g class="cls-50"><ellipse class="cls-51" cx="44.95" cy="220.77" rx="7.43" ry="7.45"/><ellipse class="cls-51" cx="25.37" cy="223.43" rx="7.43" ry="7.45"/></g><rect class="cls-52" x="29.78" y="139.95" width="7.49" height="3.88"/><path class="cls-53" d="M40,125.58a24.13,24.13,0,0,1,1.44,7.19c0,.3,0,.44.39.93s1.09.89.8,1.24-1.28.56-1.5.87l-1.21,5.08a1.18,1.18,0,0,1-.94.89,16,16,0,0,1-8.13-.61,14.86,14.86,0,0,1-2.12-1,25.62,25.62,0,0,0,5.82-5.7c.26-.36.11-1.35,1-1.4.59,0,3.07-4.1,3.53-4.6s.47-.68.64-1.54S40,125.58,40,125.58Z"/><path class="cls-36" d="M40,125.53A9,9,0,0,1,38,130.45c-.65.89-3.11,4.27-2.68,8.22a3.51,3.51,0,0,1-3.65,3.85c-.08,0-.13,0-.58,0a37.81,37.81,0,0,1-4.58-.16,6.17,6.17,0,0,1-4.28-2.66,4.51,4.51,0,0,1-.07-4.71,4,4,0,0,1,2.38-1.52A9.33,9.33,0,0,1,25.9,127a12.77,12.77,0,0,1,1.49-1.62C29.6,123.46,36.11,121.52,40,125.53Z"/><path id="_Clipping_Path_27" data-name="&lt;Clipping Path&gt;" class="cls-4" d="M43.93,153.55c.54,4.43-1,8.11-1.28,16.06a31.84,31.84,0,0,0,1.56,10.73c2.06,7.39,5,20.94,8.87,40a1.55,1.55,0,0,1-2.78,1.13,3,3,0,0,1-1.14,2.29,3.2,3.2,0,0,1-4.07-.71,6,6,0,0,1-2.94,2.25,6.34,6.34,0,0,1-5.35-.81,4.65,4.65,0,0,1-3.79,2,4.53,4.53,0,0,1-3.35-1.76,3.9,3.9,0,0,1-2.89,1,4,4,0,0,1-3-1.94A4.21,4.21,0,0,1,20,225.11a4.19,4.19,0,0,1-2.92-2.46A341.27,341.27,0,0,1,20.71,181s2.17-10,.49-18A48.87,48.87,0,0,0,19,155.65a44.19,44.19,0,0,0-2.6-5.31,35.2,35.2,0,0,1,9.12-4.55c1.34-.15,2.34-.14,3.23-.86a3.55,3.55,0,0,0,1-1.51l7.52,0a4,4,0,0,0,1.07,1.93c1.32,1.28,2.8.66,4.06,2a4.86,4.86,0,0,1,1.15,2.53c.11.65.07,1.13.26,2.79C43.86,153.05,43.91,153.39,43.93,153.55Z"/><g class="cls-54"><path class="cls-55" d="M8.09,171a65.87,65.87,0,0,0,25.7,4.46,65.18,65.18,0,0,0,24-5.18l1.65-24.94H5.73Z"/></g><path class="cls-49" d="M50.6,249.08l-.95,17.17a3.14,3.14,0,0,1-3.81.1q-.72-3.71-1.34-7.7-.72-4.68-1.18-9Z"/><path class="cls-49" d="M50.84,266.94c.27.3.49.55.66.76.54.64.68.86.64,1.11a.61.61,0,0,1-.18.33,1,1,0,0,1-1.33,0l-1.89-1.45a3.16,3.16,0,0,0,2.1-.78Z"/><polygon class="cls-49" points="25.21 269.3 22.03 269.19 22.36 271.12 24.58 271.12 25.21 269.3"/><path class="cls-56" d="M32.35,148.16"/><path class="cls-57" d="M48.9,188.85"/><path class="cls-57" d="M37.71,147.12"/><path class="cls-57" d="M42.9,145.73"/><path class="cls-49" d="M37.21,181.11"/><path class="cls-58" d="M77.56,160.4l1.1.25a5.5,5.5,0,0,0,3.13-.21l1.09-.41a1.32,1.32,0,0,0,.85-1.4l-.35-2.8a.6.6,0,0,0-.75-.51l-2.38.6-3.84,1.43-.07,1.45A1.56,1.56,0,0,0,77.56,160.4Z"/><path class="cls-59" d="M80,148.83h0a2,2,0,0,1,2,2v13.42a0,0,0,0,1,0,0H78a0,0,0,0,1,0,0V150.83A2,2,0,0,1,80,148.83Z" transform="translate(160.04 313.08) rotate(180)"/><path class="cls-27" d="M80,163.18a1.34,1.34,0,0,0,1.34-1.34v-9H78.68v9A1.34,1.34,0,0,0,80,163.18Z"/><path class="cls-60" d="M76.42,157.35l.81-1.05a2.84,2.84,0,0,1,1.6-1,2,2,0,0,0,.52-.19l1.24-.7a.4.4,0,0,1,.57.06h0a.4.4,0,0,1,0,.53l-1.22,1.22a1.94,1.94,0,0,0-.42.63l-.15.36a2.85,2.85,0,0,1-1.91,1.67l-1.09.29Z"/><rect class="cls-61" x="77.48" y="147.9" width="5.13" height="0.93" rx="0.47" ry="0.47" transform="translate(160.09 296.72) rotate(180)"/><path class="cls-60" d="M82.68,159.21l-.83-.33a1.14,1.14,0,0,1-.71-1.22l0-.25-.38-.26a1,1,0,0,1-.42-.66l-.1-.65a.66.66,0,0,1,.28-.64l.29-.2.25-.38a.57.57,0,0,1,.74-.2l.77.39A1.51,1.51,0,0,1,83.4,156l.3,2.46A.76.76,0,0,1,82.68,159.21Z"/><path id="_Clipping_Path_28" data-name="&lt;Clipping Path&gt;" class="cls-5" d="M29.78,226.68a9.65,9.65,0,0,1-3.48,1.42,9.4,9.4,0,0,1-7-1.33,9.27,9.27,0,0,1-3.7-5.27c.57-13.46,1.76-21.42,2.83-26.31a140.37,140.37,0,0,0,2.49-17.12c.1-1.39.16-2.77.16-2.77s0-1,0-2c.06-6.24.07-13.49-3.52-20.51a28.63,28.63,0,0,0-1.52-2.62,17.28,17.28,0,0,1,12.18-4.91Z"/><path id="_Clipping_Path_29" data-name="&lt;Clipping Path&gt;" class="cls-5" d="M38.34,145.31c.86.66,1.76.39,3.76,1a12.69,12.69,0,0,1,1.32.48c0,.7,0,1.74.13,3s.18,2.12.26,2.79c0,.17.07.52.12,1a60.45,60.45,0,0,1,0,13.33c-.35,3.61,1.07,15.68,9.11,53.5a3.75,3.75,0,0,1-.23,2.66c-.58,1.06-1.65,1.45-3.21,2a16.66,16.66,0,0,1-4.68.88Z"/><path class="cls-62" d="M16.66,184.29c.75-1.2,3-1,3.32-1s.57-.07,1-.08c2-.08,4.66.3,4.81,1.17,0,.2-.05.51-.68,1a.87.87,0,0,1-.47,1.68c.15.08.6.35.6.69s-.66.92-1.73,1l-1.72.16a6.83,6.83,0,0,1-3.36-.64l-2.29-1.08a5.36,5.36,0,0,1,.19-2.07A3.38,3.38,0,0,1,16.66,184.29Z"/><path class="cls-5" d="M21.78,157.17,7.49,171.33a24.56,24.56,0,0,1,4.1,4c1,1.3,1.5,2.19,3.72,5.37l1.85,2.62-.3,5A44.23,44.23,0,0,1,9,183.16c-4.41-3.64-9-7.44-9-12.21,0-1.47.44-3.08,5.17-8.93a129.72,129.72,0,0,1,11.18-12.13Z"/><path class="cls-5" d="M52.59,164.59"/><path class="cls-5" d="M43.42,146.8a29.8,29.8,0,0,1,5.27,3.69,32.56,32.56,0,0,1,3.9,4.13,65.91,65.91,0,0,0,8.35,8.31,62.23,62.23,0,0,0,15.41-5.56,13.24,13.24,0,0,1,1.67,4.3A36.52,36.52,0,0,1,73.51,165c-4.21,2.63-8.86,5.53-13.91,4.83-2.44-.34-5.49-2.53-11.6-6.93-2.29-1.65-4.15-3.09-5.44-4.12Z"/><path class="cls-46" d="M17.88,207.19h7.8a0,0,0,0,1,0,0v5.53a3.9,3.9,0,0,1-3.9,3.9h0a3.9,3.9,0,0,1-3.9-3.9v-5.53a0,0,0,0,1,0,0Z"/><path class="cls-46" d="M45.78,207.19h7.8a0,0,0,0,1,0,0v5.53a3.9,3.9,0,0,1-3.9,3.9h0a3.9,3.9,0,0,1-3.9-3.9v-5.53A0,0,0,0,1,45.78,207.19Z"/><path class="cls-5" d="M26.89,143.25"/></g></g></g></svg>